SplineFontDB: 3.0
FontName: AsimovProUlt
FullName: Asimov Pro Ultrablack
FamilyName: Asimov Pro
Weight: Ultrablack
Copyright: Font data copyright Google 2014, Design modifications and new weights 2015-2016, Cannot Into Space Fonts
Version: 2.000980; 2014
ItalicAngle: 0
UnderlinePosition: -97
UnderlineWidth: 48
Ascent: 750
Descent: 250
InvalidEm: 0
sfntRevision: 0x00010000
LayerCount: 2
Layer: 0 0 "Back" 1
Layer: 1 0 "Fore" 0
XUID: [1021 1014 1531800021 22137]
StyleMap: 0x0000
FSType: 0
OS2Version: 3
OS2_WeightWidthSlopeOnly: 0
OS2_UseTypoMetrics: 0
CreationTime: 1221222574
ModificationTime: 1467091173
PfmFamily: 81
TTFWeight: 900
TTFWidth: 5
LineGap: 0
VLineGap: 0
Panose: 0 0 0 0 0 0 0 0 0 0
OS2TypoAscent: 750
OS2TypoAOffset: 0
OS2TypoDescent: -250
OS2TypoDOffset: 0
OS2TypoLinegap: 50
OS2WinAscent: 950
OS2WinAOffset: 0
OS2WinDescent: 250
OS2WinDOffset: 0
HheadAscent: 928
HheadAOffset: 0
HheadDescent: -244
HheadDOffset: 0
OS2SubXSize: 700
OS2SubYSize: 650
OS2SubXOff: 0
OS2SubYOff: 140
OS2SupXSize: 700
OS2SupYSize: 650
OS2SupXOff: 0
OS2SupYOff: 477
OS2StrikeYSize: 50
OS2StrikeYPos: 250
OS2CapHeight: 1456
OS2XHeight: 1082
OS2Vendor: 'pyrs'
OS2CodePages: 2000019f.4f010000
OS2UnicodeRanges: e00002ff.5000205b.00000020.00000000
Lookup: 1 0 0 "<3,3> Small Caps in Latin lookup 0" { "<3,3> Small Caps in Latin lookup 0 subtable"  } [<3,3> ('latn' <'dflt' > ) 'smcp' ('latn' <'dflt' > ) ]
Lookup: 4 0 1 "<1,2> Common Ligatures in Latin lookup 1" { "<1,2> Common Ligatures in Latin lookup 1 subtable"  } [<1,2> ('latn' <'dflt' > ) 'liga' ('latn' <'dflt' > ) ]
Lookup: 1 0 0 "<21,0> Lower Case Numbers lookup 2" { "<21,0> Lower Case Numbers lookup 2 subtable" ("oldstyle") } [<21,0> ('DFLT' <'dflt' > ) 'onum' ('DFLT' <'dflt' > ) ]
Lookup: 258 0 0 "'kern' Horizontal Kerning lookup 0" { "'kern' Horizontal Kerning lookup 0 subtable"  } ['kern' ('DFLT' <'dflt' > 'cyrl' <'dflt' > 'grek' <'dflt' > 'latn' <'dflt' > ) ]

StartChar: exclam
Encoding: 33 33 5
Width: 239
Flags: W
HStem: -8 174<57.7254 182.672> 691 20G<32 208>
VStem: 29 182<19.4819 137.784 538.333 711> 50 141<193 394.444>
LayerCount: 2
Fore
SplineSet
29 78 m 0xe0
 29 132 67 166 120 166 c 0
 174 166 211 132 211 78 c 0
 211 24 172 -8 120 -8 c 0
 67 -8 29 25 29 78 c 0xe0
32 711 m 1
 208 711 l 1
 191 193 l 1
 50 193 l 1xd0
 32 711 l 1
EndSplineSet
EndChar

StartChar: quotedbl
Encoding: 34 34 6
Width: 343
Flags: W
HStem: 466 284
VStem: 32 284
LayerCount: 2
Fore
SplineSet
32 551 m 1
 32 750 l 1
 157 750 l 1
 114 466 l 1
 32 551 l 1
190 551 m 1
 190 750 l 1
 316 750 l 1
 273 466 l 1
 190 551 l 1
EndSplineSet
EndChar

StartChar: numbersign
Encoding: 35 35 7
Width: 619
Flags: W
HStem: 0 21G<98 216.5 281 400.723> 192 104<24 133 450 558> 200 96<267 316> 410 110<62 172 490 594> 410 98<306 355> 691 20G<224.23 341 406.552 526>
LayerCount: 2
Fore
SplineSet
24 192 m 1xc4
 24 296 l 1xc4
 152 296 l 1
 172 410 l 1
 62 410 l 1
 62 520 l 1
 192 520 l 1xb4
 228 711 l 1
 341 711 l 1
 306 508 l 1
 375 508 l 1x8c
 410 711 l 1
 526 711 l 1
 490 516 l 1
 594 516 l 1
 594 410 l 1x94
 470 410 l 1
 450 297 l 1
 558 296 l 1xcc
 558 188 l 1
 432 188 l 1
 397 0 l 1
 281 0 l 1
 316 200 l 1
 248 200 l 1xa4
 213 0 l 1
 98 0 l 1
 133 192 l 1
 24 192 l 1xc4
267 296 m 1xac
 335 296 l 1
 355 411 l 1
 287 410 l 1
 267 296 l 1xac
EndSplineSet
EndChar

StartChar: dollar
Encoding: 36 36 8
Width: 556
Flags: W
VStem: 22 166<157.499 248> 50 166<465.117 573.697> 232 104<-54 -3.5143> 242 104<718.509 773> 364 166<145.495 252.368 476 564.743>
LayerCount: 2
Fore
SplineSet
22 236 m 2xa8
 22 248 l 1
 188 248 l 1
 188 236 l 2xa8
 188 165 218 128 283 128 c 0
 334 128 364 151 364 197 c 0
 364 255 323 272 270 291 c 0
 165 329 50 377 50 521 c 0
 50 615 103 674 171 703 c 0
 193 713 217 719 242 722 c 1
 242 833 l 1
 346 773 l 1
 346 718 l 1
 461 698 530 615 530 488 c 2
 530 476 l 1
 364 476 l 1
 364 488 l 2
 364 551 340 588 287 588 c 0
 239 588 216 564 216 518 c 0x58
 216 480 234 464 262 448 c 1
 298 429 358 408 397 388 c 0
 468 353 530 298 530 194 c 0
 530 71 444 10 336 -6 c 1
 336 -114 l 1
 232 -54 l 1
 232 -7 l 1
 138 5 72 54 40 131 c 0
 27 161 22 196 22 236 c 2xa8
EndSplineSet
EndChar

StartChar: percent
Encoding: 37 37 9
Width: 722
Flags: W
HStem: -10 106<490.704 573.785> 226 108<487.346 572.001> 378 106<148.546 231.596> 615 106<149.619 231.142>
VStem: 24 118<490.075 605.19> 238 120<492.864 608.822> 364 118<104.864 218.235> 578 120<102.219 217.878>
LayerCount: 2
Fore
SplineSet
24 531 m 2
 24 567 l 2
 24 663 92 721 190 721 c 0
 290 721 358 663 358 567 c 2
 358 531 l 2
 358 435 290 378 191 378 c 0
 112 378 57 415 34 472 c 0
 26 491 24 511 24 531 c 2
132 85 m 1
 493 663 l 1
 584 614 l 1
 223 36 l 1
 132 85 l 1
142 532 m 2
 142 501 159 484 191 484 c 0
 222 484 238 502 238 532 c 2
 238 566 l 2
 238 597 221 615 190 615 c 0
 160 615 142 596 142 566 c 2
 142 532 l 2
364 143 m 2
 364 180 l 2
 364 253 404 299 459 321 c 0
 480 329 505 334 531 334 c 0
 631 334 698 275 698 180 c 2
 698 143 l 2
 698 71 658 24 603 2 c 0
 582 -7 558 -10 532 -10 c 0
 433 -10 364 47 364 143 c 2
482 144 m 2
 482 116 502 96 532 96 c 0
 566 96 578 111 578 144 c 2
 578 179 l 2
 578 210 562 226 531 226 c 0
 498 226 482 210 482 179 c 2
 482 144 l 2
EndSplineSet
EndChar

StartChar: ampersand
Encoding: 38 38 10
Width: 692
Flags: W
HStem: -10 139<213.856 350.443> 0 21G<462.158 673> 582 139<245.554 334.847>
VStem: 23 166<153.76 270.515> 85 150<465.75 571.932> 343 142<484.38 573.493>
LayerCount: 2
Fore
SplineSet
23 196 m 0xb4
 23 293 90 336 147 378 c 1
 128 403 115 425 104 447 c 0
 91 473 85 500 85 528 c 0
 85 647 168 721 291 721 c 0
 380 721 444 677 471 615 c 0
 480 594 485 572 485 548 c 0
 485 467 432 420 384 387 c 2
 350 364 l 1
 454 246 l 1
 480 275 491 296 502 329 c 1
 639 324 l 1
 637 311 l 2
 628 237 595 184 555 132 c 1
 673 0 l 1
 479 0 l 1x6c
 447 38 l 1
 398 8 342 -10 268 -10 c 0
 158 -10 75 35 41 113 c 0
 29 139 23 167 23 196 c 0xb4
189 212 m 0xb4
 189 161 223 129 275 129 c 0
 302 129 328 136 352 148 c 1
 229 290 l 1
 206 270 189 249 189 212 c 0xb4
235 524 m 0x2c
 235 495 255 468 269 447 c 1
 297 466 l 2
 323 484 343 499 343 534 c 0
 343 563 321 582 290 582 c 0
 254 582 235 561 235 524 c 0x2c
EndSplineSet
EndChar

StartChar: quotesingle
Encoding: 39 39 11
Width: 184
Flags: W
HStem: 466 284
VStem: 32 125<504.767 551>
LayerCount: 2
Fore
SplineSet
32 551 m 1
 32 750 l 1
 157 750 l 1
 114 466 l 1
 32 551 l 1
EndSplineSet
EndChar

StartChar: parenleft
Encoding: 40 40 12
Width: 345
Flags: W
VStem: 26 144<97.384 470.452>
LayerCount: 2
Fore
SplineSet
26 278 m 2
 26 289 l 2
 26 465 77 602 159 699 c 0
 191 736 230 770 276 789 c 2
 288 794 l 1
 324 699 l 1
 317 693 l 1
 216 619 170 471 170 290 c 2
 170 277 l 2
 170 128 202 4 264 -76 c 0
 284 -100 301 -118 324 -132 c 1
 288 -227 l 1
 276 -222 l 2
 200 -189 147 -125 107 -57 c 0
 57 30 26 144 26 278 c 2
EndSplineSet
EndChar

StartChar: parenright
Encoding: 41 41 13
Width: 352
Flags: W
VStem: 173 152<104.439 462.467>
LayerCount: 2
Fore
SplineSet
20 -133 m 1
 27 -127 l 1
 126 -52 173 94 173 277 c 2
 173 290 l 2
 173 439 141 562 78 643 c 0
 57 669 39 683 20 700 c 1
 55 794 l 1
 67 789 l 2
 145 756 199 689 240 620 c 0
 290 534 325 424 325 289 c 2
 325 278 l 2
 325 103 268 -33 187 -130 c 0
 155 -168 115 -203 67 -222 c 2
 55 -227 l 1
 20 -133 l 1
EndSplineSet
EndChar

StartChar: asterisk
Encoding: 42 42 14
Width: 511
Flags: W
HStem: 691 20G<196 318>
LayerCount: 2
Fore
SplineSet
22 517 m 1
 59 618 l 1
 205 566 l 1
 196 711 l 1
 318 711 l 1
 309 562 l 1
 451 613 l 1
 488 512 l 1
 337 470 l 1
 436 344 l 1
 336 274 l 1
 252 411 l 1
 168 279 l 1
 68 347 l 1
 170 476 l 1
 22 517 l 1
EndSplineSet
EndChar

StartChar: plus
Encoding: 43 43 15
Width: 567
Flags: W
HStem: 258 152<27 205 363 539>
VStem: 205 158<58 258 410 589>
LayerCount: 2
Fore
SplineSet
27 258 m 1
 27 410 l 1
 205 410 l 1
 205 589 l 1
 363 589 l 1
 363 410 l 1
 539 410 l 1
 539 258 l 1
 363 258 l 1
 363 58 l 1
 205 58 l 1
 205 258 l 1
 27 258 l 1
EndSplineSet
EndChar

StartChar: comma
Encoding: 44 44 16
Width: 260
Flags: W
HStem: -205 325<105.149 142.144>
VStem: 81 144<-91.1192 120>
LayerCount: 2
Fore
SplineSet
26 -158 m 1
 32 -147 l 1
 56 -100 81 -63 81 4 c 2
 81 120 l 1
 227 120 l 1
 225 11 l 1
 225 -59 197 -115 166 -156 c 0
 152 -175 136 -190 119 -205 c 1
 26 -158 l 1
EndSplineSet
EndChar

StartChar: hyphen
Encoding: 45 45 17
Width: 373
Flags: W
HStem: 236 138<36 336>
VStem: 36 300<236 374>
LayerCount: 2
Fore
SplineSet
36 236 m 1
 36 374 l 1
 336 374 l 1
 336 236 l 1
 36 236 l 1
EndSplineSet
EndChar

StartChar: period
Encoding: 46 46 18
Width: 247
Flags: W
HStem: -30 175<60.7254 185.784>
VStem: 32 184<-0.989502 114.625>
LayerCount: 2
Fore
SplineSet
32 56 m 0
 32 109 70 145 123 145 c 0
 176 145 216 110 216 56 c 0
 216 2 175 -30 123 -30 c 0
 70 -30 32 3 32 56 c 0
EndSplineSet
EndChar

StartChar: slash
Encoding: 47 47 19
Width: 439
Flags: W
HStem: 691 20G<280.031 418>
LayerCount: 2
Fore
SplineSet
18 -61 m 1
 287 711 l 1
 418 711 l 1
 149 -61 l 1
 18 -61 l 1
EndSplineSet
EndChar

StartChar: zero
Encoding: 48 48 20
Width: 562
Flags: W
HStem: -10 139<227.197 336.746> 581 140<224.857 337.83>
VStem: 27 168<162.233 544.369> 367 166<167.491 548.987>
LayerCount: 2
Fore
SplineSet
27 296 m 2
 27 415 l 2
 27 592 99 721 280 721 c 0
 411 721 485 652 516 552 c 1
 529 514 533 468 533 415 c 2
 533 296 l 2
 533 121 464 -10 281 -10 c 0
 149 -10 78 61 46 160 c 0
 33 198 27 244 27 296 c 2
195 279 m 2
 195 193 209 129 281 129 c 0
 353 129 367 193 367 279 c 2
 367 434 l 2
 367 520 354 581 280 581 c 0
 209 581 195 519 195 434 c 2
 195 279 l 2
EndSplineSet
Substitution2: "<21,0> Lower Case Numbers lookup 2 subtable" zero.onum
EndChar

StartChar: one
Encoding: 49 49 21
Width: 376
Flags: W
HStem: 0 21G<173 339> 692 20G<147.477 339>
VStem: 173 166<0 535>
LayerCount: 2
Fore
SplineSet
25 442 m 1
 25 603 l 1
 175 712 l 1
 339 712 l 1
 339 0 l 1
 173 0 l 1
 173 535 l 1
 25 442 l 1
EndSplineSet
Substitution2: "<21,0> Lower Case Numbers lookup 2 subtable" one.onum
EndChar

StartChar: two
Encoding: 50 50 22
Width: 575
Flags: W
HStem: 0 134<262 552> 582 139<221.811 339.787>
VStem: 24 168<462 548.958> 362 166<432.399 560.417>
LayerCount: 2
Fore
SplineSet
24 462 m 1
 24 474 l 2
 24 590 91 666 176 701 c 0
 208 714 244 721 284 721 c 0
 397 721 478 680 513 600 c 0
 524 574 528 545 528 514 c 0
 528 457 509 415 484 377 c 0
 452 327 410 283 367 241 c 1
 262 134 l 1
 552 134 l 1
 552 0 l 1
 38 0 l 1
 38 110 l 1
 272 348 l 2
 301 377 325 406 343 437 c 0
 355 456 362 473 362 496 c 0
 362 550 334 582 282 582 c 0
 221 582 192 540 192 474 c 2
 192 462 l 1
 24 462 l 1
EndSplineSet
Substitution2: "<21,0> Lower Case Numbers lookup 2 subtable" two.onum
EndChar

StartChar: three
Encoding: 51 51 23
Width: 566
Flags: W
HStem: -10 139<214.712 350.464> 296 134<183 342.704> 582 139<211.565 346.216>
VStem: 365 166<452.48 563.475> 375 166<154.373 271.109>
LayerCount: 2
Fore
SplineSet
23 208 m 2xe8
 23 220 l 1
 189 220 l 1
 189 208 l 2
 189 159 228 129 280 129 c 0
 338 129 375 157 375 208 c 0xe8
 375 270 339 296 271 296 c 2
 183 296 l 1
 183 430 l 1
 271 430 l 2
 333 430 365 457 365 509 c 0
 365 557 335 582 280 582 c 0
 231 582 197 562 197 525 c 2
 197 514 l 1
 31 514 l 1
 31 526 l 2
 31 625 103 682 182 706 c 0
 211 715 244 721 277 721 c 0
 390 721 473 681 511 603 c 0
 524 577 531 546 531 513 c 0xf0
 531 440 485 395 439 366 c 1
 502 337 541 284 541 204 c 0
 541 93 469 30 381 4 c 0
 349 -5 314 -10 277 -10 c 0
 169 -10 86 36 45 110 c 0
 30 138 23 171 23 208 c 2xe8
EndSplineSet
Substitution2: "<21,0> Lower Case Numbers lookup 2 subtable" three.onum
EndChar

StartChar: four
Encoding: 52 52 24
Width: 587
Flags: W
HStem: 0 21G<316 482> 142 138<192 316 482 562> 691 20G<306.004 482>
VStem: 316 166<0 142 280 483>
LayerCount: 2
Fore
SplineSet
24 142 m 1
 24 257 l 1
 319 711 l 1
 482 711 l 1
 482 280 l 1
 562 280 l 1
 562 142 l 1
 482 142 l 1
 482 0 l 1
 316 0 l 1
 316 142 l 1
 24 142 l 1
192 280 m 1
 316 280 l 1
 316 483 l 1
 192 280 l 1
EndSplineSet
Substitution2: "<21,0> Lower Case Numbers lookup 2 subtable" four.onum
EndChar

StartChar: five
Encoding: 53 53 25
Width: 554
Flags: W
HStem: -10 139<216.135 333.814> 348 132<207.84 328.968> 568 143<221 506>
VStem: 362 166<159.616 316.924>
LayerCount: 2
Fore
SplineSet
22 223 m 1
 186 223 l 1
 187 212 l 2
 192 161 222 129 276 129 c 0
 339 129 362 175 362 242 c 0
 362 310 331 348 261 348 c 0
 214 348 192 330 170 308 c 1
 39 341 l 1
 83 711 l 1
 506 711 l 1
 506 568 l 1
 221 568 l 1
 207 461 l 1
 233 472 264 480 299 480 c 0
 452 480 528 380 528 234 c 0
 528 121 471 45 387 10 c 0
 355 -3 318 -10 276 -10 c 0
 167 -10 86 43 47 117 c 0
 32 145 24 175 23 210 c 2
 22 223 l 1
EndSplineSet
Substitution2: "<21,0> Lower Case Numbers lookup 2 subtable" five.onum
EndChar

StartChar: six
Encoding: 54 54 26
Width: 565
Flags: W
HStem: -10 139<228.522 341.089> 350 138<228.569 340.772> 577 141<297.06 432>
VStem: 26 166<166.725 324.362> 374 166<164.745 315.65>
LayerCount: 2
Fore
SplineSet
26 276 m 2
 26 329 l 2
 26 508 108 636 242 690 c 0
 289 709 342 718 400 718 c 2
 432 718 l 1
 432 577 l 1
 412 577 l 2
 296 577 226 531 201 450 c 1
 233 473 275 488 325 488 c 0
 437 488 501 419 527 336 c 0
 536 306 540 273 540 240 c 0
 540 123 478 46 392 10 c 0
 361 -3 326 -10 288 -10 c 0
 157 -10 76 65 43 161 c 0
 30 196 26 234 26 276 c 2
192 259 m 2
 192 197 210 154 247 137 c 0
 258 132 272 129 285 129 c 0
 331 129 355 159 367 195 c 0
 372 209 374 222 374 239 c 0
 374 292 353 327 320 342 c 0
 309 347 296 350 282 350 c 0
 236 350 208 326 192 297 c 1
 192 259 l 2
EndSplineSet
EndChar

StartChar: seven
Encoding: 55 55 27
Width: 575
Flags: W
HStem: 0 21G<94 280> 572 139<24 369>
LayerCount: 2
Fore
SplineSet
24 572 m 1
 24 711 l 1
 550 711 l 1
 550 620 l 1
 271 0 l 1
 94 0 l 1
 369 572 l 1
 24 572 l 1
EndSplineSet
Substitution2: "<21,0> Lower Case Numbers lookup 2 subtable" seven.onum
EndChar

StartChar: eight
Encoding: 56 56 28
Width: 554
Flags: W
HStem: -10 139<212.67 340.128> 294 140<223.142 330.858> 582 139<221.534 330.591>
VStem: 24 166<151.666 270.649> 40 166<450.941 566.189> 348 166<450.824 565.56> 362 168<151.372 270.762>
LayerCount: 2
Fore
SplineSet
24 200 m 0xf2
 24 279 69 335 123 366 c 1
 76 397 40 446 40 516 c 0
 40 620 100 682 182 707 c 1
 211 717 243 721 277 721 c 0
 383 721 463 679 497 604 c 0
 509 578 514 548 514 516 c 0xec
 514 446 476 396 430 366 c 1
 486 334 530 280 530 200 c 0
 530 91 464 28 377 3 c 0
 347 -6 313 -10 277 -10 c 0
 165 -10 82 32 43 109 c 0
 30 135 24 166 24 200 c 0xf2
190 211 m 0xf2
 190 159 222 129 277 129 c 0
 332 129 362 159 362 211 c 0
 362 264 332 294 276 294 c 0
 221 294 190 264 190 211 c 0xf2
206 509 m 0xec
 206 463 231 434 277 434 c 0
 323 434 348 463 348 509 c 0
 348 555 323 582 277 582 c 0
 229 582 206 556 206 509 c 0xec
EndSplineSet
EndChar

StartChar: nine
Encoding: 57 57 29
Width: 555
Flags: W
HStem: -7 143<130 269.06> 218 132<222.371 332.767> 582 139<221.997 326.978>
VStem: 24 166<382.06 548.881> 362 166<371.826 544.203>
LayerCount: 2
Fore
SplineSet
24 463 m 0
 24 580 86 662 171 700 c 0
 202 714 236 721 275 721 c 0
 404 721 479 643 510 547 c 0
 521 511 528 472 528 429 c 2
 528 380 l 2
 528 141 398 -7 153 -7 c 2
 130 -7 l 1
 130 136 l 1
 152 136 l 2
 268 136 336 172 355 253 c 1
 325 232 288 218 244 218 c 0
 132 218 64 282 38 366 c 0
 29 395 24 429 24 463 c 0
190 465 m 0
 190 399 216 350 278 350 c 0
 318 350 349 373 362 398 c 1
 362 451 l 2
 362 513 344 557 308 575 c 0
 298 580 286 582 274 582 c 0
 217 582 190 528 190 465 c 0
EndSplineSet
Substitution2: "<21,0> Lower Case Numbers lookup 2 subtable" nine.onum
EndChar

StartChar: colon
Encoding: 58 58 30
Width: 245
Flags: W
HStem: -5 175<60.2722 185.331> 370 175<60.2722 185.331>
VStem: 31 184<24.1885 140.218 398.595 514.625>
LayerCount: 2
Fore
SplineSet
31 82 m 0
 31 135 70 170 123 170 c 0
 176 170 215 136 215 82 c 0
 215 28 175 -5 123 -5 c 0
 70 -5 31 29 31 82 c 0
31 456 m 0
 31 509 70 545 123 545 c 0
 176 545 215 510 215 456 c 0
 215 402 175 370 123 370 c 0
 70 370 31 403 31 456 c 0
EndSplineSet
EndChar

StartChar: semicolon
Encoding: 59 59 31
Width: 262
Flags: W
HStem: 370 175<79.2722 204.331>
VStem: 50 184<398.595 514.625> 76 144<-78.6893 132>
LayerCount: 2
Fore
SplineSet
21 -145 m 1xa0
 27 -134 l 1
 51 -87 76 -50 76 17 c 2
 76 132 l 1
 222 132 l 1
 220 24 l 1
 220 -46 191 -103 160 -144 c 0
 146 -162 130 -177 114 -193 c 1
 21 -145 l 1xa0
50 456 m 0xc0
 50 509 89 545 142 545 c 0
 195 545 234 510 234 456 c 0
 234 402 194 370 142 370 c 0
 89 370 50 403 50 456 c 0xc0
EndSplineSet
EndChar

StartChar: less
Encoding: 60 60 32
Width: 511
Flags: W
LayerCount: 2
Fore
SplineSet
30 224 m 1
 30 356 l 1
 476 545 l 1
 476 381 l 1
 221 290 l 1
 476 200 l 1
 476 36 l 1
 30 224 l 1
EndSplineSet
EndChar

StartChar: equal
Encoding: 61 61 33
Width: 535
Flags: W
HStem: 140 140<36 498> 352 140<36 498>
LayerCount: 2
Fore
SplineSet
36 140 m 1
 36 280 l 1
 498 280 l 1
 498 140 l 1
 36 140 l 1
36 352 m 1
 36 492 l 1
 498 492 l 1
 498 352 l 1
 36 352 l 1
EndSplineSet
EndChar

StartChar: greater
Encoding: 62 62 34
Width: 516
Flags: W
LayerCount: 2
Fore
SplineSet
35 35 m 1
 35 199 l 1
 292 290 l 1
 35 381 l 1
 35 544 l 1
 485 356 l 1
 485 224 l 1
 35 35 l 1
EndSplineSet
EndChar

StartChar: question
Encoding: 63 63 35
Width: 510
Flags: W
HStem: -6 175<185.309 308.331> 580 141<204.823 306.735>
VStem: 154 184<24.1537 138.21> 168 150<193 285.922> 320 166<453.124 566.781>
LayerCount: 2
Fore
SplineSet
22 497 m 1xd8
 22 510 l 2
 22 650 120 721 256 721 c 0
 391 721 486 654 486 516 c 0
 486 467 469 431 448 402 c 0
 424 367 393 341 363 313 c 0
 342 293 326 272 321 239 c 0
 320 227 319 218 318 205 c 2
 318 193 l 1
 168 193 l 1
 168 206 l 2
 168 271 180 322 210 361 c 0
 245 406 297 434 314 482 c 0
 318 491 320 499 320 510 c 0
 320 559 302 580 256 580 c 0
 213 580 188 555 188 510 c 2
 188 497 l 1
 22 497 l 1xd8
154 80 m 0xe0
 154 133 194 169 246 169 c 0
 299 169 338 134 338 80 c 0
 338 26 298 -6 246 -6 c 0
 203 -6 176 16 162 46 c 0
 157 57 154 67 154 80 c 0xe0
EndSplineSet
EndChar

StartChar: at
Encoding: 64 64 36
Width: 890
Flags: W
HStem: -221 110<317.336 565.477> -22 114<385.653 467.62> -22 102<619.942 700.689> 384 112<428.053 511.332> 600 104<350.971 592.204>
VStem: 27 121<54.5235 357.829>
LayerCount: 2
Fore
SplineSet
27 226 m 0xbc
 35 440 135 596 291 667 c 0
 344 691 404 704 470 704 c 0
 604 704 703 655 769 581 c 0
 835 506 870 398 864 262 c 1
 860 135 811 27 709 -11 c 0
 687 -19 664 -22 638 -22 c 0xbc
 583 -22 541 0 518 37 c 1
 488 3 448 -22 392 -22 c 0xdc
 387 -22 383 -21 378 -21 c 0
 266 -13 230 97 239 211 c 1
 252 329 302 430 392 475 c 0
 420 489 449 496 479 496 c 0
 558 496 597 466 642 436 c 1
 616 147 l 2
 615 140 615 135 615 129 c 0
 615 97 627 80 656 80 c 0
 687 80 705 103 721 130 c 0
 755 190 759 319 739 401 c 0
 708 525 624 600 468 600 c 0
 363 600 289 555 239 495 c 0
 186 432 153 337 148 225 c 0
 140 61 193 -44 307 -89 c 0
 344 -103 387 -111 436 -111 c 0
 496 -111 550 -97 593 -79 c 2
 606 -73 l 1
 630 -171 l 1
 622 -176 l 2
 575 -207 506 -221 434 -221 c 0
 426 -221 418 -221 410 -221 c 0
 146 -212 17 -42 27 226 c 0xbc
372 183 m 0
 372 126 386 92 426 92 c 0xdc
 463 92 480 127 494 163 c 1
 513 382 l 1
 504 384 498 384 488 384 c 0
 409 384 382 306 373 209 c 0
 372 200 372 191 372 183 c 0
EndSplineSet
EndChar

StartChar: A
Encoding: 65 65 37
Width: 744
Flags: W
HStem: 0 21G<20 209.712 533.288 723> 146 132<300 443> 691 20G<286.293 455.736>
LayerCount: 2
Fore
SplineSet
20 0 m 1
 294 711 l 1
 448 711 l 1
 723 0 l 1
 540 0 l 1
 491 146 l 1
 252 146 l 1
 203 0 l 1
 20 0 l 1
300 278 m 1
 443 278 l 1
 371 491 l 1
 300 278 l 1
EndSplineSet
Substitution2: "<3,3> Small Caps in Latin lookup 0 subtable" A.smcp
EndChar

StartChar: B
Encoding: 66 66 38
Width: 621
Flags: W
HStem: 0 143<208 390.709> 298 128<208 382.128> 567 144<208 382.453>
VStem: 36 172<143 298 426 567> 402 172<445.471 549.159> 418 172<166.219 278.4>
LayerCount: 2
Fore
SplineSet
36 0 m 1xf4
 36 711 l 1
 298 711 l 2
 417 711 513 681 555 599 c 0
 568 574 574 544 574 511 c 0xf8
 574 443 540 394 493 367 c 1
 553 341 590 290 590 214 c 0
 590 63 477 0 321 0 c 2
 36 0 l 1xf4
208 143 m 1
 321 143 l 2
 382 143 418 167 418 217 c 0xf4
 418 274 391 298 327 298 c 2
 208 298 l 1
 208 143 l 1
208 426 m 1
 304 426 l 1
 367 427 402 446 402 495 c 0xf8
 402 551 369 567 298 567 c 2
 208 567 l 1
 208 426 l 1
EndSplineSet
Substitution2: "<3,3> Small Caps in Latin lookup 0 subtable" B.smcp
EndChar

StartChar: C
Encoding: 67 67 39
Width: 665
Flags: W
HStem: -10 145<257.751 419.105> 576 145<257.449 419.466>
VStem: 28 172<201.128 504.443>
LayerCount: 2
Fore
SplineSet
28 333 m 2
 28 377 l 2
 28 533 93 648 209 697 c 0
 247 713 289 721 335 721 c 0
 514 721 615 620 633 459 c 1
 635 445 l 1
 462 445 l 1
 462 457 l 1
 457 538 421 576 335 576 c 0
 231 576 200 499 200 378 c 2
 200 333 l 2
 200 218 225 135 333 135 c 0
 419 135 456 171 461 250 c 1
 461 262 l 1
 633 262 l 1
 632 249 l 2
 623 125 554 45 454 9 c 0
 418 -4 378 -10 333 -10 c 0
 177 -10 86 77 48 192 c 1
 33 234 28 281 28 333 c 2
EndSplineSet
Substitution2: "<3,3> Small Caps in Latin lookup 0 subtable" C.smcp
EndChar

StartChar: D
Encoding: 68 68 40
Width: 639
Flags: W
HStem: 0 143<208 356.67> 567 144<208 353.386>
VStem: 36 172<143 567> 432 174<229.734 486.629>
LayerCount: 2
Fore
SplineSet
36 0 m 1
 36 711 l 1
 268 711 l 2
 431 711 534 625 581 509 c 0
 598 467 606 421 606 370 c 2
 606 340 l 2
 606 180 525 71 404 24 c 0
 362 8 316 0 267 0 c 2
 36 0 l 1
208 143 m 1
 267 143 l 2
 383 143 432 219 432 340 c 2
 432 371 l 2
 432 493 385 567 268 567 c 2
 208 567 l 1
 208 143 l 1
EndSplineSet
Substitution2: "<3,3> Small Caps in Latin lookup 0 subtable" D.smcp
EndChar

StartChar: E
Encoding: 69 69 41
Width: 569
Flags: W
HStem: 0 143<208 538> 296 140<208 490> 567 144<208 538>
VStem: 36 172<143 296 436 567>
LayerCount: 2
Fore
SplineSet
36 0 m 1
 36 711 l 1
 538 711 l 1
 538 567 l 1
 208 567 l 1
 208 436 l 1
 490 436 l 1
 490 296 l 1
 208 296 l 1
 208 143 l 1
 538 143 l 1
 538 0 l 1
 36 0 l 1
EndSplineSet
Substitution2: "<3,3> Small Caps in Latin lookup 0 subtable" E.smcp
EndChar

StartChar: F
Encoding: 70 70 42
Width: 550
Flags: W
HStem: 0 21G<36 208> 278 144<208 490> 567 144<208 524>
VStem: 36 172<0 278 422 567>
LayerCount: 2
Fore
SplineSet
36 0 m 1
 36 711 l 1
 524 711 l 1
 524 567 l 1
 208 567 l 1
 208 422 l 1
 490 422 l 1
 490 278 l 1
 208 278 l 1
 208 0 l 1
 36 0 l 1
EndSplineSet
Substitution2: "<3,3> Small Caps in Latin lookup 0 subtable" F.smcp
EndChar

StartChar: G
Encoding: 71 71 43
Width: 671
Flags: W
HStem: -10 143<272.67 455.296> 254 132<328 460> 578 143<265.563 418.02>
VStem: 28 174<213.087 504.282> 460 172<145.653 254>
LayerCount: 2
Fore
SplineSet
28 335 m 2
 28 375 l 2
 28 535 90 649 210 698 c 0
 249 713 291 721 338 721 c 0
 514 721 613 632 632 474 c 2
 634 460 l 1
 466 460 l 1
 465 471 l 2
 455 539 420 578 342 578 c 0
 237 578 202 496 202 376 c 2
 202 335 l 2
 202 212 243 133 356 133 c 0
 401 133 443 142 460 158 c 1
 460 254 l 1
 328 254 l 1
 328 386 l 1
 632 386 l 1
 632 -5 l 1
 496 -5 l 1
 496 11 l 1
 451 -3 403 -10 348 -10 c 0
 190 -10 91 74 50 190 c 1
 34 232 28 281 28 335 c 2
EndSplineSet
Substitution2: "<3,3> Small Caps in Latin lookup 0 subtable" G.smcp
EndChar

StartChar: H
Encoding: 72 72 44
Width: 634
Flags: W
HStem: 0 21G<36 208 422 594> 290 150<208 422> 691 20G<36 208 422 594>
VStem: 36 172<0 290 440 711> 422 172<0 290 440 711>
LayerCount: 2
Fore
SplineSet
36 0 m 1
 36 711 l 1
 208 711 l 1
 208 440 l 1
 422 440 l 1
 422 711 l 1
 594 711 l 1
 594 0 l 1
 422 0 l 1
 422 290 l 1
 208 290 l 1
 208 0 l 1
 36 0 l 1
EndSplineSet
Substitution2: "<3,3> Small Caps in Latin lookup 0 subtable" H.smcp
EndChar

StartChar: I
Encoding: 73 73 45
Width: 248
Flags: W
HStem: 0 21G<36 208> 691 20G<36 208>
VStem: 36 172<0 711>
LayerCount: 2
Fore
SplineSet
36 0 m 1
 36 711 l 1
 208 711 l 1
 208 0 l 1
 36 0 l 1
EndSplineSet
Substitution2: "<3,3> Small Caps in Latin lookup 0 subtable" I.smcp
EndChar

StartChar: J
Encoding: 74 74 46
Width: 566
Flags: W
HStem: -10 143<214.693 330.666> 691 20G<355 527>
VStem: 355 172<160.496 711>
LayerCount: 2
Fore
SplineSet
25 222 m 2
 25 235 l 1
 197 235 l 1
 197 222 l 2
 197 160 217 133 275 133 c 0
 327 133 355 169 355 227 c 2
 355 711 l 1
 527 711 l 1
 527 224 l 2
 527 112 461 38 373 7 c 0
 343 -3 311 -10 275 -10 c 0
 126 -10 25 70 25 222 c 2
EndSplineSet
Substitution2: "<3,3> Small Caps in Latin lookup 0 subtable" J.smcp
EndChar

StartChar: K
Encoding: 75 75 47
Width: 670
Flags: W
HStem: 0 21G<36 208 419.399 650> 691 20G<36 208 406.208 634>
VStem: 36 172<0 291 423 711>
LayerCount: 2
Fore
SplineSet
36 0 m 1
 36 711 l 1
 208 711 l 1
 208 423 l 1
 421 711 l 1
 634 711 l 1
 354 358 l 1
 650 0 l 1
 435 0 l 1
 208 291 l 1
 208 0 l 1
 36 0 l 1
EndSplineSet
Substitution2: "<3,3> Small Caps in Latin lookup 0 subtable" K.smcp
EndChar

StartChar: L
Encoding: 76 76 48
Width: 549
Flags: W
HStem: 0 143<208 520> 691 20G<36 208>
VStem: 36 172<143 711>
LayerCount: 2
Fore
SplineSet
36 0 m 1
 36 711 l 1
 208 711 l 1
 208 143 l 1
 520 143 l 1
 520 0 l 1
 36 0 l 1
EndSplineSet
Substitution2: "<3,3> Small Caps in Latin lookup 0 subtable" L.smcp
EndChar

StartChar: M
Encoding: 77 77 49
Width: 850
Flags: W
HStem: 0 21G<36 208 356.739 489.229 638 810> 691 20G<36 257.088 588.994 810>
VStem: 36 172<0 368> 36 161<299 460> 638 172<0 369.273> 649 161<299.727 462>
LayerCount: 2
Fore
SplineSet
36 0 m 1xe0
 36 711 l 1
 250 711 l 1
 424 220 l 1
 596 711 l 1
 810 711 l 1xd4
 810 0 l 1
 638 0 l 1
 638 207 l 1xc8
 649 462 l 1
 482 0 l 1
 364 0 l 1
 197 460 l 1xd4
 208 207 l 1
 208 0 l 1
 36 0 l 1xe0
EndSplineSet
Substitution2: "<3,3> Small Caps in Latin lookup 0 subtable" M.smcp
EndChar

StartChar: N
Encoding: 78 78 50
Width: 680
Flags: W
HStem: 0 21G<36 208 461.798 640> 691 20G<36 215.22 470 640>
VStem: 36 172<0 436> 470 170<274 711>
LayerCount: 2
Fore
SplineSet
36 0 m 1
 36 711 l 1
 203 711 l 1
 470 274 l 1
 470 711 l 1
 640 711 l 1
 640 0 l 1
 474 0 l 1
 208 436 l 1
 208 0 l 1
 36 0 l 1
EndSplineSet
Substitution2: "<3,3> Small Caps in Latin lookup 0 subtable" N.smcp
EndChar

StartChar: O
Encoding: 79 79 51
Width: 692
Flags: W
HStem: -10 145<270.036 418.686> 575 146<267.699 418.649>
VStem: 28 172<218.52 494.334> 484 174<215.23 495.348>
LayerCount: 2
Fore
SplineSet
28 340 m 2
 28 370 l 2
 28 531 97 645 215 696 c 0
 254 712 296 721 343 721 c 0
 445 721 520 681 570 626 c 0
 624 566 658 479 658 370 c 2
 658 340 l 2
 658 178 589 65 471 14 c 0
 432 -2 391 -10 344 -10 c 0
 244 -10 166 29 116 84 c 0
 62 143 28 232 28 340 c 2
200 340 m 2
 200 247 226 177 284 148 c 0
 301 140 321 135 344 135 c 0
 447 135 484 222 484 340 c 2
 484 371 l 2
 484 489 447 575 343 575 c 0
 240 575 200 489 200 371 c 2
 200 340 l 2
EndSplineSet
Substitution2: "<3,3> Small Caps in Latin lookup 0 subtable" O.smcp
EndChar

StartChar: P
Encoding: 80 80 52
Width: 635
Flags: W
HStem: 0 21G<36 208> 238 144<208 406.375> 567 144<208 400.644>
VStem: 36 172<0 238 382 567> 434 172<408.53 534.481>
LayerCount: 2
Fore
SplineSet
36 0 m 1
 36 711 l 1
 327 711 l 2
 456 711 549 657 588 566 c 0
 601 536 606 504 606 470 c 0
 606 351 537 283 444 254 c 0
 409 243 370 238 327 238 c 2
 208 238 l 1
 208 0 l 1
 36 0 l 1
208 382 m 1
 327 382 l 2
 396 382 434 409 434 469 c 0
 434 531 395 567 327 567 c 2
 208 567 l 1
 208 382 l 1
EndSplineSet
Substitution2: "<3,3> Small Caps in Latin lookup 0 subtable" P.smcp
EndChar

StartChar: Q
Encoding: 81 81 53
Width: 692
Flags: W
HStem: -10 145<272.516 393.204> 575 146<267.699 418.649>
VStem: 28 172<218.451 494.334> 484 174<215.601 495.348>
LayerCount: 2
Fore
SplineSet
28 340 m 2
 28 370 l 2
 28 531 97 645 215 696 c 0
 254 712 296 721 343 721 c 0
 445 721 520 681 570 626 c 0
 624 566 658 479 658 370 c 2
 658 339 l 2
 658 213 615 119 544 58 c 1
 661 -31 l 1
 549 -131 l 1
 394 -6 l 1
 377 -9 361 -9 345 -10 c 2
 344 -10 l 2
 242 -10 167 31 116 85 c 0
 60 144 28 231 28 340 c 2
200 340 m 2
 200 247 226 177 284 148 c 0
 301 140 321 135 344 135 c 0
 447 135 484 222 484 340 c 2
 484 371 l 2
 484 489 447 575 343 575 c 0
 240 575 200 489 200 371 c 2
 200 340 l 2
EndSplineSet
Substitution2: "<3,3> Small Caps in Latin lookup 0 subtable" Q.smcp
EndChar

StartChar: R
Encoding: 82 82 54
Width: 639
Flags: W
HStem: 0 21G<36 208 427.274 616> 248 144<208 305> 567 144<208 389.648>
VStem: 36 172<0 248 392 567> 418 170<419.889 540.889>
LayerCount: 2
Fore
SplineSet
36 0 m 1
 36 711 l 1
 314 711 l 2
 436 711 529 672 569 586 c 0
 582 558 588 526 588 491 c 0
 588 386 538 329 466 294 c 1
 616 22 l 1
 616 0 l 1
 438 0 l 1
 305 248 l 1
 208 248 l 1
 208 0 l 1
 36 0 l 1
208 392 m 1
 314 392 l 2
 380 392 418 420 418 478 c 0
 418 538 383 567 314 567 c 2
 208 567 l 1
 208 392 l 1
EndSplineSet
Substitution2: "<3,3> Small Caps in Latin lookup 0 subtable" R.smcp
EndChar

StartChar: S
Encoding: 83 83 55
Width: 625
Flags: W
HStem: -10 141<230.253 402.771> 579 142<236.99 392.014>
VStem: 45 172<470.853 557.161> 421 172<150.208 246.588 476 551.92>
LayerCount: 2
Fore
SplineSet
23 236 m 2
 23 249 l 1
 195 249 l 1
 195 236 l 2
 195 158 241 131 323 131 c 0
 382 131 421 150 421 197 c 0
 421 239 398 252 360 268 c 0
 343 275 320 283 291 292 c 0
 201 320 109 355 65 434 c 0
 52 458 45 487 45 518 c 0
 45 625 126 680 210 705 c 0
 243 715 280 721 320 721 c 0
 443 721 532 668 573 582 c 0
 586 553 593 522 593 488 c 2
 593 476 l 1
 423 476 l 1
 423 488 l 2
 423 549 384 579 317 579 c 0
 257 579 217 559 217 511 c 0
 217 494 225 479 247 465 c 0
 269 451 303 437 349 424 c 0
 444 396 538 358 577 272 c 0
 588 248 593 221 593 192 c 0
 593 85 520 28 433 4 c 0
 400 -5 363 -10 323 -10 c 0
 183 -10 74 51 36 159 c 0
 28 182 23 208 23 236 c 2
EndSplineSet
Substitution2: "<3,3> Small Caps in Latin lookup 0 subtable" S.smcp
EndChar

StartChar: T
Encoding: 84 84 56
Width: 653
Flags: W
HStem: 0 21G<237 409> 567 144<23 237 409 627>
VStem: 237 172<0 567>
LayerCount: 2
Fore
SplineSet
23 567 m 1
 23 711 l 1
 627 711 l 1
 627 567 l 1
 409 567 l 1
 409 0 l 1
 237 0 l 1
 237 567 l 1
 23 567 l 1
EndSplineSet
Substitution2: "<3,3> Small Caps in Latin lookup 0 subtable" T.smcp
EndChar

StartChar: U
Encoding: 85 85 57
Width: 642
Flags: W
HStem: -10 143<241.441 396.206> 691 20G<33 205 431 603>
VStem: 33 172<169.08 711> 431 172<169.011 711>
LayerCount: 2
Fore
SplineSet
33 246 m 2
 33 711 l 1
 205 711 l 1
 205 249 l 2
 205 170 241 133 318 133 c 0
 396 133 431 170 431 249 c 2
 431 711 l 1
 603 711 l 1
 603 246 l 2
 603 117 533 38 431 7 c 0
 397 -4 358 -10 318 -10 c 0
 186 -10 96 44 55 136 c 0
 41 168 33 205 33 246 c 2
EndSplineSet
Substitution2: "<3,3> Small Caps in Latin lookup 0 subtable" U.smcp
EndChar

StartChar: V
Encoding: 86 86 58
Width: 725
Flags: W
HStem: 0 21G<268.799 454.201> 691 20G<20 215.992 506.968 703>
LayerCount: 2
Fore
SplineSet
20 711 m 1
 210 711 l 1
 361 207 l 1
 513 711 l 1
 703 711 l 1
 447 0 l 1
 276 0 l 1
 20 711 l 1
EndSplineSet
Substitution2: "<3,3> Small Caps in Latin lookup 0 subtable" V.smcp
EndChar

StartChar: W
Encoding: 87 87 59
Width: 918
Flags: W
HStem: 0 21G<180.387 356.862 559.138 735.613> 691 20G<21 196.807 381.361 534.629 719.201 895>
LayerCount: 2
Fore
SplineSet
21 711 m 1
 193 711 l 1
 280 254 l 1
 386 711 l 1
 530 711 l 1
 636 253 l 1
 723 711 l 1
 895 711 l 1
 731 0 l 1
 564 0 l 1
 458 436 l 1
 352 0 l 1
 185 0 l 1
 21 711 l 1
EndSplineSet
Substitution2: "<3,3> Small Caps in Latin lookup 0 subtable" W.smcp
EndChar

StartChar: X
Encoding: 88 88 60
Width: 698
Flags: W
HStem: 0 21G<19 229.017 466.983 677> 691 20G<24 232.909 463.091 672>
LayerCount: 2
Fore
SplineSet
19 0 m 1
 238 358 l 1
 24 711 l 1
 222 711 l 1
 348 480 l 1
 474 711 l 1
 672 711 l 1
 458 358 l 1
 677 0 l 1
 478 0 l 1
 348 236 l 1
 218 0 l 1
 19 0 l 1
EndSplineSet
Substitution2: "<3,3> Small Caps in Latin lookup 0 subtable" X.smcp
EndChar

StartChar: Y
Encoding: 89 89 61
Width: 698
Flags: W
HStem: 0 21G<260 434> 691 20G<20 218.175 478.759 677>
VStem: 260 174<0 258>
LayerCount: 2
Fore
SplineSet
20 711 m 1
 209 711 l 1
 348 408 l 1
 488 711 l 1
 677 711 l 1
 434 258 l 1
 434 0 l 1
 260 0 l 1
 260 258 l 1
 20 711 l 1
EndSplineSet
Substitution2: "<3,3> Small Caps in Latin lookup 0 subtable" Y.smcp
EndChar

StartChar: Z
Encoding: 90 90 62
Width: 623
Flags: W
HStem: 0 143<248 594> 567 144<28 368>
LayerCount: 2
Fore
SplineSet
28 0 m 1
 28 98 l 1
 368 567 l 1
 28 567 l 1
 28 711 l 1
 586 711 l 1
 586 615 l 1
 248 143 l 1
 594 143 l 1
 594 0 l 1
 28 0 l 1
EndSplineSet
Substitution2: "<3,3> Small Caps in Latin lookup 0 subtable" Z.smcp
EndChar

StartChar: bracketleft
Encoding: 91 91 63
Width: 295
Flags: W
HStem: -191 134<203 273> 693 134<203 273>
VStem: 37 236<-191 -57 693 827> 37 166<-57 693>
LayerCount: 2
Fore
SplineSet
37 -191 m 1xe0
 37 827 l 1
 273 827 l 1
 273 693 l 1xe0
 203 693 l 1
 203 -57 l 1xd0
 273 -57 l 1
 273 -191 l 1
 37 -191 l 1xe0
EndSplineSet
EndChar

StartChar: backslash
Encoding: 92 92 64
Width: 516
Flags: W
HStem: 691 20G<20 198.927>
LayerCount: 2
Fore
SplineSet
20 711 m 1
 191 711 l 1
 497 -61 l 1
 325 -61 l 1
 20 711 l 1
EndSplineSet
EndChar

StartChar: bracketright
Encoding: 93 93 65
Width: 295
Flags: W
HStem: -191 134<21 91> 693 134<21 91>
VStem: 21 236<-191 -57 693 827> 91 166<-57 693>
LayerCount: 2
Fore
SplineSet
21 -57 m 1xe0
 91 -57 l 1
 91 693 l 1xd0
 21 693 l 1
 21 827 l 1
 257 827 l 1
 257 -191 l 1
 21 -191 l 1
 21 -57 l 1xe0
EndSplineSet
EndChar

StartChar: asciicircum
Encoding: 94 94 66
Width: 482
Flags: W
HStem: 691 20G<172.155 308.845>
LayerCount: 2
Fore
SplineSet
24 356 m 1
 181 711 l 1
 300 711 l 1
 457 356 l 1
 317 356 l 1
 241 556 l 1
 165 356 l 1
 24 356 l 1
EndSplineSet
EndChar

StartChar: underscore
Encoding: 95 95 67
Width: 543
Flags: W
HStem: -135 135<36 506>
LayerCount: 2
Fore
SplineSet
36 0 m 1
 506 0 l 1
 506 -135 l 1
 36 -135 l 1
 36 0 l 1
EndSplineSet
EndChar

StartChar: grave
Encoding: 96 96 68
Width: 358
Flags: W
HStem: 574 176<183 215>
VStem: 26 302
LayerCount: 2
Fore
SplineSet
26 750 m 1
 215 750 l 1
 328 574 l 1
 183 574 l 1
 26 750 l 1
EndSplineSet
EndChar

StartChar: a
Encoding: 97 97 69
Width: 548
Flags: W
HStem: -10 133<200.045 313.204> 0 21G<357.5 523> 228 108<210.152 335> 409 129<214.017 323.471>
VStem: 27 166<131.749 208.979> 335 166<139.807 228 336 398.396>
LayerCount: 2
Fore
SplineSet
27 155 m 0xbc
 27 292 149 336 284 336 c 2
 335 336 l 1
 335 350 l 2
 335 389 315 409 269 409 c 0
 229 409 205 391 205 358 c 2
 205 345 l 1
 39 345 l 1
 39 358 l 2
 39 416 71 458 105 485 c 0
 147 518 206 538 277 538 c 0
 378 538 451 501 484 431 c 0
 496 407 501 379 501 348 c 2
 501 134 l 2
 501 88 507 54 521 25 c 1
 523 22 l 1
 523 0 l 1
 360 0 l 1x7c
 355 10 348 23 345 34 c 1
 315 7 274 -10 220 -10 c 0
 135 -10 72 32 43 89 c 0
 33 109 27 131 27 155 c 0xbc
193 166 m 0
 193 140 217 123 251 123 c 0xbc
 291 123 321 139 335 160 c 1
 335 228 l 1
 289 228 l 2
 230 228 193 210 193 166 c 0
EndSplineSet
Substitution2: "<3,3> Small Caps in Latin lookup 0 subtable" A.smcp
EndChar

StartChar: b
Encoding: 98 98 70
Width: 570
Flags: W
HStem: -10 139<229.585 341.89> 0 21G<36 188.5> 398 140<227.329 340.27> 730 20G<36 202>
VStem: 36 166<145.031 381.969 499 750> 370 166<159.105 367.808>
LayerCount: 2
Fore
SplineSet
36 0 m 1x7c
 36 750 l 1
 202 750 l 1
 202 499 l 1
 232 524 268 538 318 538 c 0
 436 538 500 466 524 376 c 0
 532 343 536 308 536 270 c 2
 536 260 l 2
 536 144 500 52 415 11 c 0
 387 -3 355 -10 319 -10 c 0xbc
 263 -10 221 11 191 40 c 1
 186 0 l 1
 36 0 l 1x7c
202 171 m 1
 217 144 239 129 283 129 c 0
 354 129 370 182 370 259 c 2
 370 269 l 2
 370 344 353 398 282 398 c 0
 237 398 217 383 202 356 c 1
 202 171 l 1
EndSplineSet
Substitution2: "<3,3> Small Caps in Latin lookup 0 subtable" B.smcp
EndChar

StartChar: c
Encoding: 99 99 71
Width: 551
Flags: W
HStem: -10 139<221.735 341.692> 399 139<223.69 336.382>
VStem: 28 166<157.526 366.548> 358 158<147.086 208 307 377.5>
LayerCount: 2
Fore
SplineSet
28 257 m 2
 28 270 l 2
 28 429 118 538 283 538 c 0
 391 538 465 488 498 410 c 0
 510 382 516 353 516 320 c 2
 516 307 l 1
 358 307 l 1
 358 320 l 2
 358 368 328 399 281 399 c 0
 211 399 194 345 194 270 c 2
 194 258 l 2
 194 182 209 129 282 129 c 0
 330 129 356 153 359 196 c 2
 359 208 l 1
 516 208 l 1
 516 196 l 2
 516 131 483 79 447 47 c 0
 409 13 352 -10 284 -10 c 0
 154 -10 74 58 43 153 c 0
 33 185 28 221 28 257 c 2
EndSplineSet
Substitution2: "<3,3> Small Caps in Latin lookup 0 subtable" C.smcp
EndChar

StartChar: d
Encoding: 100 100 72
Width: 568
Flags: W
HStem: -10 139<225.098 335.331> 0 21G<375.5 528> 398 140<225.558 336.119> 730 20G<362 528>
VStem: 28 166<163.517 363.472> 362 166<145.902 381.533 498 750>
LayerCount: 2
Fore
SplineSet
28 258 m 2xbc
 28 267 l 2
 28 383 68 476 153 517 c 0
 181 531 212 538 247 538 c 0
 297 538 334 522 362 498 c 1
 362 750 l 1
 528 750 l 1
 528 0 l 1
 378 0 l 1x7c
 373 40 l 1
 342 10 302 -10 246 -10 c 0
 171 -10 118 24 84 67 c 0
 48 114 28 181 28 258 c 2xbc
194 258 m 2
 194 185 215 129 282 129 c 0xbc
 324 129 348 146 362 171 c 1
 362 356 l 1
 347 382 325 398 283 398 c 0
 215 398 194 341 194 268 c 2
 194 258 l 2
EndSplineSet
Substitution2: "<3,3> Small Caps in Latin lookup 0 subtable" D.smcp
EndChar

StartChar: e
Encoding: 101 101 73
Width: 566
Flags: W
HStem: -10 139<236.538 393.315> 206 108<200 368> 399 139<228.729 345.932>
LayerCount: 2
Fore
SplineSet
28 246 m 2
 28 264 l 2
 28 387 86 478 179 517 c 0
 211 531 247 538 287 538 c 0
 451 538 532 430 532 275 c 2
 532 206 l 1
 198 206 l 1
 210 159 247 129 312 129 c 0
 368 129 404 150 429 183 c 2
 438 195 l 1
 524 98 l 1
 518 90 l 2
 475 31 404 -10 302 -10 c 0
 170 -10 83 56 46 148 c 0
 33 179 28 211 28 246 c 2
200 314 m 1
 368 314 l 1
 368 369 340 399 286 399 c 0
 233 399 209 364 200 314 c 1
EndSplineSet
Substitution2: "<3,3> Small Caps in Latin lookup 0 subtable" E.smcp
EndChar

StartChar: f
Encoding: 102 102 74
Width: 418
Flags: W
HStem: 0 21G<104 270> 400 128<24 104 270 374> 621 139<280.629 392.102>
VStem: 104 166<0 400 528 607.258>
LayerCount: 2
Fore
SplineSet
24 400 m 1
 24 528 l 1
 104 528 l 1
 104 562 l 2
 104 690 183 760 310 760 c 0
 338 760 362 755 384 750 c 2
 394 747 l 1
 392 613 l 1
 377 616 l 2
 367 619 353 620 337 621 c 1
 292 621 270 602 270 562 c 2
 270 528 l 1
 374 528 l 1
 374 400 l 1
 270 400 l 1
 270 0 l 1
 104 0 l 1
 104 400 l 1
 24 400 l 1
EndSplineSet
Substitution2: "<3,3> Small Caps in Latin lookup 0 subtable" F.smcp
EndChar

StartChar: g
Encoding: 103 103 75
Width: 589
Flags: W
HStem: -214 132<188.744 370.667> 4 132<216.048 385.839> 156 130<223.746 347.827> 406 132<221.942 348.977> 431 97<508 558>
VStem: 18 156<-91.5 0.767565> 44 166<301.79 391.012> 88 128<111.573 161.264> 362 166<302.436 390.99> 392 164<-60.0856 -2.1416>
LayerCount: 2
Fore
SplineSet
18 -66 m 0xec40
 18 -2 64 31 104 54 c 1
 94 69 88 86 88 108 c 0xe9
 88 148 111 176 135 195 c 1
 86 224 44 274 44 344 c 2
 44 353 l 2
 44 415 74 458 111 487 c 0
 153 519 214 538 286 538 c 0xf2
 315 538 345 535 370 528 c 1
 558 528 l 1
 560 431 l 1
 508 431 l 1
 520 409 528 383 528 351 c 2
 528 342 l 2
 528 282 498 238 461 209 c 0
 419 176 359 156 287 156 c 0
 263 156 240 158 221 162 c 1
 218 158 216 155 216 150 c 0xe980
 216 139 232 136 265 136 c 2
 355 136 l 2
 467 136 556 88 556 -24 c 0
 556 -82 517 -127 481 -154 c 0
 431 -191 359 -214 273 -214 c 0
 197 -214 134 -201 86 -172 c 0
 51 -152 18 -117 18 -66 c 0xec40
174 -32 m 0xe440
 174 -67 220 -82 273 -82 c 0
 327 -82 368 -70 386 -46 c 0
 390 -41 392 -35 392 -30 c 0
 392 -5 372 4 334 4 c 2
 239 4 l 2
 225 4 208 4 196 6 c 1
 183 -2 174 -14 174 -32 c 0xe440
210 342 m 2xf280
 210 307 243 286 287 286 c 0
 331 286 362 308 362 342 c 2
 362 351 l 2
 362 386 331 406 286 406 c 0
 240 406 210 387 210 351 c 2
 210 342 l 2xf280
EndSplineSet
Substitution2: "<3,3> Small Caps in Latin lookup 0 subtable" G.smcp
EndChar

StartChar: h
Encoding: 104 104 76
Width: 555
Flags: W
HStem: 0 21G<36 202 352 518> 398 140<239.789 339.107> 730 20G<36 202>
VStem: 36 166<0 383.1 490 750> 352 166<0 385.361>
LayerCount: 2
Fore
SplineSet
36 0 m 1
 36 750 l 1
 202 750 l 1
 202 490 l 1
 234 519 276 538 331 538 c 0
 464 538 518 455 518 330 c 2
 518 0 l 1
 352 0 l 1
 352 326 l 2
 352 379 334 398 280 398 c 0
 240 398 217 383 202 361 c 1
 202 0 l 1
 36 0 l 1
EndSplineSet
Substitution2: "<3,3> Small Caps in Latin lookup 0 subtable" H.smcp
EndChar

StartChar: i
Encoding: 105 105 77
Width: 246
Flags: W
HStem: 0 21G<38 204> 508 20G<38 204> 567 171<58.0659 183.934>
VStem: 28 184<595.417 708.159> 38 166<0 528>
LayerCount: 2
Fore
SplineSet
28 652 m 0xf0
 28 703 68 738 120 738 c 0
 172 738 212 705 212 652 c 0
 212 599 172 567 120 567 c 0
 69 567 28 598 28 652 c 0xf0
38 0 m 1xe8
 38 528 l 1
 204 528 l 1
 204 0 l 1
 38 0 l 1xe8
EndSplineSet
Substitution2: "<3,3> Small Caps in Latin lookup 0 subtable" I.smcp
EndChar

StartChar: j
Encoding: 106 106 78
Width: 333
Flags: W
HStem: -213 140<18.6581 117.624> 508 20G<126 292> 567 171<143.669 268.331>
VStem: 114 184<595.002 708.574> 126 166<-64.9141 528>
LayerCount: 2
Fore
SplineSet
18 -65 m 1xe8
 33 -68 l 2
 46 -71 59 -73 74 -73 c 0
 111 -73 126 -56 126 -16 c 2
 126 528 l 1
 292 528 l 1
 292 -16 l 2
 292 -139 222 -213 99 -213 c 0
 69 -213 41 -210 18 -202 c 1
 18 -65 l 1xe8
114 652 m 0xf0
 114 704 154 738 206 738 c 0
 258 738 298 704 298 652 c 0
 298 598 257 567 206 567 c 0
 155 567 114 598 114 652 c 0xf0
EndSplineSet
Substitution2: "<3,3> Small Caps in Latin lookup 0 subtable" J.smcp
EndChar

StartChar: k
Encoding: 107 107 79
Width: 573
Flags: W
HStem: 0 21G<36 202 340.146 553> 508 20G<319.624 533> 742 20G<36 202>
VStem: 36 166<0 206 355 762>
LayerCount: 2
Fore
SplineSet
36 0 m 1
 36 762 l 1
 202 762 l 1
 202 355 l 1
 335 528 l 1
 533 528 l 1
 328 282 l 1
 553 0 l 1
 355 0 l 1
 202 206 l 1
 202 0 l 1
 36 0 l 1
EndSplineSet
Substitution2: "<3,3> Small Caps in Latin lookup 0 subtable" K.smcp
EndChar

StartChar: l
Encoding: 108 108 80
Width: 242
Flags: W
HStem: 0 21G<36 202> 730 20G<36 202>
VStem: 36 166<0 750>
LayerCount: 2
Fore
SplineSet
36 0 m 1
 36 750 l 1
 202 750 l 1
 202 0 l 1
 36 0 l 1
EndSplineSet
Substitution2: "<3,3> Small Caps in Latin lookup 0 subtable" L.smcp
EndChar

StartChar: m
Encoding: 109 109 81
Width: 857
Flags: W
HStem: 0 21G<35 201 343 509 651 819> 398 140<239.796 370 536.441 704.17> 508 20G<35 194.429>
VStem: 35 166<0 383.81> 343 166<0 379.55> 651 168<0 387.831>
LayerCount: 2
Fore
SplineSet
35 0 m 1xdc
 35 528 l 1
 193 528 l 1xbc
 196 486 l 1
 230 517 276 538 337 538 c 0
 403 538 451 513 479 469 c 1
 514 512 563 538 636 538 c 0
 767 538 819 457 819 333 c 2
 819 0 l 1
 651 0 l 1
 651 328 l 2
 651 380 636 398 584 398 c 0
 544 398 523 378 509 351 c 1
 509 234 509 117 509 0 c 1
 343 0 l 1
 343 327 l 2
 343 384 325 398 276 398 c 0
 237 398 215 383 201 361 c 1
 201 0 l 1
 35 0 l 1xdc
EndSplineSet
Substitution2: "<3,3> Small Caps in Latin lookup 0 subtable" M.smcp
EndChar

StartChar: n
Encoding: 110 110 82
Width: 555
Flags: W
HStem: 0 21G<35 201 351 517> 398 140<241.018 403.364> 508 20G<35 194.395>
VStem: 35 166<0 381.008> 351 166<0 386.829>
LayerCount: 2
Fore
SplineSet
35 0 m 1xd8
 35 528 l 1
 193 528 l 1xb8
 196 485 l 1
 230 517 277 538 337 538 c 0
 467 538 517 454 517 333 c 2
 517 0 l 1
 351 0 l 1
 351 329 l 2
 351 380 332 398 279 398 c 0
 241 398 216 381 201 359 c 1
 201 0 l 1
 35 0 l 1xd8
EndSplineSet
Substitution2: "<3,3> Small Caps in Latin lookup 0 subtable" N.smcp
EndChar

StartChar: o
Encoding: 111 111 83
Width: 588
Flags: W
HStem: -10 139<228.186 353.198> 399 139<228.233 352.493>
VStem: 28 166<165.5 358.171> 388 166<169.829 359.93>
LayerCount: 2
Fore
SplineSet
28 259 m 2
 28 268 l 2
 28 391 86 478 179 517 c 1
 212 532 249 538 290 538 c 0
 420 538 502 469 536 375 c 0
 547 342 554 307 554 269 c 2
 554 260 l 2
 554 137 496 50 403 11 c 1
 370 -4 332 -10 291 -10 c 0
 161 -10 78 59 44 153 c 0
 32 186 28 221 28 259 c 2
194 259 m 2
 194 183 218 129 291 129 c 0
 362 129 388 184 388 259 c 2
 388 269 l 2
 388 344 361 399 290 399 c 0
 219 399 194 343 194 269 c 2
 194 259 l 2
EndSplineSet
Substitution2: "<3,3> Small Caps in Latin lookup 0 subtable" O.smcp
EndChar

StartChar: p
Encoding: 112 112 84
Width: 571
Flags: W
HStem: -203 21G<35 201> -10 139<228.632 337.927> 398 140<226.505 336.57> 508 20G<35 192.286>
VStem: 35 166<-203 30 144.353 383.535> 371 166<164.823 362.312>
LayerCount: 2
Fore
SplineSet
35 -203 m 1xec
 35 528 l 1
 190 528 l 1xdc
 194 493 l 1
 225 521 263 538 318 538 c 0
 436 538 497 466 522 378 c 0
 531 345 537 309 537 270 c 2
 537 260 l 2
 537 145 494 54 413 12 c 0
 386 -3 353 -10 319 -10 c 0
 269 -10 229 7 201 30 c 1
 201 -203 l 1
 35 -203 l 1xec
201 168 m 1
 215 144 239 129 282 129 c 0
 349 129 371 187 371 259 c 2
 371 269 l 2
 371 341 348 398 281 398 c 0xec
 238 398 216 384 201 361 c 1
 201 168 l 1
EndSplineSet
Substitution2: "<3,3> Small Caps in Latin lookup 0 subtable" P.smcp
EndChar

StartChar: q
Encoding: 113 113 85
Width: 568
Flags: W
HStem: -203 21G<362 528> -10 139<225.247 337.247> 399 139<226.319 338.793> 508 20G<377.923 528>
VStem: 28 166<162.335 363.54> 362 166<-203 28 144.353 384.97>
LayerCount: 2
Fore
SplineSet
28 259 m 2xdc
 28 268 l 2
 28 383 68 476 152 517 c 0
 180 531 212 538 248 538 c 0xec
 305 538 346 518 375 489 c 1
 381 528 l 1
 528 528 l 1
 528 -203 l 1
 362 -203 l 1
 362 28 l 1
 333 5 295 -10 247 -10 c 0
 129 -10 68 66 42 153 c 0
 33 186 28 221 28 259 c 2xdc
194 259 m 2
 194 185 215 129 283 129 c 0
 326 129 347 144 362 168 c 1
 362 362 l 1
 347 386 326 399 284 399 c 0
 217 399 194 342 194 269 c 2
 194 259 l 2
EndSplineSet
Substitution2: "<3,3> Small Caps in Latin lookup 0 subtable" Q.smcp
EndChar

StartChar: r
Encoding: 114 114 86
Width: 391
Flags: W
HStem: 0 21G<35 201> 375 163<227.539 357.148> 508 20G<35 195.026>
VStem: 35 166<0 357.321>
LayerCount: 2
Fore
SplineSet
35 0 m 1xd0
 35 528 l 1
 194 528 l 1xb0
 196 489 l 1
 222 518 256 538 303 538 c 0
 319 538 338 535 350 532 c 2
 360 529 l 1
 357 370 l 1
 344 371 l 2
 329 372 308 375 294 375 c 0
 243 375 217 360 201 333 c 1
 201 0 l 1
 35 0 l 1xd0
EndSplineSet
Substitution2: "<3,3> Small Caps in Latin lookup 0 subtable" R.smcp
EndChar

StartChar: s
Encoding: 115 115 87
Width: 530
Flags: W
HStem: -10 125<200.111 328.545> 413 125<207.635 319.284>
VStem: 39 162<341.079 404.107> 335 164<123.543 186.869 343 398.478>
LayerCount: 2
Fore
SplineSet
23 180 m 2
 23 193 l 1
 181 193 l 1
 181 181 l 2
 184 136 215 115 266 115 c 0
 310 115 335 129 335 156 c 0
 335 180 319 186 290 196 c 0
 277 200 260 204 238 208 c 0
 163 223 89 250 55 309 c 0
 45 327 39 348 39 371 c 0
 39 423 68 463 100 489 c 0
 139 520 195 538 263 538 c 0
 366 538 443 501 479 429 c 0
 490 406 497 383 497 356 c 2
 497 343 l 1
 331 343 l 1
 331 356 l 2
 331 394 308 413 262 413 c 0
 223 413 201 397 201 370 c 0
 201 350 218 341 244 333 c 0
 278 322 332 315 370 303 c 0
 418 288 457 263 481 224 c 0
 492 205 499 181 499 155 c 0
 499 100 468 62 433 37 c 0
 391 8 333 -10 263 -10 c 0
 156 -10 74 36 39 111 c 0
 28 134 23 157 23 180 c 2
EndSplineSet
Substitution2: "<3,3> Small Caps in Latin lookup 0 subtable" S.smcp
EndChar

StartChar: t
Encoding: 116 116 88
Width: 395
Flags: W
HStem: -10 141<212 364.797> 400 128<25 103 269 359>
VStem: 103 166<134.954 400 528 658>
LayerCount: 2
Fore
SplineSet
25 400 m 1
 25 528 l 1
 103 528 l 1
 103 658 l 1
 269 658 l 1
 269 528 l 1
 359 528 l 1
 359 400 l 1
 269 400 l 1
 269 170 l 2
 269 139 277 131 310 131 c 0
 325 131 339 132 349 135 c 2
 365 139 l 1
 365 6 l 1
 355 3 l 2
 329 -4 301 -10 266 -10 c 0
 158 -10 103 47 103 149 c 2
 103 400 l 1
 25 400 l 1
EndSplineSet
Substitution2: "<3,3> Small Caps in Latin lookup 0 subtable" T.smcp
EndChar

StartChar: u
Encoding: 117 117 89
Width: 555
Flags: W
HStem: -10 139<212.3 316.731> 0 21G<356.947 515> 508 20G<33 199 349 515>
VStem: 33 166<141.236 528> 349 166<146.333 528>
LayerCount: 2
Fore
SplineSet
33 190 m 2xb8
 33 528 l 1
 199 528 l 1
 199 194 l 2
 199 150 218 129 262 129 c 0xb8
 307 129 333 145 349 168 c 1
 349 528 l 1
 515 528 l 1
 515 0 l 1
 358 0 l 1x78
 356 38 l 1
 323 9 278 -10 221 -10 c 0
 92 -10 33 68 33 190 c 2xb8
EndSplineSet
Substitution2: "<3,3> Small Caps in Latin lookup 0 subtable" U.smcp
EndChar

StartChar: v
Encoding: 118 118 90
Width: 570
Flags: W
HStem: 0 21G<200.917 367.083> 508 20G<21 201.483 366.517 547>
LayerCount: 2
Fore
SplineSet
21 528 m 1
 196 528 l 1
 284 207 l 1
 372 528 l 1
 547 528 l 1
 360 0 l 1
 208 0 l 1
 21 528 l 1
EndSplineSet
Substitution2: "<3,3> Small Caps in Latin lookup 0 subtable" V.smcp
EndChar

StartChar: w
Encoding: 119 119 91
Width: 782
Flags: W
HStem: 0 21G<155.697 304.026 473.974 622.341> 508 20G<21 187.122 323.257 454.811 591.878 758>
LayerCount: 2
Fore
SplineSet
21 528 m 1
 183 528 l 1
 244 232 l 1
 329 528 l 1
 449 528 l 1
 535 232 l 1
 596 528 l 1
 758 528 l 1
 617 0 l 1
 480 0 l 1
 389 302 l 1
 298 0 l 1
 161 0 l 1
 21 528 l 1
EndSplineSet
Substitution2: "<3,3> Small Caps in Latin lookup 0 subtable" W.smcp
EndChar

StartChar: x
Encoding: 120 120 92
Width: 579
Flags: W
HStem: 0 21G<21 213.373 364.627 556> 508 20G<28 219.111 358.611 550>
LayerCount: 2
Fore
SplineSet
21 0 m 1
 186 270 l 1
 28 528 l 1
 208 528 l 1
 288 384 l 1
 370 528 l 1
 550 528 l 1
 392 270 l 1
 556 0 l 1
 376 0 l 1
 289 153 l 1
 202 0 l 1
 21 0 l 1
EndSplineSet
Substitution2: "<3,3> Small Caps in Latin lookup 0 subtable" X.smcp
EndChar

StartChar: y
Encoding: 121 121 93
Width: 578
Flags: W
HStem: -213 141<83.0327 181.015> -200 128<82 155.644> 508 20G<20 204.993 371.007 555>
LayerCount: 2
Fore
SplineSet
20 528 m 1xa0
 199 528 l 1
 288 231 l 1
 377 528 l 1
 555 528 l 1
 338 -71 l 2
 312 -145 264 -213 157 -213 c 0xa0
 128 -213 104 -208 82 -200 c 1
 82 -72 l 1x60
 95 -72 l 2
 103 -72 110 -73 116 -73 c 0
 165 -73 185 -59 196 -25 c 1
 196 -24 l 1
 211 12 l 1
 20 528 l 1xa0
EndSplineSet
Substitution2: "<3,3> Small Caps in Latin lookup 0 subtable" Y.smcp
EndChar

StartChar: z
Encoding: 122 122 94
Width: 522
Flags: W
HStem: 0 133<246 492> 389 139<36 265>
LayerCount: 2
Fore
SplineSet
28 0 m 1
 28 97 l 1
 265 389 l 1
 36 389 l 1
 36 528 l 1
 484 528 l 1
 484 433 l 1
 246 133 l 1
 492 133 l 1
 492 0 l 1
 28 0 l 1
EndSplineSet
Substitution2: "<3,3> Small Caps in Latin lookup 0 subtable" Z.smcp
EndChar

StartChar: braceleft
Encoding: 123 123 95
Width: 364
Flags: W
HStem: 238 128<24 93.2188>
VStem: 112 152<-44.7226 219.8 382.312 641.336>
LayerCount: 2
Fore
SplineSet
24 238 m 1
 24 366 l 1
 37 366 l 2
 92 366 112 393 112 451 c 2
 112 548 l 2
 112 682 187 750 297 780 c 2
 308 783 l 1
 343 683 l 1
 331 679 l 2
 283 662 264 618 264 546 c 2
 264 449 l 2
 264 380 235 331 189 301 c 1
 236 269 264 219 264 151 c 2
 264 52 l 2
 264 -21 283 -68 331 -85 c 2
 343 -89 l 1
 308 -191 l 1
 297 -188 l 2
 187 -157 112 -87 112 52 c 2
 112 151 l 2
 112 208 90 238 37 238 c 2
 24 238 l 1
EndSplineSet
EndChar

StartChar: bar
Encoding: 124 124 96
Width: 183
Flags: W
HStem: 691 20G<36 146>
VStem: 36 110<-157 711>
LayerCount: 2
Fore
SplineSet
36 -157 m 1
 36 711 l 1
 146 711 l 1
 146 -157 l 1
 36 -157 l 1
EndSplineSet
EndChar

StartChar: braceright
Encoding: 125 125 97
Width: 363
Flags: W
HStem: 238 128<268.375 338>
VStem: 100 152<-44.7226 221.671 382.46 641.336>
LayerCount: 2
Fore
SplineSet
20 -89 m 1
 32 -85 l 2
 80 -68 100 -20 100 52 c 2
 100 151 l 2
 100 222 130 271 175 300 c 1
 126 330 100 381 100 449 c 2
 100 546 l 2
 100 617 80 662 32 679 c 2
 20 683 l 1
 55 783 l 1
 66 780 l 2
 176 750 252 682 252 548 c 2
 252 451 l 2
 252 393 271 366 326 366 c 2
 338 366 l 1
 338 238 l 1
 326 238 l 2
 271 238 252 210 252 151 c 2
 252 52 l 2
 252 -87 176 -157 66 -188 c 2
 55 -191 l 1
 20 -89 l 1
EndSplineSet
EndChar

StartChar: asciitilde
Encoding: 126 126 98
Width: 633
Flags: W
HStem: 170 142<367.87 457.391> 276 140<174.489 262.616>
VStem: 32 130<191 265.237> 472 128<324.612 399>
LayerCount: 2
Fore
SplineSet
32 191 m 1x70
 32 203 l 2
 32 297 67 369 135 401 c 0
 157 411 180 416 205 416 c 0x70
 234 416 260 411 283 399 c 0
 305 387 327 371 351 349 c 1
 352 349 l 1
 373 328 389 312 418 312 c 0
 452 312 472 344 472 388 c 2
 472 401 l 1
 600 399 l 1
 600 387 l 2
 600 293 563 220 497 187 c 0
 475 176 451 170 426 170 c 0xb0
 355 170 315 206 280 239 c 0
 260 257 242 276 212 276 c 0
 179 276 162 244 162 202 c 2
 162 189 l 1
 32 191 l 1x70
EndSplineSet
EndChar

StartChar: exclamdown
Encoding: 161 161 100
Width: 242
Flags: W
HStem: 363 175<61.0612 181.854>
VStem: 29 184<-192 -27.5 395.062 507.125> 51 142<112.118 324>
LayerCount: 2
Fore
SplineSet
29 450 m 0xc0
 29 503 70 538 122 538 c 0
 164 538 192 515 206 485 c 0
 211 474 213 463 213 450 c 0
 213 398 173 363 122 363 c 0
 79 363 51 386 37 416 c 0
 32 427 29 437 29 450 c 0xc0
34 -192 m 1
 51 325 l 1
 193 324 l 1xa0
 210 -192 l 1
 34 -192 l 1
EndSplineSet
EndChar

StartChar: cent
Encoding: 162 162 101
Width: 539
Flags: W
HStem: -132 248<221.479 338.848> 412 244<222.101 334.717>
VStem: 25 166<150.744 376.127> 221 122<-132 -11.8525 539.47 656> 357 156<136.822 196 320 390>
LayerCount: 2
Fore
SplineSet
25 257 m 2
 25 271 l 2
 25 383 69 467 141 512 c 0
 164 527 192 539 221 545 c 1
 221 656 l 1
 343 656 l 1
 343 544 l 1
 420 527 475 480 500 411 c 0
 508 387 513 361 513 332 c 2
 513 320 l 1
 357 320 l 1
 357 332 l 2
 357 380 327 412 279 412 c 0
 209 412 191 353 191 271 c 2
 191 257 l 2
 191 174 207 116 280 116 c 0
 328 116 354 141 357 184 c 2
 357 196 l 1
 513 196 l 1
 513 183 l 2
 513 95 463 39 405 7 c 0
 386 -3 364 -11 343 -15 c 1
 343 -132 l 1
 221 -132 l 1
 221 -16 l 1
 95 10 25 111 25 257 c 2
EndSplineSet
EndChar

StartChar: sterling
Encoding: 163 163 102
Width: 598
Flags: W
HStem: 0 143<31 105.02 266 573> 268 135<29 105 282 429> 577 143<288.608 390.197>
VStem: 105 172<408 563.26> 111 174<143.981 268>
LayerCount: 2
Fore
SplineSet
29 268 m 1xe8
 29 408 l 1
 105 408 l 1
 101 503 l 1
 101 610 158 677 242 705 c 1
 271 716 302 720 336 720 c 0
 446 720 522 673 554 592 c 0
 565 565 569 535 569 504 c 2
 569 492 l 1
 405 492 l 1
 405 504 l 2
 405 553 382 577 335 577 c 0
 294 577 273 547 273 498 c 1
 277 403 l 1xf0
 429 403 l 1
 429 268 l 1
 282 268 l 1
 285 218 l 1
 285 187 278 163 266 143 c 1
 573 143 l 1
 573 0 l 1
 31 0 l 1
 31 143 l 1
 87 143 l 1
 105 149 111 176 111 211 c 1
 109 268 l 1
 29 268 l 1xe8
EndSplineSet
EndChar

StartChar: currency
Encoding: 164 164 103
Width: 695
Flags: W
HStem: -10 118<257.583 433.525> 485 118<257.32 434.412>
VStem: 42 116<207.636 386.473> 532 116<206.441 389.302>
LayerCount: 2
Fore
SplineSet
21 67 m 1
 87 133 l 1
 60 177 42 229 42 295 c 0
 42 364 62 421 92 464 c 1
 21 534 l 1
 106 622 l 1
 177 550 l 1
 222 581 277 603 346 603 c 0
 415 603 472 580 515 549 c 1
 586 623 l 1
 674 534 l 1
 599 462 l 1
 629 417 648 362 648 295 c 0
 648 230 630 176 604 134 c 1
 674 67 l 1
 586 -18 l 1
 521 48 l 1
 476 14 418 -10 346 -10 c 0
 273 -10 214 15 170 48 c 1
 106 -19 l 1
 21 67 l 1
158 297 m 0
 158 239 182 193 213 162 c 0
 243 132 288 108 346 108 c 0
 404 108 448 132 478 162 c 0
 509 193 532 239 532 297 c 0
 532 384 484 444 419 471 c 0
 397 481 371 485 346 485 c 0
 288 485 243 461 213 431 c 0
 182 400 158 355 158 297 c 0
EndSplineSet
EndChar

StartChar: yen
Encoding: 165 165 104
Width: 674
Flags: W
HStem: 0 21G<249 421> 124 110<85 249 421 577> 264 110<85 203 470 577> 691 20G<20 219.137 454.863 654>
VStem: 249 172<0 124 234 264>
LayerCount: 2
Fore
SplineSet
20 711 m 1
 210 711 l 1
 337 433 l 1
 464 711 l 1
 654 711 l 1
 470 374 l 1
 577 374 l 1
 577 264 l 1
 421 264 l 1
 421 234 l 1
 577 234 l 1
 577 124 l 1
 421 124 l 1
 421 0 l 1
 249 0 l 1
 249 124 l 1
 85 124 l 1
 85 234 l 1
 249 234 l 1
 249 264 l 1
 85 264 l 1
 85 374 l 1
 203 374 l 1
 20 711 l 1
EndSplineSet
EndChar

StartChar: brokenbar
Encoding: 166 166 105
Width: 225
Flags: W
HStem: 691 20G<36 188>
VStem: 36 152<-144 268 316 711>
LayerCount: 2
Fore
SplineSet
36 -144 m 1
 36 268 l 1
 188 268 l 1
 188 -144 l 1
 36 -144 l 1
36 316 m 1
 36 711 l 1
 188 711 l 1
 188 316 l 1
 36 316 l 1
EndSplineSet
EndChar

StartChar: section
Encoding: 167 167 106
Width: 605
Flags: W
HStem: -221 140<213.511 385.688> 582 139<220.416 376.35>
VStem: 24 166<-52.3431 8 227.579 326.385> 38 166<482.227 564.283> 400 166<-63.9909 9.44254 487 558.593> 416 164<172.783 260.625>
LayerCount: 2
Fore
SplineSet
24 -4 m 2xe8
 24 8 l 1
 190 8 l 1
 190 -4 l 2
 190 -62 234 -81 302 -81 c 0
 360 -81 400 -65 400 -28 c 0
 400 -8 392 0 376 11 c 0
 347 29 313 38 267 51 c 0
 176 75 83 103 42 182 c 0
 30 204 24 233 24 263 c 0xe8
 24 324 55 366 95 393 c 1
 59 424 38 466 38 528 c 0
 38 631 115 685 196 708 c 0
 228 717 263 721 303 721 c 0
 422 721 512 680 551 594 c 0
 564 566 570 534 570 500 c 2
 570 487 l 1
 404 487 l 1
 404 500 l 2
 404 554 363 582 303 582 c 0
 254 582 222 570 209 546 c 0
 205 537 204 531 204 525 c 0
 204 487 227 478 266 465 c 0
 391 425 580 410 580 234 c 0xd4
 580 173 550 130 510 104 c 1
 546 73 566 31 566 -31 c 0
 566 -134 493 -188 409 -209 c 0
 377 -217 341 -221 302 -221 c 0
 150 -221 24 -162 24 -4 c 2xe8
190 275 m 0
 190 234 214 222 253 208 c 0
 286 196 347 181 386 166 c 1
 404 178 416 195 416 221 c 0xe4
 416 259 386 272 348 287 c 0
 314 300 255 315 216 330 c 1
 200 319 190 302 190 275 c 0
EndSplineSet
EndChar

StartChar: dieresis
Encoding: 168 168 107
Width: 460
Flags: W
HStem: 580 149<52.5198 167.48 291.125 405.843>
VStem: 30 160<602.208 705.849> 268 160<602.151 705.849>
LayerCount: 2
Fore
SplineSet
30 654 m 0
 30 700 67 729 110 729 c 0
 154 729 190 699 190 654 c 0
 190 608 153 580 110 580 c 0
 66 580 30 607 30 654 c 0
268 654 m 0
 268 700 305 729 348 729 c 0
 392 729 428 699 428 654 c 0
 428 609 392 579 348 579 c 0
 303 579 268 608 268 654 c 0
EndSplineSet
EndChar

StartChar: copyright
Encoding: 169 169 108
Width: 768
Flags: W
HStem: -10 86<276.339 492.603> 126 90<320.579 436.953> 496 90<321.558 436.711> 635 86<277.589 489.157>
VStem: 24 84<242.788 465.35> 192 102<242.841 466.079> 450 102<231.164 304 408 479.943> 656 86<243.9 468.342>
LayerCount: 2
Fore
SplineSet
24 356 m 0
 24 470 70 555 129 615 c 0
 170 657 223 689 287 707 c 0
 318 716 350 721 383 721 c 0
 496 721 579 673 637 616 c 1
 697 555 742 471 742 356 c 0
 742 244 697 155 637 95 c 0
 579 37 493 -10 383 -10 c 0
 270 -10 186 37 129 95 c 0
 70 156 24 242 24 356 c 0
108 356 m 0
 108 226 182 138 276 97 c 0
 309 82 344 76 383 76 c 0
 470 76 533 111 577 156 c 0
 623 203 656 267 656 356 c 0
 656 474 597 553 520 598 c 0
 484 619 438 635 383 635 c 0
 298 635 234 598 189 554 c 0
 143 509 108 442 108 356 c 0
192 327 m 2
 192 385 l 2
 192 476 233 542 299 571 c 0
 322 581 347 586 376 586 c 0
 483 586 552 529 552 420 c 2
 552 408 l 1
 452 408 l 1
 452 420 l 2
 452 475 429 496 376 496 c 0
 319 496 294 450 294 385 c 2
 294 327 l 2
 294 260 318 216 376 216 c 0
 431 216 450 235 450 291 c 2
 450 304 l 1
 552 304 l 1
 552 291 l 2
 552 182 483 126 376 126 c 0
 285 126 228 177 205 246 c 0
 197 270 192 298 192 327 c 2
EndSplineSet
EndChar

StartChar: ordfeminine
Encoding: 170 170 109
Width: 396
Flags: W
HStem: 337 96<137.187 240.266> 504 83<144.122 242> 623 98<144.895 240.177>
VStem: 26 110<436.122 495.284> 242 110<442.97 504 587 620.364>
LayerCount: 2
Fore
SplineSet
26 462 m 0
 26 558 109 587 204 587 c 2
 242 587 l 1
 242 594 l 2
 242 614 229 623 198 623 c 0
 161 623 142 612 142 588 c 2
 142 574 l 1
 34 583 l 1
 34 594 l 2
 34 683 117 721 198 721 c 0
 291 721 352 673 352 586 c 2
 352 446 l 2
 352 413 356 387 364 360 c 2
 369 344 l 1
 258 344 l 1
 255 350 252 357 250 365 c 1
 227 348 197 337 159 337 c 0
 80 337 26 382 26 462 c 0
136 464 m 0
 136 442 148 433 180 433 c 0
 202 433 228 445 242 456 c 1
 242 504 l 1
 205 504 l 2
 169 504 148 495 139 478 c 0
 136 471 136 469 136 464 c 0
EndSplineSet
EndChar

StartChar: guillemotleft
Encoding: 171 171 110
Width: 504
Flags: W
LayerCount: 2
Fore
SplineSet
27 247 m 1
 27 265 l 1
 169 451 l 1
 288 451 l 1
 164 256 l 1
 288 61 l 1
 169 61 l 1
 27 247 l 1
215 247 m 1
 215 265 l 1
 357 451 l 1
 476 451 l 1
 352 256 l 1
 476 61 l 1
 357 61 l 1
 215 247 l 1
EndSplineSet
EndChar

StartChar: logicalnot
Encoding: 172 172 111
Width: 503
Flags: W
HStem: 298 108<34 344>
VStem: 344 122<170 298>
LayerCount: 2
Fore
SplineSet
34 298 m 1
 34 406 l 1
 466 406 l 1
 466 170 l 1
 344 170 l 1
 344 298 l 1
 34 298 l 1
EndSplineSet
EndChar

StartChar: uni00AD
Encoding: 173 173 112
Width: 373
Flags: W
HStem: 236 138<36 336>
VStem: 36 300<236 374>
LayerCount: 2
Fore
SplineSet
36 236 m 1
 36 374 l 1
 336 374 l 1
 336 236 l 1
 36 236 l 1
EndSplineSet
EndChar

StartChar: registered
Encoding: 174 174 113
Width: 767
Flags: W
HStem: -10 86<276.339 492.603> 306 90<324 439.883> 492 90<324 442.531> 635 86<276.665 489.157>
VStem: 24 84<242.715 465.947> 226 98<142 306 396 492> 446 100<165.48 299.871 405.63 485.073> 457 97<142 292.728> 656 86<244.047 469.178>
LayerCount: 2
Fore
SplineSet
24 356 m 0xfc80
 24 471 70 556 129 616 c 0
 186 674 269 721 383 721 c 0
 496 721 579 673 637 616 c 0
 680 573 710 520 728 455 c 0
 736 424 742 391 742 356 c 0
 742 244 697 156 637 96 c 0
 579 38 493 -10 383 -10 c 0
 270 -10 186 38 129 96 c 0
 70 157 24 241 24 356 c 0xfc80
108 356 m 0
 108 226 182 138 276 97 c 0
 309 82 344 76 383 76 c 0
 470 76 533 111 577 156 c 0
 623 203 656 267 656 356 c 0
 656 474 597 553 520 598 c 0
 484 619 438 635 383 635 c 0
 298 635 234 599 189 555 c 0
 143 510 108 442 108 356 c 0
226 142 m 1
 226 582 l 1
 376 582 l 2
 470 582 548 541 548 441 c 0
 548 401 526 374 502 356 c 1
 533 332 546 297 546 251 c 2
 546 224 l 2xfe80
 546 201 544 175 554 165 c 1
 554 142 l 1
 457 142 l 1xfd80
 450 161 446 186 446 210 c 2
 446 251 l 2xfe80
 446 293 434 306 390 306 c 2
 324 306 l 1
 324 142 l 1
 226 142 l 1
324 396 m 1
 379 396 l 2
 419 396 448 412 448 441 c 0
 448 485 429 492 376 492 c 2
 324 492 l 1
 324 396 l 1
EndSplineSet
EndChar

StartChar: macron
Encoding: 175 175 114
AltUni2: 0002c9.ffffffff.0
Width: 477
Flags: W
HStem: 580 131<25 432>
LayerCount: 2
Fore
SplineSet
25 580 m 1
 25 711 l 1
 432 711 l 1
 432 580 l 1
 25 580 l 1
EndSplineSet
EndChar

StartChar: degree
Encoding: 176 176 115
Width: 345
Flags: W
HStem: 453 97<127.263 215.776> 623 98<126.921 214.938>
VStem: 27 96<556.156 616.709> 219 96<556.198 617.782>
LayerCount: 2
Fore
SplineSet
27 586 m 0
 27 648 67 689 115 709 c 0
 133 717 151 721 171 721 c 0
 237 721 285 681 304 638 c 0
 312 622 315 605 315 587 c 0
 315 526 275 484 227 465 c 1
 210 457 191 453 171 453 c 0
 104 453 59 492 38 534 c 0
 30 550 27 567 27 586 c 0
123 586 m 0
 123 565 146 550 171 550 c 0
 200 550 219 564 219 586 c 0
 219 608 200 623 171 623 c 0
 143 623 123 607 123 586 c 0
EndSplineSet
EndChar

StartChar: plusminus
Encoding: 177 177 116
Width: 526
Flags: W
HStem: 0 141<39 485> 330 142<27 191 339 499>
VStem: 191 148<152 330 472 640>
LayerCount: 2
Fore
SplineSet
27 330 m 1
 27 472 l 1
 191 472 l 1
 191 640 l 1
 339 640 l 1
 339 472 l 1
 499 472 l 1
 499 330 l 1
 339 330 l 1
 339 152 l 1
 191 152 l 1
 191 330 l 1
 27 330 l 1
39 0 m 1
 39 141 l 1
 485 141 l 1
 485 0 l 1
 39 0 l 1
EndSplineSet
EndChar

StartChar: twosuperior
Encoding: 178 178 117
Width: 392
Flags: W
HStem: 326 105<214 362> 611 105<153.985 224.999>
VStem: 226 124<550.342 608.823>
LayerCount: 2
Fore
SplineSet
26 558 m 1
 26 570 l 2
 26 639 69 686 121 705 c 0
 142 713 163 716 187 716 c 0
 278 716 350 680 350 596 c 0
 350 543 317 513 287 489 c 1
 274 477 258 465 240 451 c 2
 214 431 l 1
 362 431 l 1
 362 326 l 1
 34 326 l 1
 34 411 l 1
 179 526 l 2
 196 540 208 553 215 563 c 0
 222 574 226 582 226 586 c 0
 226 603 216 611 192 611 c 0
 166 611 150 595 150 570 c 2
 150 558 l 1
 26 558 l 1
EndSplineSet
EndChar

StartChar: threesuperior
Encoding: 179 179 118
Width: 394
Flags: W
HStem: 320 105<154.302 236.918> 488 92<136 233.988> 610 106<158.304 232.457>
VStem: 26 126<431.384 465 581 606.179> 234 124<581.64 649.117> 240 126<428.58 485.543>
LayerCount: 2
Fore
SplineSet
26 452 m 2xf4
 26 465 l 1
 152 465 l 1
 152 452 l 2
 152 436 170 425 198 425 c 0
 227 425 240 437 240 456 c 0xf4
 240 482 227 488 191 488 c 2
 136 488 l 1
 136 580 l 1
 191 580 l 2
 221 580 234 586 234 597 c 0
 234 606 221 610 195 610 c 0
 171 610 158 602 158 594 c 2
 158 581 l 1
 32 581 l 1
 32 594 l 2
 32 661 84 695 133 709 c 0
 151 714 171 716 192 716 c 0
 276 716 358 689 358 608 c 0xf8
 358 574 337 551 312 537 c 1
 345 520 366 491 366 446 c 0
 366 354 275 320 192 320 c 0
 105 320 26 360 26 452 c 2xf4
EndSplineSet
EndChar

StartChar: acute
Encoding: 180 180 119
Width: 356
Flags: W
HStem: 574 176<141 172>
VStem: 28 301
LayerCount: 2
Fore
SplineSet
28 574 m 1
 141 750 l 1
 329 750 l 1
 172 574 l 1
 28 574 l 1
EndSplineSet
EndChar

StartChar: mu
Encoding: 181 181 120
Width: 568
Flags: W
HStem: -203 21G<36 202> -10 139<220.576 350.727> 0 21G<375 532> 508 20G<36 202 366 532>
VStem: 36 166<-203 4 147.229 528> 366 166<146.153 528>
LayerCount: 2
Fore
SplineSet
36 -203 m 1xdc
 36 528 l 1
 202 528 l 1
 202 232 l 2
 202 163 217 129 278 129 c 0xdc
 325 129 351 144 366 169 c 1
 366 528 l 1
 532 528 l 1
 532 0 l 1
 377 0 l 1xbc
 375 20 l 1
 348 1 316 -10 275 -10 c 0
 248 -10 223 -5 202 4 c 1
 202 -203 l 1
 36 -203 l 1xdc
EndSplineSet
EndChar

StartChar: paragraph
Encoding: 182 182 121
Width: 607
Flags: W
HStem: 0 21G<304 436 438 570> 691 20G<256 436 438 570>
VStem: 24 412<369.915 583.004> 304 132<0 245> 438 132<0 711>
LayerCount: 2
Fore
SplineSet
24 478 m 0xe8
 24 590 82 661 168 694 c 0
 200 706 236 711 276 711 c 2
 436 711 l 1
 436 0 l 1
 304 0 l 1
 304 245 l 1xd8
 276 245 l 2
 156 245 72 298 39 386 c 0
 28 415 24 445 24 478 c 0xe8
438 0 m 1
 438 711 l 1
 570 711 l 1
 570 0 l 1
 438 0 l 1
EndSplineSet
EndChar

StartChar: periodcentered
Encoding: 183 183 122
Width: 249
Flags: W
HStem: 265 176<62.0659 186.331>
VStem: 32 184<294.604 410.625>
LayerCount: 2
Fore
SplineSet
32 352 m 0
 32 405 71 441 124 441 c 0
 177 441 216 406 216 352 c 0
 216 299 176 265 124 265 c 0
 73 265 32 298 32 352 c 0
EndSplineSet
EndChar

StartChar: cedilla
Encoding: 184 184 123
Width: 275
Flags: W
HStem: -226 107<51 100.144>
VStem: 30 215
LayerCount: 2
Fore
SplineSet
30 -74 m 1
 50 3 l 1
 180 3 l 1
 174 -24 l 1
 216 -33 245 -63 245 -109 c 0
 245 -172 194 -205 140 -218 c 0
 117 -224 92 -226 63 -226 c 2
 51 -226 l 1
 46 -119 l 1
 59 -119 l 2
 88 -119 101 -112 101 -96 c 0
 101 -80 85 -78 44 -75 c 2
 30 -74 l 1
EndSplineSet
EndChar

StartChar: onesuperior
Encoding: 185 185 124
Width: 277
Flags: W
HStem: 690 20G<152.576 241>
VStem: 117 124<326 575>
LayerCount: 2
Fore
SplineSet
25 556 m 1
 25 651 l 1
 218 710 l 1
 241 710 l 1
 241 326 l 1
 117 326 l 1
 117 575 l 1
 25 556 l 1
EndSplineSet
EndChar

StartChar: ordmasculine
Encoding: 186 186 125
Width: 416
Flags: W
HStem: 337 96<156.68 258.789> 623 98<151.045 261.456>
VStem: 26 110<451.247 608> 278 110<452.702 606.962>
LayerCount: 2
Fore
SplineSet
26 522 m 2
 26 555 l 2
 26 632 67 684 131 707 c 1
 154 717 180 721 207 721 c 0
 295 721 352 679 376 621 c 0
 385 601 388 578 388 555 c 2
 388 522 l 2
 388 436 347 377 283 351 c 0
 260 342 236 337 208 337 c 0
 119 337 63 383 38 448 c 0
 29 471 26 496 26 522 c 2
136 522 m 2
 136 466 158 433 208 433 c 0
 256 433 278 468 278 522 c 2
 278 552 l 2
 278 595 255 623 207 623 c 0
 158 623 136 596 136 552 c 2
 136 522 l 2
EndSplineSet
EndChar

StartChar: guillemotright
Encoding: 187 187 126
Width: 510
Flags: W
LayerCount: 2
Fore
SplineSet
28 61 m 1
 152 255 l 1
 28 451 l 1
 147 451 l 1
 290 264 l 1
 290 247 l 1
 147 61 l 1
 28 61 l 1
220 61 m 1
 344 255 l 1
 220 451 l 1
 339 451 l 1
 482 264 l 1
 482 247 l 1
 339 61 l 1
 220 61 l 1
EndSplineSet
EndChar

StartChar: onequarter
Encoding: 188 188 127
Width: 702
Flags: W
HStem: 0 21G<509 635> 78 106<635 679> 78 93<469 509>
VStem: 115 124<299 564> 509 126<0 78 184 223 401 410>
LayerCount: 2
Fore
SplineSet
23 544 m 1x98
 23 646 l 1
 216 708 l 1
 239 708 l 1
 239 299 l 1
 115 299 l 1
 115 564 l 1
 23 544 l 1x98
123 89 m 1
 484 667 l 1
 575 618 l 1
 213 40 l 1
 123 89 l 1
335 160 m 1
 509 401 l 1
 509 410 l 1
 635 410 l 1
 635 184 l 1
 679 184 l 1
 679 78 l 1
 635 78 l 1xd8
 635 0 l 1
 509 0 l 1
 509 78 l 1
 343 78 l 1xb8
 335 160 l 1
469 171 m 1xb8
 509 172 l 1
 509 223 l 1
 495 205 482 188 469 171 c 1xb8
EndSplineSet
EndChar

StartChar: onehalf
Encoding: 189 189 128
Width: 751
Flags: W
HStem: 0 102<580 727> 298 106<520.599 590.368> 691 20G<153.742 239>
VStem: 115 124<302 567> 591 126<230.846 295.69>
LayerCount: 2
Fore
SplineSet
23 547 m 1
 23 649 l 1
 216 711 l 1
 239 711 l 1
 239 302 l 1
 115 302 l 1
 115 567 l 1
 23 547 l 1
111 89 m 1
 472 667 l 1
 563 618 l 1
 201 40 l 1
 111 89 l 1
391 244 m 1
 391 257 l 2
 391 327 435 372 487 392 c 0
 508 400 528 404 553 404 c 0
 644 404 717 364 717 274 c 0
 717 218 683 183 653 158 c 0
 640 146 624 134 606 121 c 2
 580 102 l 1
 727 102 l 1
 727 0 l 1
 401 0 l 1
 401 82 l 1
 545 206 l 2
 562 221 574 234 581 246 c 0
 589 259 591 268 591 270 c 0
 591 289 582 298 558 298 c 0
 531 298 517 282 517 257 c 2
 517 244 l 1
 391 244 l 1
EndSplineSet
EndChar

StartChar: threequarters
Encoding: 190 190 129
Width: 785
Flags: W
HStem: 0 21G<592 718> 78 106<718 762> 78 93<552 592> 308 106<150.785 238.379> 476 92<134 231.924> 611 106<156.256 230.99>
VStem: 240 124<417.341 473.422> 592 126<0 78 184 223 401 410>
LayerCount: 2
Fore
SplineSet
24 441 m 2x9f
 24 454 l 1
 150 454 l 1
 150 441 l 2
 150 425 169 414 197 414 c 0
 226 414 240 425 240 444 c 0
 240 470 226 476 190 476 c 2
 134 476 l 1
 134 568 l 1
 190 568 l 2
 219 568 232 576 232 591 c 0
 232 604 220 611 194 611 c 0
 170 611 156 602 156 594 c 2
 156 582 l 1
 32 582 l 1
 32 594 l 2
 32 662 82 694 131 709 c 0
 150 714 170 717 191 717 c 0
 275 717 358 686 358 597 c 0
 358 559 336 534 311 519 c 1
 344 503 364 474 364 430 c 0
 364 341 274 308 191 308 c 0
 122 308 68 332 40 379 c 0
 30 396 24 417 24 441 c 2x9f
208 89 m 1
 569 667 l 1
 660 618 l 1
 298 40 l 1
 208 89 l 1
418 160 m 1
 592 401 l 1
 592 410 l 1
 718 410 l 1
 718 184 l 1
 762 184 l 1
 762 78 l 1
 718 78 l 1xdf
 718 0 l 1
 592 0 l 1
 592 78 l 1
 426 78 l 1xbf
 418 160 l 1
552 171 m 1xbf
 592 172 l 1
 592 223 l 1
 578 205 565 188 552 171 c 1xbf
EndSplineSet
EndChar

StartChar: questiondown
Encoding: 191 191 130
Width: 515
Flags: W
HStem: -200 140<201.122 306.774> 364 174<203.875 329.728>
VStem: 25 166<-47.7302 66.2483> 175 184<391.482 509.784> 191 150<230.427 326>
LayerCount: 2
Fore
SplineSet
25 3 m 0xe0
 25 53 42 89 64 119 c 0
 89 154 121 182 151 210 c 1
 179 234 191 260 191 314 c 2
 191 326 l 1
 341 326 l 1
 341 314 l 2xc8
 341 221 315 166 265 121 c 1
 237 94 209 71 196 36 c 0
 193 26 191 16 191 4 c 0
 191 -40 211 -60 253 -60 c 0
 299 -60 323 -36 323 11 c 2
 323 24 l 1
 491 24 l 1
 491 11 l 2
 491 -129 392 -200 256 -200 c 0
 120 -200 25 -136 25 3 c 0xe0
175 450 m 0xd0
 175 504 213 538 267 538 c 0
 320 538 359 504 359 450 c 0
 359 397 320 364 267 364 c 0
 214 364 175 397 175 450 c 0xd0
EndSplineSet
EndChar

StartChar: Agrave
Encoding: 192 192 131
Width: 744
Flags: W
HStem: 0 21G<20 209.712 533.288 723> 146 132<300 443> 691 20G<286.293 455.736> 725 21G<303.159 466>
LayerCount: 2
Fore
SplineSet
20 0 m 1
 294 711 l 1
 448 711 l 1
 723 0 l 1
 540 0 l 1
 491 146 l 1
 252 146 l 1
 203 0 l 1
 20 0 l 1
164 901 m 1
 353 901 l 1
 466 725 l 1
 321 725 l 1
 164 901 l 1
300 278 m 1
 443 278 l 1
 371 491 l 1
 300 278 l 1
EndSplineSet
Substitution2: "<3,3> Small Caps in Latin lookup 0 subtable" Agrave.smcp
EndChar

StartChar: Aacute
Encoding: 193 193 132
Width: 744
Flags: W
HStem: 0 21G<20 209.712 533.288 723> 146 132<300 443> 691 20G<286.293 455.736> 725 21G<282 443.841>
LayerCount: 2
Fore
SplineSet
20 0 m 1
 294 711 l 1
 448 711 l 1
 723 0 l 1
 540 0 l 1
 491 146 l 1
 252 146 l 1
 203 0 l 1
 20 0 l 1
282 725 m 1
 395 901 l 1
 583 901 l 1
 426 725 l 1
 282 725 l 1
300 278 m 1
 443 278 l 1
 371 491 l 1
 300 278 l 1
EndSplineSet
Substitution2: "<3,3> Small Caps in Latin lookup 0 subtable" Aacute.smcp
EndChar

StartChar: Acircumflex
Encoding: 194 194 133
Width: 744
Flags: W
HStem: 0 21G<20 209.712 533.288 723> 146 132<300 443> 691 20G<286.293 455.736> 733 21G<174 323.515 421.788 572>
LayerCount: 2
Fore
SplineSet
20 0 m 1
 294 711 l 1
 448 711 l 1
 723 0 l 1
 540 0 l 1
 491 146 l 1
 252 146 l 1
 203 0 l 1
 20 0 l 1
174 733 m 1
 174 759 l 1
 327 901 l 1
 419 901 l 1
 572 757 l 1
 572 733 l 1
 443 733 l 1
 373 799 l 1
 302 733 l 1
 174 733 l 1
300 278 m 1
 443 278 l 1
 371 491 l 1
 300 278 l 1
EndSplineSet
Substitution2: "<3,3> Small Caps in Latin lookup 0 subtable" Acircumflex.smcp
EndChar

StartChar: Atilde
Encoding: 195 195 134
Width: 744
Flags: W
HStem: 0 21G<20 209.712 533.288 723> 146 132<300 443> 691 20G<286.293 455.736> 739 114<370.617 460.288> 781 114<285.443 372.269>
VStem: 462 108<854.009 893>
LayerCount: 2
Fore
SplineSet
20 0 m 1xe4
 294 711 l 1
 448 711 l 1
 723 0 l 1
 540 0 l 1
 491 146 l 1
 252 146 l 1
 203 0 l 1
 20 0 l 1xe4
176 740 m 1
 176 752 l 2
 176 813 206 861 249 883 c 0
 265 891 282 895 299 895 c 0xec
 362 895 387 853 433 853 c 0
 451 853 462 866 462 888 c 2
 462 901 l 1
 570 893 l 1
 570 882 l 2
 570 820 538 772 496 750 c 0
 481 742 464 739 446 739 c 0xf4
 397 739 369 763 341 776 c 0
 332 780 324 781 312 781 c 0xec
 294 781 284 768 284 746 c 2
 284 733 l 1
 176 740 l 1
300 278 m 1
 443 278 l 1
 371 491 l 1
 300 278 l 1
EndSplineSet
Substitution2: "<3,3> Small Caps in Latin lookup 0 subtable" Atilde.smcp
EndChar

StartChar: Adieresis
Encoding: 196 196 135
Width: 744
Flags: W
HStem: 0 21G<20 209.712 533.288 723> 146 132<300 443> 691 20G<286.293 455.736> 731 149<194.996 309.957 432.996 548.32>
VStem: 172 160<753.755 857.395> 410 160<753.301 857.395>
LayerCount: 2
Fore
SplineSet
20 0 m 1
 294 711 l 1
 448 711 l 1
 723 0 l 1
 540 0 l 1
 491 146 l 1
 252 146 l 1
 203 0 l 1
 20 0 l 1
172 806 m 0
 172 852 210 880 253 880 c 0
 297 880 332 851 332 806 c 0
 332 760 296 731 253 731 c 0
 209 731 172 759 172 806 c 0
300 278 m 1
 443 278 l 1
 371 491 l 1
 300 278 l 1
410 806 m 0
 410 852 448 880 491 880 c 0
 535 880 570 851 570 806 c 0
 570 761 535 730 491 730 c 0
 446 730 410 760 410 806 c 0
EndSplineSet
Substitution2: "<3,3> Small Caps in Latin lookup 0 subtable" Adieresis.smcp
EndChar

StartChar: Aring
Encoding: 197 197 136
Width: 744
Flags: W
HStem: 0 21G<20 209.712 533.288 723> 146 132<300 443> 691 20G<286.293 455.736> 722 71<336.781 409.432> 873 72<336.242 409.314>
VStem: 252 80<797.536 868.937> 414 80<797.982 868.502>
LayerCount: 2
Fore
SplineSet
20 0 m 1
 294 711 l 1
 448 711 l 1
 723 0 l 1
 540 0 l 1
 491 146 l 1
 252 146 l 1
 203 0 l 1
 20 0 l 1
252 832 m 0
 252 886 287 921 325 936 c 0
 340 942 356 945 373 945 c 0
 439 945 494 901 494 832 c 0
 494 763 439 722 373 722 c 0
 319 722 280 750 262 788 c 0
 255 801 252 816 252 832 c 0
300 278 m 1
 443 278 l 1
 371 491 l 1
 300 278 l 1
332 832 m 0
 332 810 350 793 373 793 c 0
 397 793 414 809 414 832 c 0
 414 857 398 873 373 873 c 0
 348 873 332 857 332 832 c 0
EndSplineSet
Substitution2: "<3,3> Small Caps in Latin lookup 0 subtable" Aring.smcp
EndChar

StartChar: AE
Encoding: 198 198 137
Width: 991
Flags: W
HStem: 0 134<660 963> 163 133<368 487> 294 134<653 893> 571 140<641 933>
LayerCount: 2
Fore
SplineSet
19 0 m 1xd0
 417 711 l 1
 933 711 l 1
 933 571 l 1
 641 571 l 1
 647 428 l 1
 893 428 l 1
 893 294 l 1
 653 294 l 1xb0
 660 134 l 1
 963 134 l 1
 963 0 l 1
 500 0 l 1
 493 163 l 1
 295 163 l 1
 214 0 l 1
 19 0 l 1xd0
368 296 m 1xd0
 487 296 l 1
 478 513 l 1
 368 296 l 1xd0
EndSplineSet
EndChar

StartChar: Ccedilla
Encoding: 199 199 138
Width: 665
Flags: W
HStem: -226 107<273 322.5> 576 145<257.449 419.466>
VStem: 28 172<201.128 504.443>
LayerCount: 2
Fore
SplineSet
28 333 m 2
 28 377 l 2
 28 533 93 648 209 697 c 0
 247 713 289 721 335 721 c 0
 514 721 615 620 633 459 c 1
 635 445 l 1
 462 445 l 1
 462 457 l 1
 457 538 421 576 335 576 c 0
 231 576 200 499 200 378 c 2
 200 333 l 2
 200 218 225 135 333 135 c 0
 419 135 456 171 461 250 c 1
 461 262 l 1
 633 262 l 1
 632 249 l 2
 623 125 554 45 454 9 c 0
 438 3 420 -1 403 -4 c 1
 442 -16 468 -48 468 -96 c 0
 468 -167 415 -203 361 -218 c 0
 338 -224 313 -226 285 -226 c 2
 273 -226 l 1
 268 -119 l 1
 281 -119 l 2
 310 -119 324 -112 324 -92 c 0
 324 -72 307 -69 266 -66 c 2
 252 -65 l 1
 265 -4 l 1
 148 18 80 95 48 192 c 0
 34 234 28 281 28 333 c 2
EndSplineSet
Substitution2: "<3,3> Small Caps in Latin lookup 0 subtable" Ccedilla.smcp
EndChar

StartChar: Egrave
Encoding: 200 200 139
Width: 568
Flags: W
HStem: 0 143<207 537> 296 140<207 489> 567 144<207 537> 727 21G<225.159 388>
VStem: 35 172<143 296 436 567>
LayerCount: 2
Fore
SplineSet
35 0 m 1
 35 711 l 1
 537 711 l 1
 537 567 l 1
 207 567 l 1
 207 436 l 1
 489 436 l 1
 489 296 l 1
 207 296 l 1
 207 143 l 1
 537 143 l 1
 537 0 l 1
 35 0 l 1
86 903 m 1
 275 903 l 1
 388 727 l 1
 243 727 l 1
 86 903 l 1
EndSplineSet
Substitution2: "<3,3> Small Caps in Latin lookup 0 subtable" Egrave.smcp
EndChar

StartChar: Eacute
Encoding: 201 201 140
Width: 568
Flags: W
HStem: 0 143<207 537> 296 140<207 489> 567 144<207 537> 727 21G<204 365.841>
VStem: 35 172<143 296 436 567>
LayerCount: 2
Fore
SplineSet
35 0 m 1
 35 711 l 1
 537 711 l 1
 537 567 l 1
 207 567 l 1
 207 436 l 1
 489 436 l 1
 489 296 l 1
 207 296 l 1
 207 143 l 1
 537 143 l 1
 537 0 l 1
 35 0 l 1
204 727 m 1
 317 903 l 1
 505 903 l 1
 348 727 l 1
 204 727 l 1
EndSplineSet
Substitution2: "<3,3> Small Caps in Latin lookup 0 subtable" Eacute.smcp
EndChar

StartChar: Ecircumflex
Encoding: 202 202 141
Width: 568
Flags: W
HStem: 0 143<207 537> 296 140<207 489> 567 144<207 537> 735 21G<97 245.515 343.788 495>
VStem: 35 172<143 296 436 567>
LayerCount: 2
Fore
SplineSet
35 0 m 1
 35 711 l 1
 537 711 l 1
 537 567 l 1
 207 567 l 1
 207 436 l 1
 489 436 l 1
 489 296 l 1
 207 296 l 1
 207 143 l 1
 537 143 l 1
 537 0 l 1
 35 0 l 1
97 735 m 1
 97 761 l 1
 249 903 l 1
 341 903 l 1
 495 759 l 1
 495 735 l 1
 365 735 l 1
 295 801 l 1
 224 735 l 1
 97 735 l 1
EndSplineSet
Substitution2: "<3,3> Small Caps in Latin lookup 0 subtable" Ecircumflex.smcp
EndChar

StartChar: Edieresis
Encoding: 203 203 142
Width: 568
Flags: W
HStem: 0 143<207 537> 296 140<207 489> 567 144<207 537> 733 149<117.996 232.957 355.996 471.32>
VStem: 35 172<143 296 436 567> 95 160<755.755 859.395> 333 160<755.301 859.395>
LayerCount: 2
Fore
SplineSet
35 0 m 1xfa
 35 711 l 1
 537 711 l 1
 537 567 l 1
 207 567 l 1
 207 436 l 1
 489 436 l 1
 489 296 l 1
 207 296 l 1
 207 143 l 1
 537 143 l 1
 537 0 l 1
 35 0 l 1xfa
95 808 m 0xf6
 95 854 133 882 176 882 c 0
 220 882 255 853 255 808 c 0
 255 762 219 733 176 733 c 0
 132 733 95 761 95 808 c 0xf6
333 808 m 0
 333 854 371 882 414 882 c 0
 458 882 493 853 493 808 c 0
 493 763 458 732 414 732 c 0
 369 732 333 762 333 808 c 0
EndSplineSet
Substitution2: "<3,3> Small Caps in Latin lookup 0 subtable" Edieresis.smcp
EndChar

StartChar: Igrave
Encoding: 204 204 143
Width: 353
Flags: W
HStem: 0 21G<142 312> 691 20G<142 312> 727 21G<157.159 320>
VStem: 142 170<0 711>
LayerCount: 2
Fore
SplineSet
18 903 m 1
 207 903 l 1
 320 727 l 1
 175 727 l 1
 18 903 l 1
142 0 m 1
 142 711 l 1
 312 711 l 1
 312 0 l 1
 142 0 l 1
EndSplineSet
Substitution2: "<3,3> Small Caps in Latin lookup 0 subtable" Igrave.smcp
EndChar

StartChar: Iacute
Encoding: 205 205 144
Width: 352
Flags: W
HStem: 0 21G<37 209> 691 20G<37 209> 727 21G<31 192.841>
VStem: 37 172<0 711>
LayerCount: 2
Fore
SplineSet
31 727 m 1
 144 903 l 1
 332 903 l 1
 175 727 l 1
 31 727 l 1
37 0 m 1
 37 711 l 1
 209 711 l 1
 209 0 l 1
 37 0 l 1
EndSplineSet
Substitution2: "<3,3> Small Caps in Latin lookup 0 subtable" Iacute.smcp
EndChar

StartChar: Icircumflex
Encoding: 206 206 145
Width: 436
Flags: W
HStem: 0 21G<130 302> 691 20G<130 302> 735 21G<18 166.515 264.788 416>
VStem: 130 172<0 711>
LayerCount: 2
Fore
SplineSet
18 735 m 1
 18 761 l 1
 170 903 l 1
 262 903 l 1
 416 759 l 1
 416 735 l 1
 286 735 l 1
 216 801 l 1
 145 735 l 1
 18 735 l 1
130 0 m 1
 130 711 l 1
 302 711 l 1
 302 0 l 1
 130 0 l 1
EndSplineSet
Substitution2: "<3,3> Small Caps in Latin lookup 0 subtable" Icircumflex.smcp
EndChar

StartChar: Idieresis
Encoding: 207 207 146
Width: 436
Flags: W
HStem: 0 21G<132 302> 691 20G<132 302> 733 149<40.5198 155.48 278.52 393.843>
VStem: 18 160<755.755 859.395> 132 170<0 711> 256 160<755.698 859.395>
LayerCount: 2
Fore
SplineSet
18 808 m 0xf0
 18 854 55 882 98 882 c 0
 142 882 178 853 178 808 c 0
 178 762 141 733 98 733 c 0
 54 733 18 761 18 808 c 0xf0
132 0 m 1xe8
 132 711 l 1
 302 711 l 1
 302 0 l 1
 132 0 l 1xe8
256 808 m 0xe4
 256 854 293 882 336 882 c 0
 380 882 416 853 416 808 c 0
 416 763 380 732 336 732 c 0
 291 732 256 762 256 808 c 0xe4
EndSplineSet
Substitution2: "<3,3> Small Caps in Latin lookup 0 subtable" Idieresis.smcp
EndChar

StartChar: Eth
Encoding: 208 208 147
Width: 701
Flags: W
HStem: 0 143<270 417.062> 300 116<26 98 270 392> 567 144<270 415.471>
VStem: 98 172<143 300 416 567> 494 174<230.156 486.189>
LayerCount: 2
Fore
SplineSet
26 300 m 1
 26 416 l 1
 98 416 l 1
 98 711 l 1
 330 711 l 2
 493 711 597 625 643 509 c 0
 660 467 668 421 668 370 c 2
 668 340 l 2
 668 181 586 71 466 24 c 0
 424 8 378 0 328 0 c 2
 98 0 l 1
 98 300 l 1
 26 300 l 1
270 143 m 1
 328 143 l 2
 444 143 494 219 494 340 c 2
 494 371 l 2
 494 492 446 567 330 567 c 2
 270 567 l 1
 270 416 l 1
 392 416 l 1
 392 300 l 1
 270 300 l 1
 270 143 l 1
EndSplineSet
Substitution2: "<3,3> Small Caps in Latin lookup 0 subtable" Eth.smcp
EndChar

StartChar: Ntilde
Encoding: 209 209 148
Width: 679
Flags: W
HStem: 0 21G<35 207 460.798 639> 691 20G<35 214.22 469 639> 739 114<336.617 427.134> 781 114<250.608 338.269>
VStem: 35 172<0 436> 429 106<854.132 893> 469 170<274 711>
LayerCount: 2
Fore
SplineSet
35 0 m 1xca
 35 711 l 1
 202 711 l 1
 469 274 l 1
 469 711 l 1
 639 711 l 1
 639 0 l 1
 473 0 l 1
 207 436 l 1
 207 0 l 1
 35 0 l 1xca
143 740 m 1
 143 752 l 2
 143 813 172 861 215 883 c 0
 231 891 248 895 265 895 c 0xdc
 328 895 353 853 399 853 c 0
 417 853 429 866 429 888 c 2
 429 901 l 1
 535 893 l 1
 535 882 l 2
 535 820 504 772 462 750 c 0
 447 742 430 739 412 739 c 0xec
 363 739 335 763 307 776 c 0
 298 780 290 781 278 781 c 0xdc
 260 781 249 768 249 746 c 2
 249 733 l 1
 143 740 l 1
EndSplineSet
Substitution2: "<3,3> Small Caps in Latin lookup 0 subtable" Ntilde.smcp
EndChar

StartChar: Ograve
Encoding: 210 210 149
Width: 691
Flags: W
HStem: -10 145<271.893 418.686> 575 146<267.699 418.649> 725 21G<273.159 436>
VStem: 28 172<218.881 494.334> 484 174<215.23 495.348>
LayerCount: 2
Fore
SplineSet
28 340 m 2
 28 370 l 2
 28 531 97 645 215 696 c 0
 254 712 296 721 343 721 c 0
 445 721 520 681 570 626 c 0
 624 566 658 479 658 370 c 2
 658 340 l 2
 658 178 589 65 471 14 c 0
 432 -2 391 -10 344 -10 c 0
 243 -10 166 30 116 85 c 0
 62 144 28 232 28 340 c 2
134 901 m 1
 323 901 l 1
 436 725 l 1
 291 725 l 1
 134 901 l 1
200 340 m 2
 200 247 226 177 284 148 c 0
 301 140 321 135 344 135 c 0
 447 135 484 222 484 340 c 2
 484 371 l 2
 484 489 447 575 343 575 c 0
 240 575 200 489 200 371 c 2
 200 340 l 2
EndSplineSet
Substitution2: "<3,3> Small Caps in Latin lookup 0 subtable" Ograve.smcp
EndChar

StartChar: Oacute
Encoding: 211 211 150
Width: 691
Flags: W
HStem: -10 145<271.893 418.686> 575 146<267.699 418.649> 725 21G<252 413.841>
VStem: 28 172<218.881 494.334> 484 174<215.23 495.348>
LayerCount: 2
Fore
SplineSet
28 340 m 2
 28 370 l 2
 28 531 97 645 215 696 c 0
 254 712 296 721 343 721 c 0
 445 721 520 681 570 626 c 0
 624 566 658 479 658 370 c 2
 658 340 l 2
 658 178 589 65 471 14 c 0
 432 -2 391 -10 344 -10 c 0
 243 -10 166 30 116 85 c 0
 62 144 28 232 28 340 c 2
200 340 m 2
 200 247 226 177 284 148 c 0
 301 140 321 135 344 135 c 0
 447 135 484 222 484 340 c 2
 484 371 l 2
 484 489 447 575 343 575 c 0
 240 575 200 489 200 371 c 2
 200 340 l 2
252 725 m 1
 365 901 l 1
 553 901 l 1
 396 725 l 1
 252 725 l 1
EndSplineSet
Substitution2: "<3,3> Small Caps in Latin lookup 0 subtable" Oacute.smcp
EndChar

StartChar: Ocircumflex
Encoding: 212 212 151
Width: 691
Flags: W
HStem: -10 145<271.893 418.686> 575 146<267.699 418.649> 733 21G<144 293.515 391.788 542>
VStem: 28 172<218.881 494.334> 484 174<215.23 495.348>
LayerCount: 2
Fore
SplineSet
28 340 m 2
 28 370 l 2
 28 531 97 645 215 696 c 0
 254 712 296 721 343 721 c 0
 445 721 520 681 570 626 c 0
 624 566 658 479 658 370 c 2
 658 340 l 2
 658 178 589 65 471 14 c 0
 432 -2 391 -10 344 -10 c 0
 243 -10 166 30 116 85 c 0
 62 144 28 232 28 340 c 2
144 733 m 1
 144 759 l 1
 297 901 l 1
 389 901 l 1
 542 757 l 1
 542 733 l 1
 413 733 l 1
 343 799 l 1
 272 733 l 1
 144 733 l 1
200 340 m 2
 200 247 226 177 284 148 c 0
 301 140 321 135 344 135 c 0
 447 135 484 222 484 340 c 2
 484 371 l 2
 484 489 447 575 343 575 c 0
 240 575 200 489 200 371 c 2
 200 340 l 2
EndSplineSet
Substitution2: "<3,3> Small Caps in Latin lookup 0 subtable" Ocircumflex.smcp
EndChar

StartChar: Otilde
Encoding: 213 213 152
Width: 691
Flags: W
HStem: -10 145<271.893 418.686> 575 146<267.699 418.649> 739 114<339.347 430.288> 781 114<255.53 342.134>
VStem: 28 172<218.881 494.334> 432 108<854.009 893> 484 174<215.23 495.348>
LayerCount: 2
Fore
SplineSet
28 340 m 2xca
 28 370 l 2
 28 531 97 645 215 696 c 0
 254 712 296 721 343 721 c 0
 445 721 520 681 570 626 c 0
 624 566 658 479 658 370 c 2
 658 340 l 2
 658 178 589 65 471 14 c 0
 432 -2 391 -10 344 -10 c 0
 243 -10 166 30 116 85 c 0
 62 144 28 232 28 340 c 2xca
146 740 m 1
 146 752 l 2
 146 813 178 861 220 883 c 0
 236 891 252 895 269 895 c 0xdc
 301 895 324 882 343 873 c 0
 363 863 381 853 403 853 c 0
 421 853 432 866 432 888 c 2
 432 901 l 1
 540 893 l 1
 540 882 l 2
 540 820 508 772 466 750 c 0
 451 742 434 739 416 739 c 0xec
 367 739 339 763 311 776 c 0
 302 780 294 781 282 781 c 0xdc
 264 781 254 768 254 746 c 2
 254 733 l 1
 146 740 l 1
200 340 m 2
 200 247 226 177 284 148 c 0
 301 140 321 135 344 135 c 0
 447 135 484 222 484 340 c 2
 484 371 l 2xca
 484 489 447 575 343 575 c 0
 240 575 200 489 200 371 c 2
 200 340 l 2
EndSplineSet
Substitution2: "<3,3> Small Caps in Latin lookup 0 subtable" Otilde.smcp
EndChar

StartChar: Odieresis
Encoding: 214 214 153
Width: 691
Flags: W
HStem: -10 145<271.893 418.686> 575 146<267.699 418.649> 731 149<164.996 279.957 402.996 518.32>
VStem: 28 172<218.881 494.334> 142 160<753.755 857.395> 380 160<753.301 857.395> 484 174<215.23 495.348>
LayerCount: 2
Fore
SplineSet
28 340 m 2xf2
 28 370 l 2
 28 531 97 645 215 696 c 0
 254 712 296 721 343 721 c 0
 445 721 520 681 570 626 c 0
 624 566 658 479 658 370 c 2
 658 340 l 2
 658 178 589 65 471 14 c 0
 432 -2 391 -10 344 -10 c 0
 243 -10 166 30 116 85 c 0
 62 144 28 232 28 340 c 2xf2
142 806 m 0xe8
 142 852 180 880 223 880 c 0
 267 880 302 851 302 806 c 0
 302 760 266 731 223 731 c 0
 179 731 142 759 142 806 c 0xe8
200 340 m 2xf2
 200 247 226 177 284 148 c 0
 301 140 321 135 344 135 c 0
 447 135 484 222 484 340 c 2
 484 371 l 2
 484 489 447 575 343 575 c 0
 240 575 200 489 200 371 c 2
 200 340 l 2xf2
380 806 m 0xe4
 380 852 418 880 461 880 c 0
 505 880 540 851 540 806 c 0
 540 761 505 730 461 730 c 0
 416 730 380 760 380 806 c 0xe4
EndSplineSet
Substitution2: "<3,3> Small Caps in Latin lookup 0 subtable" Odieresis.smcp
EndChar

StartChar: multiply
Encoding: 215 215 154
Width: 546
Flags: W
LayerCount: 2
Fore
SplineSet
22 182 m 1
 172 335 l 1
 22 479 l 1
 123 579 l 1
 271 427 l 1
 420 579 l 1
 521 479 l 1
 371 335 l 1
 521 182 l 1
 420 91 l 1
 271 233 l 1
 123 91 l 1
 22 182 l 1
EndSplineSet
EndChar

StartChar: Oslash
Encoding: 216 216 155
Width: 691
Flags: W
HStem: -10 145<282.504 416.42> 575 146<269.794 415.464> 721 20G<514.214 646>
VStem: 28 174<219.194 490.897> 484 174<221.951 473.635>
LayerCount: 2
Fore
SplineSet
28 339 m 2xb8
 28 370 l 2
 28 530 99 645 216 696 c 0
 255 712 296 721 343 721 c 0xd8
 402 721 454 707 493 685 c 1
 526 741 l 1
 646 741 l 1
 573 623 l 1
 627 562 658 479 658 371 c 2
 658 340 l 2
 658 179 590 65 472 14 c 0
 433 -2 391 -10 344 -10 c 0
 294 -10 246 0 205 20 c 1
 166 -46 l 1
 45 -46 l 1
 121 78 l 1
 62 140 28 227 28 339 c 2xb8
202 326 m 2
 202 283 207 245 216 216 c 1
 416 553 l 1
 395 567 371 574 343 575 c 1
 240 575 202 484 202 360 c 2
 202 326 l 2
282 150 m 1
 300 140 320 135 344 135 c 0
 447 135 484 228 484 352 c 2
 484 384 l 2
 484 419 481 451 475 477 c 1
 282 150 l 1
EndSplineSet
EndChar

StartChar: Ugrave
Encoding: 217 217 156
Width: 641
Flags: W
HStem: -10 143<241.441 396.206> 691 20G<33 205 431 603> 725 21G<247.159 410>
VStem: 33 172<169.08 711> 431 172<169.011 711>
LayerCount: 2
Fore
SplineSet
33 246 m 2
 33 711 l 1
 205 711 l 1
 205 249 l 2
 205 170 241 133 318 133 c 0
 396 133 431 170 431 249 c 2
 431 711 l 1
 603 711 l 1
 603 246 l 2
 603 117 533 38 431 7 c 0
 397 -4 358 -10 318 -10 c 0
 186 -10 96 44 55 136 c 0
 41 168 33 205 33 246 c 2
108 901 m 1
 297 901 l 1
 410 725 l 1
 265 725 l 1
 108 901 l 1
EndSplineSet
Substitution2: "<3,3> Small Caps in Latin lookup 0 subtable" Ugrave.smcp
EndChar

StartChar: Uacute
Encoding: 218 218 157
Width: 641
Flags: W
HStem: -10 143<241.441 396.206> 691 20G<33 205 431 603> 725 21G<225 386.841>
VStem: 33 172<169.08 711> 431 172<169.011 711>
LayerCount: 2
Fore
SplineSet
33 246 m 2
 33 711 l 1
 205 711 l 1
 205 249 l 2
 205 170 241 133 318 133 c 0
 396 133 431 170 431 249 c 2
 431 711 l 1
 603 711 l 1
 603 246 l 2
 603 117 533 38 431 7 c 0
 397 -4 358 -10 318 -10 c 0
 186 -10 96 44 55 136 c 0
 41 168 33 205 33 246 c 2
225 725 m 1
 338 901 l 1
 526 901 l 1
 369 725 l 1
 225 725 l 1
EndSplineSet
Substitution2: "<3,3> Small Caps in Latin lookup 0 subtable" Uacute.smcp
EndChar

StartChar: Ucircumflex
Encoding: 219 219 158
Width: 641
Flags: W
HStem: -10 143<241.441 396.206> 691 20G<33 205 431 603> 733 21G<119 267.515 365.788 517>
VStem: 33 172<169.08 711> 431 172<169.011 711>
LayerCount: 2
Fore
SplineSet
33 246 m 2
 33 711 l 1
 205 711 l 1
 205 249 l 2
 205 170 241 133 318 133 c 0
 396 133 431 170 431 249 c 2
 431 711 l 1
 603 711 l 1
 603 246 l 2
 603 117 533 38 431 7 c 0
 397 -4 358 -10 318 -10 c 0
 186 -10 96 44 55 136 c 0
 41 168 33 205 33 246 c 2
119 733 m 1
 119 759 l 1
 271 901 l 1
 363 901 l 1
 517 757 l 1
 517 733 l 1
 387 733 l 1
 317 799 l 1
 246 733 l 1
 119 733 l 1
EndSplineSet
Substitution2: "<3,3> Small Caps in Latin lookup 0 subtable" Ucircumflex.smcp
EndChar

StartChar: Udieresis
Encoding: 220 220 159
Width: 641
Flags: W
HStem: -10 143<241.441 396.206> 691 20G<33 205 431 603> 731 149<139.52 254.48 377.52 492.843>
VStem: 33 172<169.08 711> 117 160<753.755 857.395> 355 160<753.698 857.395> 431 172<169.011 711>
LayerCount: 2
Fore
SplineSet
33 246 m 2xf2
 33 711 l 1
 205 711 l 1
 205 249 l 2
 205 170 241 133 318 133 c 0
 396 133 431 170 431 249 c 2
 431 711 l 1
 603 711 l 1
 603 246 l 2
 603 117 533 38 431 7 c 0
 397 -4 358 -10 318 -10 c 0
 186 -10 96 44 55 136 c 0
 41 168 33 205 33 246 c 2xf2
117 806 m 0xe8
 117 852 154 880 197 880 c 0
 241 880 277 851 277 806 c 0
 277 760 240 731 197 731 c 0
 153 731 117 759 117 806 c 0xe8
355 806 m 0xe4
 355 852 392 880 435 880 c 0
 479 880 515 851 515 806 c 0
 515 761 479 730 435 730 c 0
 390 730 355 760 355 806 c 0xe4
EndSplineSet
Substitution2: "<3,3> Small Caps in Latin lookup 0 subtable" Udieresis.smcp
EndChar

StartChar: Yacute
Encoding: 221 221 160
Width: 697
Flags: W
HStem: 0 21G<260 434> 691 20G<19 217.175 477.759 676> 725 21G<257 418.841>
VStem: 260 174<0 258>
LayerCount: 2
Fore
SplineSet
19 711 m 1
 208 711 l 1
 347 408 l 1
 487 711 l 1
 676 711 l 1
 434 258 l 1
 434 0 l 1
 260 0 l 1
 260 258 l 1
 19 711 l 1
257 725 m 1
 370 901 l 1
 558 901 l 1
 401 725 l 1
 257 725 l 1
EndSplineSet
Substitution2: "<3,3> Small Caps in Latin lookup 0 subtable" Yacute.smcp
EndChar

StartChar: Thorn
Encoding: 222 222 161
Width: 605
Flags: W
HStem: 0 21G<36 202> 128 138<202 376.01> 454 140<202 370.92> 691 20G<36 202>
VStem: 36 166<0 128 266 454 594 711> 408 166<298.137 422.035>
LayerCount: 2
Fore
SplineSet
36 0 m 1
 36 711 l 1
 202 711 l 1
 202 594 l 1
 299 594 l 2
 424 594 516 544 555 453 c 0
 568 424 574 393 574 360 c 0
 574 243 504 174 415 144 c 0
 380 132 342 128 299 128 c 2
 202 128 l 1
 202 0 l 1
 36 0 l 1
202 266 m 1
 299 266 l 2
 367 266 408 297 408 359 c 0
 408 421 366 454 299 454 c 2
 202 454 l 1
 202 266 l 1
EndSplineSet
EndChar

StartChar: germandbls
Encoding: 223 223 162
Width: 622
Flags: W
HStem: -10 139<263.313 416.592> 0 21G<35 201> 623 138<218.372 319.143>
VStem: 35 166<0 604.873> 279 166<361.317 464.439> 333 164<493.452 609.596> 427 166<141.079 223.021>
LayerCount: 2
Fore
SplineSet
35 0 m 1x74
 35 526 l 2
 35 680 127 761 279 761 c 0x78
 376 761 448 722 480 652 c 0
 492 627 497 598 497 568 c 0x74
 497 525 488 497 471 471 c 0
 457 450 445 431 445 400 c 0x78
 445 380 463 364 480 348 c 0
 514 316 556 284 580 235 c 0
 588 218 593 199 593 177 c 0
 593 47 494 -10 362 -10 c 0
 304 -10 250 1 212 25 c 1
 245 160 l 1
 259 153 l 2
 282 141 320 129 359 129 c 0
 402 129 427 147 427 180 c 0xb2
 427 204 411 219 393 234 c 0
 350 272 279 308 279 396 c 0xb8
 279 478 333 496 333 560 c 0
 333 599 309 623 269 623 c 0
 216 623 201 588 201 524 c 2
 201 0 l 1
 35 0 l 1x74
EndSplineSet
Substitution2: "<3,3> Small Caps in Latin lookup 0 subtable" germandbls.smcp
EndChar

StartChar: agrave
Encoding: 224 224 163
Width: 544
Flags: W
HStem: -10 133<197.429 310.436> 0 21G<354.5 519> 228 108<207.244 331> 409 129<212.851 320.152> 730 20G<64 265.841>
VStem: 25 166<130.92 208.979> 331 168<139.064 228 336 398.564>
LayerCount: 2
Fore
SplineSet
25 155 m 0xbe
 25 292 146 336 281 336 c 2
 331 336 l 1
 331 350 l 2
 331 389 312 409 266 409 c 0
 226 409 203 391 203 358 c 2
 203 345 l 1
 37 345 l 1
 37 358 l 2
 37 416 68 458 102 485 c 0
 144 518 203 538 274 538 c 0
 375 538 448 501 481 431 c 0
 493 407 499 379 499 348 c 2
 499 134 l 2
 499 88 504 54 518 25 c 1
 519 22 l 1
 519 0 l 1
 357 0 l 1x7e
 352 10 345 23 342 34 c 1
 312 7 271 -10 217 -10 c 0
 132 -10 69 32 40 89 c 0
 30 109 25 131 25 155 c 0xbe
64 750 m 1
 253 750 l 1
 366 574 l 1
 221 574 l 1
 64 750 l 1
191 166 m 0
 191 140 214 123 248 123 c 0xbe
 288 123 317 139 331 160 c 1
 331 228 l 1
 286 228 l 2
 227 228 191 210 191 166 c 0
EndSplineSet
Substitution2: "<3,3> Small Caps in Latin lookup 0 subtable" Agrave.smcp
EndChar

StartChar: aacute
Encoding: 225 225 164
Width: 545
Flags: W
HStem: -10 133<198.429 311.436> 0 21G<355.5 520> 228 108<208.244 332> 409 129<213.851 321.152> 730 20G<283.159 484>
VStem: 26 166<130.92 208.979> 332 168<139.064 228 336 398.564>
LayerCount: 2
Fore
SplineSet
26 155 m 0xbe
 26 292 147 336 282 336 c 2
 332 336 l 1
 332 350 l 2
 332 389 313 409 267 409 c 0
 227 409 204 391 204 358 c 2
 204 345 l 1
 38 345 l 1
 38 358 l 2
 38 416 69 458 103 485 c 0
 145 518 204 538 275 538 c 0
 376 538 449 501 482 431 c 0
 494 407 500 379 500 348 c 2
 500 134 l 2
 500 88 505 54 519 25 c 1
 520 22 l 1
 520 0 l 1
 358 0 l 1x7e
 353 10 346 23 343 34 c 1
 313 7 272 -10 218 -10 c 0
 133 -10 70 32 41 89 c 0
 31 109 26 131 26 155 c 0xbe
183 574 m 1
 296 750 l 1
 484 750 l 1
 327 574 l 1
 183 574 l 1
192 166 m 0
 192 140 215 123 249 123 c 0xbe
 289 123 318 139 332 160 c 1
 332 228 l 1
 287 228 l 2
 228 228 192 210 192 166 c 0
EndSplineSet
Substitution2: "<3,3> Small Caps in Latin lookup 0 subtable" Aacute.smcp
EndChar

StartChar: acircumflex
Encoding: 226 226 165
Width: 544
Flags: W
HStem: -10 133<197.429 310.436> 0 21G<354.5 519> 228 108<207.244 331> 409 129<212.851 320.152> 730 20G<205.592 340.389>
VStem: 25 166<130.92 208.979> 331 168<139.064 228 336 398.564>
LayerCount: 2
Fore
SplineSet
25 155 m 0xbe
 25 292 146 336 281 336 c 2
 331 336 l 1
 331 350 l 2
 331 389 312 409 266 409 c 0
 226 409 203 391 203 358 c 2
 203 345 l 1
 37 345 l 1
 37 358 l 2
 37 416 68 458 102 485 c 0
 144 518 203 538 274 538 c 0
 375 538 448 501 481 431 c 0
 493 407 499 379 499 348 c 2
 499 134 l 2
 499 88 504 54 518 25 c 1
 519 22 l 1
 519 0 l 1
 357 0 l 1x7e
 352 10 345 23 342 34 c 1
 312 7 271 -10 217 -10 c 0
 132 -10 69 32 40 89 c 0
 30 109 25 131 25 155 c 0xbe
75 582 m 1
 75 608 l 1
 227 750 l 1
 319 750 l 1
 473 606 l 1
 473 582 l 1
 343 582 l 1
 273 648 l 1
 202 582 l 1
 75 582 l 1
191 166 m 0
 191 140 214 123 248 123 c 0xbe
 288 123 317 139 331 160 c 1
 331 228 l 1
 286 228 l 2
 227 228 191 210 191 166 c 0
EndSplineSet
Substitution2: "<3,3> Small Caps in Latin lookup 0 subtable" Acircumflex.smcp
EndChar

StartChar: atilde
Encoding: 227 227 166
Width: 544
Flags: W
HStem: -10 133<197.429 310.436> 0 21G<354.5 519> 228 108<207.244 331> 409 129<212.851 320.152> 589 114<269.347 361.134> 631 114<184.704 272.134> 731 20G<363 469>
VStem: 25 166<130.92 208.979> 331 168<139.064 228 336 398.564> 363 106<704.132 743>
LayerCount: 2
Fore
SplineSet
25 155 m 0xb180
 25 292 146 336 281 336 c 2
 331 336 l 1
 331 350 l 2
 331 389 312 409 266 409 c 0
 226 409 203 391 203 358 c 2
 203 345 l 1
 37 345 l 1
 37 358 l 2
 37 416 68 458 102 485 c 0
 144 518 203 538 274 538 c 0
 375 538 448 501 481 431 c 0
 493 407 499 379 499 348 c 2
 499 134 l 2
 499 88 504 54 518 25 c 1
 519 22 l 1
 519 0 l 1
 357 0 l 1x7180
 352 10 345 23 342 34 c 1
 312 7 271 -10 217 -10 c 0
 132 -10 69 32 40 89 c 0
 30 109 25 131 25 155 c 0xb180
77 590 m 1
 77 602 l 2
 77 663 108 711 150 733 c 0
 166 741 182 745 199 745 c 0x3540
 231 745 254 732 273 723 c 0
 293 713 311 703 333 703 c 0
 351 703 363 716 363 738 c 2
 363 751 l 1
 469 743 l 1
 469 732 l 2
 469 670 438 622 396 600 c 0
 381 592 364 589 346 589 c 0x3b40
 297 589 269 613 241 626 c 0
 232 630 224 631 212 631 c 0x3540
 194 631 183 618 183 596 c 2
 183 583 l 1
 77 590 l 1
191 166 m 0
 191 140 214 123 248 123 c 0
 288 123 317 139 331 160 c 1
 331 228 l 1xb180
 286 228 l 2
 227 228 191 210 191 166 c 0
EndSplineSet
Substitution2: "<3,3> Small Caps in Latin lookup 0 subtable" Atilde.smcp
EndChar

StartChar: adieresis
Encoding: 228 228 167
Width: 544
Flags: W
HStem: -10 133<197.429 310.436> 0 21G<354.5 519> 228 108<207.244 331> 409 129<212.851 320.152> 580 149<95.9963 210.957 334.625 449.32>
VStem: 25 166<130.92 208.979> 73 160<602.208 705.849> 311 160<601.755 705.849> 331 168<139.064 228 336 398.564>
LayerCount: 2
Fore
SplineSet
25 155 m 0xbc80
 25 292 146 336 281 336 c 2
 331 336 l 1
 331 350 l 2
 331 389 312 409 266 409 c 0
 226 409 203 391 203 358 c 2
 203 345 l 1
 37 345 l 1
 37 358 l 2
 37 416 68 458 102 485 c 0
 144 518 203 538 274 538 c 0
 375 538 448 501 481 431 c 0
 493 407 499 379 499 348 c 2
 499 134 l 2
 499 88 504 54 518 25 c 1
 519 22 l 1
 519 0 l 1
 357 0 l 1x7c80
 352 10 345 23 342 34 c 1
 312 7 271 -10 217 -10 c 0
 132 -10 69 32 40 89 c 0
 30 109 25 131 25 155 c 0xbc80
73 654 m 0x3a
 73 700 111 729 154 729 c 0
 198 729 233 699 233 654 c 0
 233 608 197 580 154 580 c 0
 110 580 73 607 73 654 c 0x3a
191 166 m 0xbc80
 191 140 214 123 248 123 c 0
 288 123 317 139 331 160 c 1
 331 228 l 1
 286 228 l 2
 227 228 191 210 191 166 c 0xbc80
311 654 m 0x39
 311 700 349 729 392 729 c 0
 436 729 471 699 471 654 c 0
 471 609 436 579 392 579 c 0
 347 579 311 608 311 654 c 0x39
EndSplineSet
Substitution2: "<3,3> Small Caps in Latin lookup 0 subtable" Adieresis.smcp
EndChar

StartChar: aring
Encoding: 229 229 168
Width: 544
Flags: W
HStem: -10 133<197.429 310.436> 0 21G<354.5 519> 228 108<207.244 331> 409 129<212.851 320.152> 570 71<237.781 310.432> 721 72<237.242 310.314>
VStem: 25 166<130.92 208.979> 153 80<645.536 716.937> 315 80<645.982 716.502> 331 168<139.064 228 336 398.564>
LayerCount: 2
Fore
SplineSet
25 155 m 0xbe40
 25 292 146 336 281 336 c 2
 331 336 l 1
 331 350 l 2
 331 389 312 409 266 409 c 0
 226 409 203 391 203 358 c 2
 203 345 l 1
 37 345 l 1
 37 358 l 2
 37 416 68 458 102 485 c 0
 144 518 203 538 274 538 c 0
 375 538 448 501 481 431 c 0
 493 407 499 379 499 348 c 2
 499 134 l 2
 499 88 504 54 518 25 c 1
 519 22 l 1
 519 0 l 1
 357 0 l 1x7e40
 352 10 345 23 342 34 c 1
 312 7 271 -10 217 -10 c 0
 132 -10 69 32 40 89 c 0
 30 109 25 131 25 155 c 0xbe40
153 680 m 0x3d80
 153 734 188 769 226 784 c 0
 241 790 257 793 274 793 c 0
 340 793 395 749 395 680 c 0
 395 611 340 570 274 570 c 0
 220 570 181 598 163 636 c 0
 156 649 153 664 153 680 c 0x3d80
191 166 m 0xbe40
 191 140 214 123 248 123 c 0
 288 123 317 139 331 160 c 1
 331 228 l 1
 286 228 l 2
 227 228 191 210 191 166 c 0xbe40
233 680 m 0x3d80
 233 658 251 641 274 641 c 0
 298 641 315 657 315 680 c 0
 315 705 299 721 274 721 c 0
 249 721 233 705 233 680 c 0x3d80
EndSplineSet
Substitution2: "<3,3> Small Caps in Latin lookup 0 subtable" Aring.smcp
EndChar

StartChar: ae
Encoding: 230 230 169
Width: 873
Flags: W
HStem: -10 139<549.309 737.744> -10 129<199.802 333.732> 208 106<516 674> 225 97<213.607 348> 399 139<221.371 336.003 545.793 655.226>
VStem: 26 166<127.843 202.743>
LayerCount: 2
Fore
SplineSet
26 158 m 0x4c
 26 282 147 322 281 322 c 2
 348 322 l 1x5c
 348 336 l 2
 348 377 326 399 284 399 c 0
 247 399 225 388 214 368 c 0
 211 363 210 358 210 352 c 2
 210 338 l 1
 44 349 l 1
 44 360 l 2
 44 420 76 462 112 489 c 0
 155 520 214 538 285 538 c 0
 352 538 406 521 445 488 c 1
 485 520 537 539 604 538 c 1
 720 538 793 480 823 395 c 0
 833 366 838 333 838 296 c 2
 838 208 l 1
 514 208 l 1
 524 157 561 129 630 129 c 0
 690 129 728 145 769 165 c 2
 780 171 l 1
 827 57 l 1
 820 52 l 2
 771 15 699 -10 615 -10 c 0xac
 533 -10 471 16 427 57 c 1
 383 15 318 -10 235 -10 c 0
 141 -10 70 23 41 89 c 1
 31 109 26 133 26 158 c 0x4c
192 166 m 0
 192 133 215 119 261 119 c 0
 297 119 327 133 348 151 c 1
 348 225 l 1
 282 225 l 2
 239 225 211 210 198 186 c 0
 194 179 192 173 192 166 c 0
516 314 m 1x2c
 674 314 l 1
 674 316 l 2
 674 370 654 399 604 399 c 0
 549 399 526 364 516 314 c 1x2c
EndSplineSet
EndChar

StartChar: ccedilla
Encoding: 231 231 170
Width: 550
Flags: W
HStem: -226 107<219 268.5> 399 139<223.69 336.382>
VStem: 28 166<153.01 366.548> 358 158<138.062 196 307 377.5>
LayerCount: 2
Fore
SplineSet
28 257 m 2
 28 270 l 2
 28 429 118 538 283 538 c 0
 391 538 465 488 498 410 c 0
 510 382 516 353 516 320 c 2
 516 307 l 1
 358 307 l 1
 358 320 l 2
 358 368 328 399 281 399 c 0
 211 399 194 344 194 267 c 2
 194 254 l 2
 194 176 209 121 282 121 c 0
 330 121 356 144 359 185 c 2
 359 196 l 1
 516 196 l 1
 516 184 l 2
 516 123 483 74 447 44 c 0
 421 22 384 5 345 -3 c 1
 386 -14 414 -47 414 -96 c 0
 414 -167 361 -203 307 -218 c 0
 284 -224 259 -226 231 -226 c 2
 219 -226 l 1
 214 -119 l 1
 227 -119 l 2
 256 -119 270 -112 270 -92 c 0
 270 -72 253 -69 212 -66 c 2
 198 -65 l 1
 211 -2 l 1
 122 19 68 78 43 153 c 0
 33 185 28 221 28 257 c 2
EndSplineSet
Substitution2: "<3,3> Small Caps in Latin lookup 0 subtable" Ccedilla.smcp
EndChar

StartChar: egrave
Encoding: 232 232 171
Width: 566
Flags: W
HStem: -10 139<236.538 393.315> 206 108<200 368> 399 139<228.991 345.953> 730 20G<62 263.841>
LayerCount: 2
Fore
SplineSet
27 246 m 2
 27 264 l 2
 27 387 87 478 180 517 c 0
 212 531 247 538 287 538 c 0
 451 538 533 430 533 275 c 2
 533 206 l 1
 198 206 l 1
 210 159 247 129 312 129 c 0
 368 129 404 150 429 183 c 2
 438 195 l 1
 524 98 l 1
 518 90 l 2
 475 31 404 -10 302 -10 c 0
 170 -10 83 55 46 147 c 0
 33 178 27 211 27 246 c 2
62 750 m 1
 251 750 l 1
 364 574 l 1
 219 574 l 1
 62 750 l 1
200 314 m 1
 368 314 l 1
 368 369 340 399 286 399 c 0
 233 399 209 364 200 314 c 1
EndSplineSet
Substitution2: "<3,3> Small Caps in Latin lookup 0 subtable" Egrave.smcp
EndChar

StartChar: eacute
Encoding: 233 233 172
Width: 566
Flags: W
HStem: -10 139<236.538 393.315> 206 108<200 368> 399 139<228.991 345.953> 730 20G<279.159 480>
LayerCount: 2
Fore
SplineSet
27 246 m 2
 27 264 l 2
 27 387 87 478 180 517 c 0
 212 531 247 538 287 538 c 0
 451 538 533 430 533 275 c 2
 533 206 l 1
 198 206 l 1
 210 159 247 129 312 129 c 0
 368 129 404 150 429 183 c 2
 438 195 l 1
 524 98 l 1
 518 90 l 2
 475 31 404 -10 302 -10 c 0
 170 -10 83 55 46 147 c 0
 33 178 27 211 27 246 c 2
179 574 m 1
 292 750 l 1
 480 750 l 1
 323 574 l 1
 179 574 l 1
200 314 m 1
 368 314 l 1
 368 369 340 399 286 399 c 0
 233 399 209 364 200 314 c 1
EndSplineSet
Substitution2: "<3,3> Small Caps in Latin lookup 0 subtable" Eacute.smcp
EndChar

StartChar: ecircumflex
Encoding: 234 234 173
Width: 566
Flags: W
HStem: -10 139<236.538 393.315> 206 108<200 368> 399 139<228.991 345.953> 730 20G<203.592 338.389>
LayerCount: 2
Fore
SplineSet
27 246 m 2
 27 264 l 2
 27 387 87 478 180 517 c 0
 212 531 247 538 287 538 c 0
 451 538 533 430 533 275 c 2
 533 206 l 1
 198 206 l 1
 210 159 247 129 312 129 c 0
 368 129 404 150 429 183 c 2
 438 195 l 1
 524 98 l 1
 518 90 l 2
 475 31 404 -10 302 -10 c 0
 170 -10 83 55 46 147 c 0
 33 178 27 211 27 246 c 2
73 582 m 1
 73 608 l 1
 225 750 l 1
 317 750 l 1
 471 606 l 1
 471 582 l 1
 341 582 l 1
 271 648 l 1
 200 582 l 1
 73 582 l 1
200 314 m 1
 368 314 l 1
 368 369 340 399 286 399 c 0
 233 399 209 364 200 314 c 1
EndSplineSet
Substitution2: "<3,3> Small Caps in Latin lookup 0 subtable" Ecircumflex.smcp
EndChar

StartChar: edieresis
Encoding: 235 235 174
Width: 566
Flags: W
HStem: -10 139<236.538 393.315> 206 108<200 368> 399 139<228.991 345.953> 580 149<93.5198 208.48 332.125 446.843>
VStem: 71 160<602.208 705.849> 309 160<602.151 705.849>
LayerCount: 2
Fore
SplineSet
27 246 m 2
 27 264 l 2
 27 387 87 478 180 517 c 0
 212 531 247 538 287 538 c 0
 451 538 533 430 533 275 c 2
 533 206 l 1
 198 206 l 1
 210 159 247 129 312 129 c 0
 368 129 404 150 429 183 c 2
 438 195 l 1
 524 98 l 1
 518 90 l 2
 475 31 404 -10 302 -10 c 0
 170 -10 83 55 46 147 c 0
 33 178 27 211 27 246 c 2
71 654 m 0
 71 700 108 729 151 729 c 0
 195 729 231 699 231 654 c 0
 231 608 194 580 151 580 c 0
 107 580 71 607 71 654 c 0
200 314 m 1
 368 314 l 1
 368 369 340 399 286 399 c 0
 233 399 209 364 200 314 c 1
309 654 m 0
 309 700 346 729 389 729 c 0
 433 729 469 699 469 654 c 0
 469 609 433 579 389 579 c 0
 344 579 309 608 309 654 c 0
EndSplineSet
Substitution2: "<3,3> Small Caps in Latin lookup 0 subtable" Edieresis.smcp
EndChar

StartChar: igrave
Encoding: 236 236 175
Width: 350
Flags: W
HStem: 0 21G<142 308> 508 20G<142 308>
VStem: 142 166<0 528>
LayerCount: 2
Fore
SplineSet
18 743 m 1
 207 743 l 1
 320 567 l 1
 175 567 l 1
 18 743 l 1
142 0 m 1
 142 528 l 1
 308 528 l 1
 308 0 l 1
 142 0 l 1
EndSplineSet
Substitution2: "<3,3> Small Caps in Latin lookup 0 subtable" Igrave.smcp
EndChar

StartChar: iacute
Encoding: 237 237 176
Width: 350
Flags: W
HStem: 0 21G<36 202> 508 20G<36 202>
VStem: 36 166<0 528>
LayerCount: 2
Fore
SplineSet
29 567 m 1
 142 743 l 1
 330 743 l 1
 173 567 l 1
 29 567 l 1
36 0 m 1
 36 528 l 1
 202 528 l 1
 202 0 l 1
 36 0 l 1
EndSplineSet
Substitution2: "<3,3> Small Caps in Latin lookup 0 subtable" Iacute.smcp
EndChar

StartChar: icircumflex
Encoding: 238 238 177
Width: 440
Flags: W
HStem: 0 21G<134 300> 508 20G<134 300>
VStem: 134 166<0 528>
LayerCount: 2
Fore
SplineSet
20 575 m 1
 20 601 l 1
 173 743 l 1
 265 743 l 1
 418 599 l 1
 418 575 l 1
 289 575 l 1
 219 641 l 1
 148 575 l 1
 20 575 l 1
134 0 m 1
 134 528 l 1
 300 528 l 1
 300 0 l 1
 134 0 l 1
EndSplineSet
Substitution2: "<3,3> Small Caps in Latin lookup 0 subtable" Icircumflex.smcp
EndChar

StartChar: idieresis
Encoding: 239 239 178
Width: 442
Flags: W
HStem: 0 21G<137 303> 508 20G<137 303> 573 149<43.9963 158.957 281.996 397.32>
VStem: 21 160<595.755 699.395> 137 166<0 528> 259 160<595.301 699.395>
LayerCount: 2
Fore
SplineSet
21 648 m 0xf0
 21 694 59 722 102 722 c 0
 146 722 181 693 181 648 c 0
 181 602 145 573 102 573 c 0
 58 573 21 601 21 648 c 0xf0
137 0 m 1xe8
 137 528 l 1
 303 528 l 1
 303 0 l 1
 137 0 l 1xe8
259 648 m 0xe4
 259 694 297 722 340 722 c 0
 384 722 419 693 419 648 c 0
 419 603 384 572 340 572 c 0
 295 572 259 602 259 648 c 0xe4
EndSplineSet
Substitution2: "<3,3> Small Caps in Latin lookup 0 subtable" Idieresis.smcp
EndChar

StartChar: eth
Encoding: 240 240 179
Width: 585
Flags: W
HStem: -10 139<231.032 344.883> 364 111<227.051 354.793> 721 20G<416.364 461.158>
VStem: 27 166<167.59 325.434> 385 166<175.972 347.536>
LayerCount: 2
Fore
SplineSet
27 230 m 0
 27 374 111 475 261 475 c 0
 298 475 329 467 356 455 c 1
 341 487 320 513 297 536 c 1
 203 474 l 1
 149 551 l 1
 218 594 l 1
 185 612 149 626 110 637 c 2
 96 641 l 1
 149 773 l 1
 159 771 l 2
 235 756 304 727 361 686 c 1
 448 741 l 1
 498 665 l 1
 433 622 l 1
 503 548 551 450 551 317 c 2
 551 283 l 2
 551 151 489 55 392 12 c 0
 359 -2 324 -10 286 -10 c 0
 164 -10 83 53 46 137 c 0
 33 166 27 197 27 230 c 0
193 242 m 0
 193 190 216 155 249 138 c 0
 260 132 272 129 288 129 c 0
 358 129 385 197 385 280 c 2
 385 332 l 1
 366 352 336 364 292 364 c 0
 224 364 193 318 193 242 c 0
EndSplineSet
Substitution2: "<3,3> Small Caps in Latin lookup 0 subtable" Eth.smcp
EndChar

StartChar: ntilde
Encoding: 241 241 180
Width: 551
Flags: W
HStem: 0 21G<34 200 348 514> 398 140<239.187 401.056> 508 20G<34 192.395> 589 114<272.347 364.134> 631 114<187.704 275.134> 731 20G<366 472>
VStem: 34 166<0 381.777> 348 166<0 386.829> 366 106<704.132 743>
LayerCount: 2
Fore
SplineSet
34 0 m 1xc3
 34 528 l 1
 191 528 l 1xa3
 194 485 l 1
 228 517 275 538 335 538 c 0
 465 538 514 454 514 333 c 2
 514 0 l 1
 348 0 l 1
 348 329 l 2
 348 380 330 398 277 398 c 0
 239 398 215 381 200 359 c 1
 200 0 l 1
 34 0 l 1xc3
80 590 m 1
 80 602 l 2
 80 663 111 711 153 733 c 0
 169 741 185 745 202 745 c 0x8a80
 234 745 257 732 276 723 c 0
 296 713 314 703 336 703 c 0
 354 703 366 716 366 738 c 2
 366 751 l 1
 472 743 l 1
 472 732 l 2
 472 670 441 622 399 600 c 0
 384 592 367 589 349 589 c 0x9680
 300 589 272 613 244 626 c 0
 235 630 227 631 215 631 c 0x8a80
 197 631 186 618 186 596 c 2
 186 583 l 1
 80 590 l 1
EndSplineSet
Substitution2: "<3,3> Small Caps in Latin lookup 0 subtable" Ntilde.smcp
EndChar

StartChar: ograve
Encoding: 242 242 181
Width: 586
Flags: W
HStem: -10 139<228.028 352.166> 399 139<228.075 349.657> 730 20G<81 282.841>
VStem: 27 166<165.5 358.171> 387 166<165.875 360.957>
LayerCount: 2
Fore
SplineSet
27 259 m 2
 27 268 l 2
 27 391 86 478 179 517 c 1
 212 532 249 538 290 538 c 0
 420 538 502 469 536 375 c 0
 547 342 553 307 553 269 c 2
 553 260 l 2
 553 137 496 50 403 11 c 1
 370 -4 332 -10 291 -10 c 0
 161 -10 78 59 44 153 c 0
 32 186 27 221 27 259 c 2
81 750 m 1
 270 750 l 1
 383 574 l 1
 238 574 l 1
 81 750 l 1
193 259 m 2
 193 183 218 129 291 129 c 0
 362 129 387 184 387 259 c 2
 387 269 l 2
 387 344 361 399 290 399 c 0
 219 399 193 343 193 269 c 2
 193 259 l 2
EndSplineSet
Substitution2: "<3,3> Small Caps in Latin lookup 0 subtable" Ograve.smcp
EndChar

StartChar: oacute
Encoding: 243 243 182
Width: 586
Flags: W
HStem: -10 139<228.028 352.166> 399 139<228.075 349.657> 730 20G<298.159 499>
VStem: 27 166<165.5 358.171> 387 166<165.875 360.957>
LayerCount: 2
Fore
SplineSet
27 259 m 2
 27 268 l 2
 27 391 86 478 179 517 c 1
 212 532 249 538 290 538 c 0
 420 538 502 469 536 375 c 0
 547 342 553 307 553 269 c 2
 553 260 l 2
 553 137 496 50 403 11 c 1
 370 -4 332 -10 291 -10 c 0
 161 -10 78 59 44 153 c 0
 32 186 27 221 27 259 c 2
193 259 m 2
 193 183 218 129 291 129 c 0
 362 129 387 184 387 259 c 2
 387 269 l 2
 387 344 361 399 290 399 c 0
 219 399 193 343 193 269 c 2
 193 259 l 2
198 574 m 1
 311 750 l 1
 499 750 l 1
 342 574 l 1
 198 574 l 1
EndSplineSet
Substitution2: "<3,3> Small Caps in Latin lookup 0 subtable" Oacute.smcp
EndChar

StartChar: ocircumflex
Encoding: 244 244 183
Width: 586
Flags: W
HStem: -10 139<228.028 352.166> 399 139<228.075 349.657> 730 20G<222.451 357.25>
VStem: 27 166<165.5 358.171> 387 166<165.875 360.957>
LayerCount: 2
Fore
SplineSet
27 259 m 2
 27 268 l 2
 27 391 86 478 179 517 c 1
 212 532 249 538 290 538 c 0
 420 538 502 469 536 375 c 0
 547 342 553 307 553 269 c 2
 553 260 l 2
 553 137 496 50 403 11 c 1
 370 -4 332 -10 291 -10 c 0
 161 -10 78 59 44 153 c 0
 32 186 27 221 27 259 c 2
91 582 m 1
 91 608 l 1
 244 750 l 1
 336 750 l 1
 489 606 l 1
 489 582 l 1
 360 582 l 1
 290 648 l 1
 219 582 l 1
 91 582 l 1
193 259 m 2
 193 183 218 129 291 129 c 0
 362 129 387 184 387 259 c 2
 387 269 l 2
 387 344 361 399 290 399 c 0
 219 399 193 343 193 269 c 2
 193 259 l 2
EndSplineSet
Substitution2: "<3,3> Small Caps in Latin lookup 0 subtable" Ocircumflex.smcp
EndChar

StartChar: otilde
Encoding: 245 245 184
Width: 586
Flags: W
HStem: -10 139<228.028 352.166> 399 139<228.075 349.657> 589 114<285.347 377.134> 631 114<200.704 288.134> 731 20G<379 485>
VStem: 27 166<165.5 358.171> 379 106<704.132 743> 387 166<165.875 360.957>
LayerCount: 2
Fore
SplineSet
27 259 m 2xc5
 27 268 l 2
 27 391 86 478 179 517 c 1
 212 532 249 538 290 538 c 0
 420 538 502 469 536 375 c 0
 547 342 553 307 553 269 c 2
 553 260 l 2
 553 137 496 50 403 11 c 1
 370 -4 332 -10 291 -10 c 0
 161 -10 78 59 44 153 c 0
 32 186 27 221 27 259 c 2xc5
93 590 m 1
 93 602 l 2
 93 663 124 711 166 733 c 0
 182 741 198 745 215 745 c 0xd6
 247 745 270 732 289 723 c 0
 309 713 327 703 349 703 c 0
 367 703 379 716 379 738 c 2
 379 751 l 1
 485 743 l 1
 485 732 l 2
 485 670 454 622 412 600 c 0
 397 592 380 589 362 589 c 0xee
 313 589 285 613 257 626 c 0
 248 630 240 631 228 631 c 0xd6
 210 631 199 618 199 596 c 2
 199 583 l 1
 93 590 l 1
193 259 m 2
 193 183 218 129 291 129 c 0
 362 129 387 184 387 259 c 2
 387 269 l 2xc5
 387 344 361 399 290 399 c 0
 219 399 193 343 193 269 c 2
 193 259 l 2
EndSplineSet
Substitution2: "<3,3> Small Caps in Latin lookup 0 subtable" Otilde.smcp
EndChar

StartChar: odieresis
Encoding: 246 246 185
Width: 586
Flags: W
HStem: -10 139<228.028 352.166> 399 139<228.075 349.657> 580 149<111.996 226.957 350.625 465.32>
VStem: 27 166<165.5 358.171> 89 160<602.208 705.849> 327 160<601.755 705.849> 387 166<165.875 360.957>
LayerCount: 2
Fore
SplineSet
27 259 m 2xf2
 27 268 l 2
 27 391 86 478 179 517 c 1
 212 532 249 538 290 538 c 0
 420 538 502 469 536 375 c 0
 547 342 553 307 553 269 c 2
 553 260 l 2
 553 137 496 50 403 11 c 1
 370 -4 332 -10 291 -10 c 0
 161 -10 78 59 44 153 c 0
 32 186 27 221 27 259 c 2xf2
89 654 m 0xe8
 89 700 127 729 170 729 c 0
 214 729 249 699 249 654 c 0
 249 608 213 580 170 580 c 0
 126 580 89 607 89 654 c 0xe8
193 259 m 2xf2
 193 183 218 129 291 129 c 0
 362 129 387 184 387 259 c 2
 387 269 l 2
 387 344 361 399 290 399 c 0
 219 399 193 343 193 269 c 2
 193 259 l 2xf2
327 654 m 0xe4
 327 700 365 729 408 729 c 0
 452 729 487 699 487 654 c 0
 487 609 452 579 408 579 c 0
 363 579 327 608 327 654 c 0xe4
EndSplineSet
Substitution2: "<3,3> Small Caps in Latin lookup 0 subtable" Odieresis.smcp
EndChar

StartChar: divide
Encoding: 247 247 186
Width: 592
Flags: W
HStem: 50 172<229.066 356.934> 266 138<29 557> 433 173<229.066 356.934>
VStem: 201 184<78.002 192.812 462.188 577.405>
LayerCount: 2
Fore
SplineSet
29 266 m 1
 29 404 l 1
 557 404 l 1
 557 266 l 1
 29 266 l 1
201 135 m 0
 201 189 241 222 293 222 c 0
 345 222 385 189 385 135 c 0
 385 80 345 50 293 50 c 0
 241 50 201 81 201 135 c 0
201 520 m 0
 201 574 241 606 293 606 c 0
 345 606 385 574 385 520 c 0
 385 466 345 433 293 433 c 0
 241 433 201 466 201 520 c 0
EndSplineSet
EndChar

StartChar: oslash
Encoding: 248 248 187
Width: 586
Flags: W
HStem: -10 139<275.324 350.349> 399 139<231.731 309.649>
VStem: 27 166<177.185 357.6> 387 166<170.225 341.32>
LayerCount: 2
Fore
SplineSet
27 258 m 2
 27 267 l 2
 27 391 86 477 179 516 c 1
 212 531 249 538 290 538 c 0
 320 538 350 534 374 527 c 1
 407 594 l 1
 513 594 l 1
 459 487 l 1
 518 440 553 365 553 270 c 2
 553 261 l 2
 553 137 496 50 403 11 c 1
 370 -4 332 -10 291 -10 c 0
 263 -10 236 -7 212 0 c 1
 178 -69 l 1
 71 -69 l 1
 125 38 l 1
 63 84 27 161 27 258 c 2
193 246 m 2
 193 220 196 195 202 176 c 1
 310 397 l 1
 303 398 297 399 290 399 c 0
 219 399 193 337 193 256 c 2
 193 246 l 2
275 130 m 1
 281 129 285 129 291 129 c 0
 362 129 387 190 387 272 c 2
 387 282 l 2
 387 306 385 328 380 345 c 1
 275 130 l 1
EndSplineSet
EndChar

StartChar: ugrave
Encoding: 249 249 188
Width: 552
Flags: W
HStem: -10 139<210.608 314.469> 0 21G<354.947 512> 508 20G<32 198 346 512> 730 20G<64 265.841>
VStem: 32 166<141.236 528> 346 166<146.333 528>
LayerCount: 2
Fore
SplineSet
32 190 m 2xbc
 32 528 l 1
 198 528 l 1
 198 194 l 2
 198 150 216 129 260 129 c 0xbc
 305 129 330 145 346 168 c 1
 346 528 l 1
 512 528 l 1
 512 0 l 1
 356 0 l 1x7c
 354 38 l 1
 321 9 276 -10 219 -10 c 0
 90 -10 32 68 32 190 c 2xbc
64 750 m 1
 253 750 l 1
 366 574 l 1
 221 574 l 1
 64 750 l 1
EndSplineSet
Substitution2: "<3,3> Small Caps in Latin lookup 0 subtable" Ugrave.smcp
EndChar

StartChar: uacute
Encoding: 250 250 189
Width: 551
Flags: W
HStem: -10 139<210.608 314.469> 0 21G<354.947 512> 508 20G<32 198 346 512> 730 20G<281.159 482>
VStem: 32 166<141.236 528> 346 166<146.333 528>
LayerCount: 2
Fore
SplineSet
32 190 m 2xbc
 32 528 l 1
 198 528 l 1
 198 194 l 2
 198 150 216 129 260 129 c 0xbc
 305 129 330 145 346 168 c 1
 346 528 l 1
 512 528 l 1
 512 0 l 1
 356 0 l 1x7c
 354 38 l 1
 321 9 276 -10 219 -10 c 0
 90 -10 32 68 32 190 c 2xbc
181 574 m 1
 294 750 l 1
 482 750 l 1
 325 574 l 1
 181 574 l 1
EndSplineSet
Substitution2: "<3,3> Small Caps in Latin lookup 0 subtable" Uacute.smcp
EndChar

StartChar: ucircumflex
Encoding: 251 251 190
Width: 551
Flags: W
HStem: -10 139<210.608 314.469> 0 21G<354.947 512> 508 20G<32 198 346 512> 730 20G<205.451 340.25>
VStem: 32 166<141.236 528> 346 166<146.333 528>
LayerCount: 2
Fore
SplineSet
32 190 m 2xbc
 32 528 l 1
 198 528 l 1
 198 194 l 2
 198 150 216 129 260 129 c 0xbc
 305 129 330 145 346 168 c 1
 346 528 l 1
 512 528 l 1
 512 0 l 1
 356 0 l 1x7c
 354 38 l 1
 321 9 276 -10 219 -10 c 0
 90 -10 32 68 32 190 c 2xbc
74 582 m 1
 74 608 l 1
 227 750 l 1
 319 750 l 1
 472 606 l 1
 472 582 l 1
 343 582 l 1
 273 648 l 1
 202 582 l 1
 74 582 l 1
EndSplineSet
Substitution2: "<3,3> Small Caps in Latin lookup 0 subtable" Ucircumflex.smcp
EndChar

StartChar: udieresis
Encoding: 252 252 191
Width: 551
Flags: W
HStem: -10 139<210.608 314.469> 0 21G<354.947 512> 508 20G<32 198 346 512> 580 149<94.9963 209.957 333.625 448.32>
VStem: 32 166<141.236 528> 72 160<602.208 705.849> 310 160<601.755 705.849> 346 166<146.333 528>
LayerCount: 2
Fore
SplineSet
32 190 m 2xb9
 32 528 l 1
 198 528 l 1
 198 194 l 2
 198 150 216 129 260 129 c 0xb9
 305 129 330 145 346 168 c 1
 346 528 l 1
 512 528 l 1
 512 0 l 1
 356 0 l 1x79
 354 38 l 1
 321 9 276 -10 219 -10 c 0
 90 -10 32 68 32 190 c 2xb9
72 654 m 0x34
 72 700 110 729 153 729 c 0
 197 729 232 699 232 654 c 0
 232 608 196 580 153 580 c 0
 109 580 72 607 72 654 c 0x34
310 654 m 0x32
 310 700 348 729 391 729 c 0
 435 729 470 699 470 654 c 0
 470 609 435 579 391 579 c 0
 346 579 310 608 310 654 c 0x32
EndSplineSet
Substitution2: "<3,3> Small Caps in Latin lookup 0 subtable" Udieresis.smcp
EndChar

StartChar: yacute
Encoding: 253 253 192
Width: 577
Flags: W
HStem: -213 141<83.0327 181.015> -200 128<82 155.644> 508 20G<20 204.993 371.007 555> 730 20G<300.159 501>
LayerCount: 2
Fore
SplineSet
20 528 m 1xb0
 199 528 l 1
 288 231 l 1
 377 528 l 1
 555 528 l 1
 338 -71 l 2
 312 -145 264 -213 157 -213 c 0xb0
 128 -213 104 -208 82 -200 c 1
 82 -72 l 1x70
 95 -72 l 2
 103 -72 110 -73 116 -73 c 0
 165 -73 185 -59 196 -25 c 1
 196 -24 l 1
 211 12 l 1
 20 528 l 1xb0
200 574 m 1
 313 750 l 1
 501 750 l 1
 344 574 l 1
 200 574 l 1
EndSplineSet
Substitution2: "<3,3> Small Caps in Latin lookup 0 subtable" Yacute.smcp
EndChar

StartChar: thorn
Encoding: 254 254 193
Width: 572
Flags: W
HStem: -203 21G<36 202> -10 139<229.11 339.661> 398 140<228.016 337.573> 730 20G<36 204>
VStem: 36 168<-203 28 142.969 383.326 500 750> 372 166<164.823 362.312>
LayerCount: 2
Fore
SplineSet
36 -203 m 1
 36 750 l 1
 204 750 l 1
 204 500 l 1
 234 524 270 538 319 538 c 0
 437 538 499 466 524 378 c 0
 533 345 538 309 538 270 c 2
 538 260 l 2
 538 145 497 53 414 11 c 0
 386 -4 354 -10 320 -10 c 0
 271 -10 233 5 204 28 c 1
 204 0 l 1
 202 0 l 1
 202 -203 l 1
 36 -203 l 1
204 167 m 1
 218 143 240 129 283 129 c 0
 350 129 372 187 372 259 c 2
 372 269 l 2
 372 341 349 398 282 398 c 0
 241 398 218 383 204 362 c 1
 204 167 l 1
EndSplineSet
EndChar

StartChar: ydieresis
Encoding: 255 255 194
Width: 576
Flags: W
HStem: -213 141<82.0327 180.015> -200 128<81 154.644> 508 20G<19 203.993 370.007 554> 580 149<111.996 226.957 350.625 465.32>
VStem: 89 160<602.208 705.849> 327 160<601.755 705.849>
LayerCount: 2
Fore
SplineSet
19 528 m 1xbc
 198 528 l 1
 287 231 l 1
 376 528 l 1
 554 528 l 1
 337 -71 l 2
 311 -145 263 -213 156 -213 c 0xbc
 127 -213 103 -208 81 -200 c 1
 81 -72 l 1x7c
 94 -72 l 2
 102 -72 109 -73 115 -73 c 0
 164 -73 184 -59 195 -25 c 1
 195 -24 l 1
 210 12 l 1
 19 528 l 1xbc
89 654 m 0
 89 700 127 729 170 729 c 0
 214 729 249 699 249 654 c 0
 249 608 213 580 170 580 c 0
 126 580 89 607 89 654 c 0
327 654 m 0
 327 700 365 729 408 729 c 0
 452 729 487 699 487 654 c 0
 487 609 452 579 408 579 c 0
 363 579 327 608 327 654 c 0
EndSplineSet
Substitution2: "<3,3> Small Caps in Latin lookup 0 subtable" Ydieresis.smcp
EndChar

StartChar: Amacron
Encoding: 256 256 195
Width: 744
Flags: W
HStem: 0 21G<20 209.712 533.288 723> 146 132<300 443> 691 20G<286.293 455.736> 755 106<182 564>
LayerCount: 2
Fore
SplineSet
20 0 m 1
 294 711 l 1
 448 711 l 1
 723 0 l 1
 540 0 l 1
 491 146 l 1
 252 146 l 1
 203 0 l 1
 20 0 l 1
182 755 m 1
 182 861 l 1
 564 861 l 1
 564 755 l 1
 182 755 l 1
300 278 m 1
 443 278 l 1
 371 491 l 1
 300 278 l 1
EndSplineSet
Substitution2: "<3,3> Small Caps in Latin lookup 0 subtable" Amacron.smcp
EndChar

StartChar: amacron
Encoding: 257 257 196
Width: 545
Flags: W
HStem: -10 133<198.429 311.436> 0 21G<355.5 520> 228 108<208.244 332> 409 129<213.851 321.152> 605 106<84 466>
VStem: 26 166<130.92 208.979> 332 168<139.064 228 336 398.564>
LayerCount: 2
Fore
SplineSet
26 155 m 0xbe
 26 292 147 336 282 336 c 2
 332 336 l 1
 332 350 l 2
 332 389 313 409 267 409 c 0
 227 409 204 391 204 358 c 2
 204 345 l 1
 38 345 l 1
 38 358 l 2
 38 416 69 458 103 485 c 0
 145 518 204 538 275 538 c 0
 376 538 449 501 482 431 c 0
 494 407 500 379 500 348 c 2
 500 134 l 2
 500 88 505 54 519 25 c 1
 520 22 l 1
 520 0 l 1
 358 0 l 1x7e
 353 10 346 23 343 34 c 1
 313 7 272 -10 218 -10 c 0
 133 -10 70 32 41 89 c 0
 31 109 26 131 26 155 c 0xbe
84 605 m 1
 84 711 l 1
 466 711 l 1
 466 605 l 1
 84 605 l 1
192 166 m 0
 192 140 215 123 249 123 c 0xbe
 289 123 318 139 332 160 c 1
 332 228 l 1
 287 228 l 2
 228 228 192 210 192 166 c 0
EndSplineSet
Substitution2: "<3,3> Small Caps in Latin lookup 0 subtable" Amacron.smcp
EndChar

StartChar: Abreve
Encoding: 258 258 197
Width: 744
Flags: W
HStem: 0 21G<20 209.712 533.288 723> 146 132<300 443> 691 20G<286.293 455.736> 726 106<325.996 422.572>
VStem: 192 126<839.398 896> 430 126<839.778 896>
LayerCount: 2
Fore
SplineSet
20 0 m 1
 294 711 l 1
 448 711 l 1
 723 0 l 1
 540 0 l 1
 491 146 l 1
 252 146 l 1
 203 0 l 1
 20 0 l 1
192 884 m 2
 192 896 l 1
 318 896 l 1
 318 884 l 2
 318 848 336 832 374 832 c 0
 412 832 430 850 430 884 c 2
 430 896 l 1
 556 896 l 1
 556 884 l 2
 556 805 506 758 447 738 c 0
 425 731 400 726 374 726 c 0
 294 726 231 761 206 821 c 1
 197 840 192 861 192 884 c 2
300 278 m 1
 443 278 l 1
 371 491 l 1
 300 278 l 1
EndSplineSet
Substitution2: "<3,3> Small Caps in Latin lookup 0 subtable" Abreve.smcp
EndChar

StartChar: abreve
Encoding: 259 259 198
Width: 544
Flags: W
HStem: -10 133<197.429 310.436> 0 21G<354.5 519> 228 108<207.244 331> 409 129<212.851 320.152> 575 106<223.909 322.292>
VStem: 25 166<130.92 208.979> 93 124<691.156 745> 329 126<687.885 745> 331 168<139.064 228 336 398.564>
LayerCount: 2
Fore
SplineSet
25 155 m 0xbc
 25 292 146 336 281 336 c 2
 331 336 l 1
 331 350 l 2
 331 389 312 409 266 409 c 0
 226 409 203 391 203 358 c 2
 203 345 l 1
 37 345 l 1
 37 358 l 2
 37 416 68 458 102 485 c 0
 144 518 203 538 274 538 c 0
 375 538 448 501 481 431 c 0
 493 407 499 379 499 348 c 2
 499 134 l 2
 499 88 504 54 518 25 c 1
 519 22 l 1
 519 0 l 1
 357 0 l 1x7c80
 352 10 345 23 342 34 c 1
 312 7 271 -10 217 -10 c 0xba80
 132 -10 69 32 40 89 c 0
 30 109 25 131 25 155 c 0xbc
93 732 m 2x3b
 93 745 l 1
 217 745 l 1
 217 732 l 2
 217 696 236 681 274 681 c 0
 312 681 329 698 329 732 c 2
 329 745 l 1
 455 745 l 1
 455 732 l 2
 455 653 407 607 348 587 c 0
 326 580 300 575 274 575 c 0
 173 575 93 628 93 732 c 2x3b
191 166 m 0xbc80
 191 140 214 123 248 123 c 0
 288 123 317 139 331 160 c 1
 331 228 l 1
 286 228 l 2
 227 228 191 210 191 166 c 0xbc80
EndSplineSet
Substitution2: "<3,3> Small Caps in Latin lookup 0 subtable" Abreve.smcp
EndChar

StartChar: Aogonek
Encoding: 260 260 199
Width: 745
Flags: W
HStem: -206 113<559.5 672.86> 0 21G<21 210.712> 146 132<301 444> 691 20G<287.293 456.736>
VStem: 472 130<-129.499 -31.4984>
LayerCount: 2
Fore
SplineSet
21 0 m 1
 295 711 l 1
 449 711 l 1
 724 0 l 1
 668 0 l 1
 646 -13 630 -25 619 -36 c 0
 608 -47 602 -61 602 -74 c 0
 602 -89 606 -93 622 -93 c 0
 636 -93 645 -89 656 -84 c 2
 670 -77 l 1
 689 -179 l 1
 664 -192 638 -206 595 -206 c 0
 524 -206 472 -166 472 -92 c 0
 472 -39 498 -3 533 22 c 1
 492 146 l 1
 253 146 l 1
 204 0 l 1
 21 0 l 1
301 278 m 1
 444 278 l 1
 372 491 l 1
 301 278 l 1
EndSplineSet
Substitution2: "<3,3> Small Caps in Latin lookup 0 subtable" Aogonek.smcp
EndChar

StartChar: aogonek
Encoding: 261 261 200
Width: 547
Flags: W
HStem: -206 113<380 494.098> -10 133<199.045 312.951> 228 108<209.152 334> 409 129<213.017 322.471>
VStem: 26 166<131.749 208.979> 292 130<-129.499 -31.4313> 334 166<139.807 228 336 398.396>
LayerCount: 2
Fore
SplineSet
26 155 m 0xfc
 26 292 148 336 283 336 c 2
 334 336 l 1
 334 350 l 2
 334 389 314 409 268 409 c 0
 228 409 204 391 204 358 c 2
 204 345 l 1
 38 345 l 1
 38 358 l 2
 38 416 70 458 104 485 c 0
 146 518 205 538 276 538 c 0
 377 538 450 501 483 431 c 0
 495 407 500 379 500 348 c 2
 500 134 l 2xfa
 500 88 506 54 520 25 c 1
 522 22 l 1
 522 0 l 1
 488 0 l 1
 466 -13 450 -25 439 -36 c 0
 428 -47 422 -61 422 -74 c 0
 422 -89 427 -93 443 -93 c 0
 457 -93 466 -89 477 -84 c 2
 491 -77 l 1
 510 -179 l 1
 483 -192 458 -206 415 -206 c 0
 345 -206 292 -166 292 -92 c 0
 292 -40 317 -6 350 19 c 1
 348 25 346 30 345 34 c 1
 314 6 273 -10 219 -10 c 0
 134 -10 71 32 42 89 c 0
 32 109 26 131 26 155 c 0xfc
192 166 m 0
 192 140 216 123 250 123 c 0
 290 123 320 139 334 160 c 1
 334 228 l 1
 288 228 l 2
 229 228 192 210 192 166 c 0
EndSplineSet
Substitution2: "<3,3> Small Caps in Latin lookup 0 subtable" Aogonek.smcp
EndChar

StartChar: Cacute
Encoding: 262 262 201
Width: 665
Flags: W
HStem: -10 145<257.751 419.105> 576 145<257.449 419.466> 729 21G<243 404.841>
VStem: 28 172<201.128 504.443>
LayerCount: 2
Fore
SplineSet
28 333 m 2
 28 377 l 2
 28 533 93 648 209 697 c 0
 247 713 289 721 335 721 c 0
 514 721 615 620 633 459 c 1
 635 445 l 1
 462 445 l 1
 462 457 l 1
 457 538 421 576 335 576 c 0
 231 576 200 499 200 378 c 2
 200 333 l 2
 200 218 225 135 333 135 c 0
 419 135 456 171 461 250 c 1
 461 262 l 1
 633 262 l 1
 632 249 l 2
 623 125 554 45 454 9 c 0
 418 -4 378 -10 333 -10 c 0
 177 -10 86 77 48 192 c 1
 33 234 28 281 28 333 c 2
243 729 m 1
 356 905 l 1
 544 905 l 1
 387 729 l 1
 243 729 l 1
EndSplineSet
Substitution2: "<3,3> Small Caps in Latin lookup 0 subtable" Cacute.smcp
EndChar

StartChar: cacute
Encoding: 263 263 202
Width: 548
Flags: W
HStem: -10 139<221.577 341.692> 399 139<221.945 336.632> 730 20G<278.159 479>
VStem: 27 166<159.046 367.969> 359 156<147.086 208 307 377.5>
LayerCount: 2
Fore
SplineSet
27 257 m 2
 27 270 l 2
 27 390 80 478 171 517 c 1
 203 532 241 538 283 538 c 0
 391 538 465 488 498 410 c 0
 510 382 515 353 515 320 c 2
 515 307 l 1
 359 307 l 1
 359 320 l 2
 359 368 328 399 281 399 c 0
 211 399 193 345 193 270 c 2
 193 258 l 2
 193 182 209 129 282 129 c 0
 330 129 356 153 359 196 c 2
 359 208 l 1
 515 208 l 1
 515 196 l 2
 515 131 483 79 447 47 c 0
 409 13 352 -10 284 -10 c 0
 154 -10 74 58 43 153 c 0
 33 185 27 221 27 257 c 2
178 574 m 1
 291 750 l 1
 479 750 l 1
 322 574 l 1
 178 574 l 1
EndSplineSet
Substitution2: "<3,3> Small Caps in Latin lookup 0 subtable" Cacute.smcp
EndChar

StartChar: Ccircumflex
Encoding: 264 264 203
Width: 665
Flags: W
HStem: -10 145<257.751 419.105> 576 145<257.449 419.466> 737 21G<136 284.515 382.788 534>
VStem: 28 172<201.128 504.443>
LayerCount: 2
Fore
SplineSet
28 333 m 2
 28 377 l 2
 28 533 93 648 209 697 c 0
 247 713 289 721 335 721 c 0
 514 721 615 620 633 459 c 1
 635 445 l 1
 462 445 l 1
 462 457 l 1
 457 538 421 576 335 576 c 0
 231 576 200 499 200 378 c 2
 200 333 l 2
 200 218 225 135 333 135 c 0
 419 135 456 171 461 250 c 1
 461 262 l 1
 633 262 l 1
 632 249 l 2
 623 125 554 45 454 9 c 0
 418 -4 378 -10 333 -10 c 0
 177 -10 86 77 48 192 c 1
 33 234 28 281 28 333 c 2
136 737 m 1
 136 763 l 1
 288 905 l 1
 380 905 l 1
 534 761 l 1
 534 737 l 1
 404 737 l 1
 334 803 l 1
 263 737 l 1
 136 737 l 1
EndSplineSet
Substitution2: "<3,3> Small Caps in Latin lookup 0 subtable" Ccircumflex.smcp
EndChar

StartChar: ccircumflex
Encoding: 265 265 204
Width: 548
Flags: W
HStem: -10 139<221.577 341.692> 399 139<221.945 336.632> 730 20G<201.592 336.389>
VStem: 27 166<159.046 367.969> 359 156<147.086 208 307 377.5>
LayerCount: 2
Fore
SplineSet
27 257 m 2
 27 270 l 2
 27 390 80 478 171 517 c 1
 203 532 241 538 283 538 c 0
 391 538 465 488 498 410 c 0
 510 382 515 353 515 320 c 2
 515 307 l 1
 359 307 l 1
 359 320 l 2
 359 368 328 399 281 399 c 0
 211 399 193 345 193 270 c 2
 193 258 l 2
 193 182 209 129 282 129 c 0
 330 129 356 153 359 196 c 2
 359 208 l 1
 515 208 l 1
 515 196 l 2
 515 131 483 79 447 47 c 0
 409 13 352 -10 284 -10 c 0
 154 -10 74 58 43 153 c 0
 33 185 27 221 27 257 c 2
71 582 m 1
 71 608 l 1
 223 750 l 1
 315 750 l 1
 469 606 l 1
 469 582 l 1
 339 582 l 1
 269 648 l 1
 198 582 l 1
 71 582 l 1
EndSplineSet
Substitution2: "<3,3> Small Caps in Latin lookup 0 subtable" Ccircumflex.smcp
EndChar

StartChar: uni010A
Encoding: 266 266 205
Width: 665
Flags: W
HStem: -10 145<257.751 419.105> 576 145<257.449 419.466> 743 159<274 392.963>
VStem: 28 172<201.128 504.443> 250 168<767.545 877.305>
LayerCount: 2
Fore
SplineSet
28 333 m 2
 28 377 l 2
 28 533 93 648 209 697 c 0
 247 713 289 721 335 721 c 0
 514 721 615 620 633 459 c 1
 635 445 l 1
 462 445 l 1
 462 457 l 1
 457 538 421 576 335 576 c 0
 231 576 200 499 200 378 c 2
 200 333 l 2
 200 218 225 135 333 135 c 0
 419 135 456 171 461 250 c 1
 461 262 l 1
 633 262 l 1
 632 249 l 2
 623 125 554 45 454 9 c 0
 418 -4 378 -10 333 -10 c 0
 177 -10 86 77 48 192 c 1
 33 234 28 281 28 333 c 2
250 822 m 0
 250 871 286 902 334 902 c 0
 383 902 418 870 418 822 c 0
 418 774 383 743 334 743 c 0
 286 743 250 775 250 822 c 0
EndSplineSet
EndChar

StartChar: uni010B
Encoding: 267 267 206
Width: 549
Flags: W
HStem: -10 139<221.577 341.692> 399 139<221.945 336.632> 587 159<207.5 327.439>
VStem: 27 166<159.046 367.969> 183 170<612.524 721.305> 359 156<147.086 208 307 377.5>
LayerCount: 2
Fore
SplineSet
27 257 m 2xf4
 27 270 l 2
 27 390 80 478 171 517 c 1
 203 532 241 538 283 538 c 0
 391 538 465 488 498 410 c 0
 510 382 515 353 515 320 c 2
 515 307 l 1
 359 307 l 1
 359 320 l 2
 359 368 328 399 281 399 c 0
 211 399 193 345 193 270 c 2
 193 258 l 2
 193 182 209 129 282 129 c 0
 330 129 356 153 359 196 c 2
 359 208 l 1
 515 208 l 1
 515 196 l 2
 515 131 483 79 447 47 c 0
 409 13 352 -10 284 -10 c 0
 154 -10 74 58 43 153 c 0
 33 185 27 221 27 257 c 2xf4
183 666 m 0xec
 183 715 220 746 268 746 c 0
 317 746 353 714 353 666 c 0
 353 618 317 587 268 587 c 0
 220 587 183 619 183 666 c 0xec
EndSplineSet
EndChar

StartChar: Ccaron
Encoding: 268 268 207
Width: 665
Flags: W
HStem: -10 145<257.751 419.105> 576 145<257.449 419.466> 738 21G<262.759 404.528>
VStem: 28 172<201.128 504.443>
LayerCount: 2
Fore
SplineSet
28 333 m 2
 28 377 l 2
 28 533 93 648 209 697 c 0
 247 713 289 721 335 721 c 0
 514 721 615 620 633 459 c 1
 635 445 l 1
 462 445 l 1
 462 457 l 1
 457 538 421 576 335 576 c 0
 231 576 200 499 200 378 c 2
 200 333 l 2
 200 218 225 135 333 135 c 0
 419 135 456 171 461 250 c 1
 461 262 l 1
 633 262 l 1
 632 249 l 2
 623 125 554 45 454 9 c 0
 418 -4 378 -10 333 -10 c 0
 177 -10 86 77 48 192 c 1
 33 234 28 281 28 333 c 2
130 883 m 1
 130 905 l 1
 267 905 l 1
 334 841 l 1
 400 905 l 1
 538 905 l 1
 538 882 l 1
 383 738 l 1
 284 738 l 1
 130 883 l 1
EndSplineSet
Substitution2: "<3,3> Small Caps in Latin lookup 0 subtable" Ccaron.smcp
EndChar

StartChar: ccaron
Encoding: 269 269 208
Width: 549
Flags: W
HStem: -10 139<221.577 341.692> 399 139<221.945 336.632> 730 20G<65 222.938 314.375 473>
VStem: 27 166<159.046 367.969> 359 156<147.086 208 307 377.5>
LayerCount: 2
Fore
SplineSet
27 257 m 2
 27 270 l 2
 27 390 80 478 171 517 c 1
 203 532 241 538 283 538 c 0
 391 538 465 488 498 410 c 0
 510 382 515 353 515 320 c 2
 515 307 l 1
 359 307 l 1
 359 320 l 2
 359 368 328 399 281 399 c 0
 211 399 193 345 193 270 c 2
 193 258 l 2
 193 182 209 129 282 129 c 0
 330 129 356 153 359 196 c 2
 359 208 l 1
 515 208 l 1
 515 196 l 2
 515 131 483 79 447 47 c 0
 409 13 352 -10 284 -10 c 0
 154 -10 74 58 43 153 c 0
 33 185 27 221 27 257 c 2
65 728 m 1
 65 750 l 1
 202 750 l 1
 269 686 l 1
 335 750 l 1
 473 750 l 1
 473 727 l 1
 318 583 l 1
 219 583 l 1
 65 728 l 1
EndSplineSet
Substitution2: "<3,3> Small Caps in Latin lookup 0 subtable" Ccaron.smcp
EndChar

StartChar: Dcaron
Encoding: 270 270 209
Width: 638
Flags: W
HStem: 0 143<207 355.67> 567 144<207 352.386> 736 21G<170.621 312.667>
VStem: 35 172<143 567> 431 174<229.734 486.629>
LayerCount: 2
Fore
SplineSet
35 0 m 1
 35 711 l 1
 267 711 l 2
 430 711 533 625 580 509 c 0
 597 467 605 421 605 370 c 2
 605 340 l 2
 605 180 524 71 403 24 c 0
 361 8 315 0 266 0 c 2
 35 0 l 1
37 881 m 1
 37 903 l 1
 175 903 l 1
 242 839 l 1
 308 903 l 1
 447 903 l 1
 447 880 l 1
 291 736 l 1
 192 736 l 1
 37 881 l 1
207 143 m 1
 266 143 l 2
 382 143 431 219 431 340 c 2
 431 371 l 2
 431 493 384 567 267 567 c 2
 207 567 l 1
 207 143 l 1
EndSplineSet
Substitution2: "<3,3> Small Caps in Latin lookup 0 subtable" Dcaron.smcp
EndChar

StartChar: dcaron
Encoding: 271 271 210
Width: 761
Flags: W
HStem: -10 139<225.098 335.331> 0 21G<375.5 528> 398 140<225.611 336.119> 730 20G<362 528 600 736>
VStem: 28 166<163.517 363.472> 362 166<145.902 381.533 498 750> 600 136<569.49 750>
LayerCount: 2
Fore
SplineSet
28 258 m 2xbe
 28 267 l 2
 28 383 69 476 154 517 c 0
 182 531 212 538 247 538 c 0
 297 538 334 522 362 498 c 1
 362 750 l 1
 528 750 l 1
 528 0 l 1
 378 0 l 1x7e
 373 40 l 1
 342 10 302 -10 246 -10 c 0
 171 -10 118 24 84 67 c 0
 48 114 28 181 28 258 c 2xbe
194 258 m 2
 194 185 215 129 282 129 c 0xbe
 324 129 348 146 362 171 c 1
 362 356 l 1
 347 382 325 398 283 398 c 0
 215 398 194 341 194 268 c 2
 194 258 l 2
551 514 m 1
 557 525 l 1
 580 563 600 603 600 662 c 2
 600 750 l 1
 736 750 l 1
 736 662 l 2
 736 621 723 587 709 558 c 0
 693 525 669 494 643 471 c 2
 637 465 l 1
 551 514 l 1
EndSplineSet
Substitution2: "<3,3> Small Caps in Latin lookup 0 subtable" Dcaron.smcp
EndChar

StartChar: Dcroat
Encoding: 272 272 211
Width: 701
Flags: W
HStem: 0 143<270 417.062> 300 116<26 98 270 392> 567 144<270 415.471>
VStem: 98 172<143 300 416 567> 494 174<230.156 486.189>
LayerCount: 2
Fore
SplineSet
26 300 m 1
 26 416 l 1
 98 416 l 1
 98 711 l 1
 330 711 l 2
 493 711 597 625 643 509 c 0
 660 467 668 421 668 370 c 2
 668 340 l 2
 668 181 586 71 466 24 c 0
 424 8 378 0 328 0 c 2
 98 0 l 1
 98 300 l 1
 26 300 l 1
270 143 m 1
 328 143 l 2
 444 143 494 219 494 340 c 2
 494 371 l 2
 494 492 446 567 330 567 c 2
 270 567 l 1
 270 416 l 1
 392 416 l 1
 392 300 l 1
 270 300 l 1
 270 143 l 1
EndSplineSet
Substitution2: "<3,3> Small Caps in Latin lookup 0 subtable" Dcroat.smcp
EndChar

StartChar: dcroat
Encoding: 273 273 212
Width: 630
Flags: W
HStem: -10 139<224.94 335.605> 0 21G<375.5 529> 398 140<224.618 336.808> 570 115<239 363 529 605> 730 20G<363 529>
VStem: 27 166<163.984 362.54> 363 166<145.902 381.533 498 570 685 750>
LayerCount: 2
Fore
SplineSet
27 258 m 2xbe
 27 267 l 2
 27 383 68 476 153 517 c 0
 181 531 212 538 247 538 c 0
 297 538 335 522 363 498 c 1
 363 570 l 1
 239 570 l 1
 239 685 l 1
 363 685 l 1
 363 750 l 1
 529 750 l 1
 529 685 l 1
 605 685 l 1
 605 570 l 1
 529 570 l 1
 529 0 l 1
 378 0 l 1x7e
 373 40 l 1
 342 10 302 -10 246 -10 c 0
 171 -10 118 24 84 67 c 0
 48 114 27 181 27 258 c 2xbe
193 258 m 2
 193 185 215 129 282 129 c 0xbe
 324 129 349 146 363 171 c 1
 363 356 l 1
 348 382 325 398 283 398 c 0
 215 398 193 341 193 268 c 2
 193 258 l 2
EndSplineSet
Substitution2: "<3,3> Small Caps in Latin lookup 0 subtable" Dcroat.smcp
EndChar

StartChar: Emacron
Encoding: 274 274 213
Width: 568
Flags: W
HStem: 0 143<207 537> 296 140<207 489> 567 144<207 537> 757 106<105 487>
VStem: 35 172<143 296 436 567>
LayerCount: 2
Fore
SplineSet
35 0 m 1
 35 711 l 1
 537 711 l 1
 537 567 l 1
 207 567 l 1
 207 436 l 1
 489 436 l 1
 489 296 l 1
 207 296 l 1
 207 143 l 1
 537 143 l 1
 537 0 l 1
 35 0 l 1
105 757 m 1
 105 863 l 1
 487 863 l 1
 487 757 l 1
 105 757 l 1
EndSplineSet
Substitution2: "<3,3> Small Caps in Latin lookup 0 subtable" Emacron.smcp
EndChar

StartChar: emacron
Encoding: 275 275 214
Width: 566
Flags: W
HStem: -10 139<236.538 393.315> 206 108<200 368> 399 139<228.991 345.953> 605 106<81 463>
LayerCount: 2
Fore
SplineSet
27 246 m 2
 27 264 l 2
 27 387 87 478 180 517 c 0
 212 531 247 538 287 538 c 0
 451 538 533 430 533 275 c 2
 533 206 l 1
 198 206 l 1
 210 159 247 129 312 129 c 0
 368 129 404 150 429 183 c 2
 438 195 l 1
 524 98 l 1
 518 90 l 2
 475 31 404 -10 302 -10 c 0
 170 -10 83 55 46 147 c 0
 33 178 27 211 27 246 c 2
81 605 m 1
 81 711 l 1
 463 711 l 1
 463 605 l 1
 81 605 l 1
200 314 m 1
 368 314 l 1
 368 369 340 399 286 399 c 0
 233 399 209 364 200 314 c 1
EndSplineSet
Substitution2: "<3,3> Small Caps in Latin lookup 0 subtable" Emacron.smcp
EndChar

StartChar: Ebreve
Encoding: 276 276 215
Width: 568
Flags: W
HStem: 0 143<207 537> 296 140<207 489> 567 144<207 537> 728 106<245.948 344.22>
VStem: 35 172<143 296 436 567> 115 124<841.563 898> 351 126<841.778 898>
LayerCount: 2
Fore
SplineSet
35 0 m 1xfa
 35 711 l 1
 537 711 l 1
 537 567 l 1
 207 567 l 1
 207 436 l 1
 489 436 l 1
 489 296 l 1
 207 296 l 1
 207 143 l 1
 537 143 l 1
 537 0 l 1
 35 0 l 1xfa
115 886 m 2xf6
 115 898 l 1
 239 898 l 1
 239 886 l 2
 239 850 258 834 296 834 c 0
 334 834 351 852 351 886 c 2
 351 898 l 1
 477 898 l 1
 477 886 l 2
 477 807 428 760 369 740 c 0
 347 733 322 728 296 728 c 0
 216 728 153 763 128 823 c 1
 119 842 115 863 115 886 c 2xf6
EndSplineSet
Substitution2: "<3,3> Small Caps in Latin lookup 0 subtable" Ebreve.smcp
EndChar

StartChar: ebreve
Encoding: 277 277 216
Width: 566
Flags: W
HStem: -10 139<236.538 393.315> 206 108<200 368> 399 139<228.991 345.953> 575 106<221.233 320.228>
LayerCount: 2
Fore
SplineSet
27 246 m 2
 27 264 l 2
 27 387 87 478 180 517 c 0
 212 531 247 538 287 538 c 0
 451 538 533 430 533 275 c 2
 533 206 l 1
 198 206 l 1
 210 159 247 129 312 129 c 0
 368 129 404 150 429 183 c 2
 438 195 l 1
 524 98 l 1
 518 90 l 2
 475 31 404 -10 302 -10 c 0
 170 -10 83 55 46 147 c 0
 33 178 27 211 27 246 c 2
89 732 m 2
 89 745 l 1
 215 745 l 1
 215 732 l 2
 215 696 233 681 271 681 c 0
 309 681 327 698 327 732 c 2
 327 745 l 1
 453 745 l 1
 453 732 l 2
 453 653 404 607 345 587 c 0
 323 580 297 575 271 575 c 0
 170 575 89 628 89 732 c 2
200 314 m 1
 368 314 l 1
 368 369 340 399 286 399 c 0
 233 399 209 364 200 314 c 1
EndSplineSet
Substitution2: "<3,3> Small Caps in Latin lookup 0 subtable" Ebreve.smcp
EndChar

StartChar: Edotaccent
Encoding: 278 278 217
Width: 568
Flags: W
HStem: 0 143<207 537> 296 140<207 489> 567 144<207 537> 740 159<236.424 353.963>
VStem: 35 172<143 296 436 567> 211 168<765.092 874.852>
LayerCount: 2
Fore
SplineSet
35 0 m 1
 35 711 l 1
 537 711 l 1
 537 567 l 1
 207 567 l 1
 207 436 l 1
 489 436 l 1
 489 296 l 1
 207 296 l 1
 207 143 l 1
 537 143 l 1
 537 0 l 1
 35 0 l 1
211 820 m 0
 211 869 247 899 295 899 c 0
 344 899 379 868 379 820 c 0
 379 772 344 740 295 740 c 0
 247 740 211 773 211 820 c 0
EndSplineSet
Substitution2: "<3,3> Small Caps in Latin lookup 0 subtable" Edotaccent.smcp
EndChar

StartChar: edotaccent
Encoding: 279 279 218
Width: 566
Flags: W
HStem: -10 139<236.538 393.315> 206 108<200 368> 399 139<228.991 345.953> 587 159<209.5 329.439>
VStem: 185 170<612.524 721.305>
LayerCount: 2
Fore
SplineSet
27 246 m 2
 27 264 l 2
 27 387 87 478 180 517 c 0
 212 531 247 538 287 538 c 0
 451 538 533 430 533 275 c 2
 533 206 l 1
 198 206 l 1
 210 159 247 129 312 129 c 0
 368 129 404 150 429 183 c 2
 438 195 l 1
 524 98 l 1
 518 90 l 2
 475 31 404 -10 302 -10 c 0
 170 -10 83 55 46 147 c 0
 33 178 27 211 27 246 c 2
185 666 m 0
 185 715 222 746 270 746 c 0
 319 746 355 714 355 666 c 0
 355 618 319 587 270 587 c 0
 222 587 185 619 185 666 c 0
200 314 m 1
 368 314 l 1
 368 369 340 399 286 399 c 0
 233 399 209 364 200 314 c 1
EndSplineSet
Substitution2: "<3,3> Small Caps in Latin lookup 0 subtable" Edotaccent.smcp
EndChar

StartChar: Eogonek
Encoding: 280 280 219
Width: 568
Flags: W
HStem: -206 113<345.5 458.86> 0 143<207 293 421.05 537> 296 140<207 489> 567 144<207 537>
VStem: 35 172<143 296 436 567> 257 132<-129.499 -29.9919>
LayerCount: 2
Fore
SplineSet
35 0 m 1
 35 711 l 1
 537 711 l 1
 537 567 l 1
 207 567 l 1
 207 436 l 1
 489 436 l 1
 489 296 l 1
 207 296 l 1
 207 143 l 1
 537 143 l 1
 537 0 l 1
 454 0 l 1
 432 -13 415 -25 404 -36 c 0
 393 -47 389 -60 389 -74 c 0
 389 -89 392 -93 408 -93 c 0
 422 -93 431 -89 442 -84 c 2
 456 -77 l 1
 475 -179 l 1
 450 -192 424 -206 381 -206 c 0
 310 -206 257 -166 257 -92 c 0
 257 -53 272 -23 293 0 c 1
 35 0 l 1
EndSplineSet
Substitution2: "<3,3> Small Caps in Latin lookup 0 subtable" Eogonek.smcp
EndChar

StartChar: eogonek
Encoding: 281 281 220
Width: 566
Flags: W
HStem: -191 113<317 431.098> 206 108<200 368> 399 139<228.729 345.932>
VStem: 228 132<-113.998 -16.2696>
LayerCount: 2
Fore
SplineSet
28 246 m 2
 28 265 l 2
 28 388 86 478 179 517 c 0
 211 531 247 538 287 538 c 0
 451 538 532 430 532 275 c 2
 532 206 l 1
 198 206 l 1
 210 154 247 121 312 121 c 0
 368 121 404 141 429 172 c 2
 438 184 l 1
 524 92 l 1
 499 58 471 33 428 14 c 1
 404 1 388 -10 376 -21 c 0
 365 -32 360 -45 360 -58 c 0
 360 -73 364 -78 380 -78 c 0
 394 -78 403 -74 414 -69 c 2
 428 -62 l 1
 447 -163 l 1
 420 -176 395 -191 352 -191 c 0
 282 -191 228 -150 228 -76 c 0
 228 -47 237 -23 249 -5 c 1
 146 11 73 70 43 153 c 0
 32 182 28 213 28 246 c 2
200 314 m 1
 368 314 l 1
 368 369 340 399 286 399 c 0
 233 399 209 364 200 314 c 1
EndSplineSet
Substitution2: "<3,3> Small Caps in Latin lookup 0 subtable" Eogonek.smcp
EndChar

StartChar: Ecaron
Encoding: 282 282 221
Width: 568
Flags: W
HStem: 0 143<207 537> 296 140<207 489> 567 144<207 537> 736 21G<223.759 365.528>
VStem: 35 172<143 296 436 567>
LayerCount: 2
Fore
SplineSet
35 0 m 1
 35 711 l 1
 537 711 l 1
 537 567 l 1
 207 567 l 1
 207 436 l 1
 489 436 l 1
 489 296 l 1
 207 296 l 1
 207 143 l 1
 537 143 l 1
 537 0 l 1
 35 0 l 1
91 881 m 1
 91 903 l 1
 228 903 l 1
 295 839 l 1
 361 903 l 1
 499 903 l 1
 499 880 l 1
 344 736 l 1
 245 736 l 1
 91 881 l 1
EndSplineSet
Substitution2: "<3,3> Small Caps in Latin lookup 0 subtable" Ecaron.smcp
EndChar

StartChar: ecaron
Encoding: 283 283 222
Width: 566
Flags: W
HStem: -10 139<236.538 393.315> 206 108<200 368> 399 139<228.991 345.953> 730 20G<67 224.938 316.375 475>
LayerCount: 2
Fore
SplineSet
27 246 m 2
 27 264 l 2
 27 387 87 478 180 517 c 0
 212 531 247 538 287 538 c 0
 451 538 533 430 533 275 c 2
 533 206 l 1
 198 206 l 1
 210 159 247 129 312 129 c 0
 368 129 404 150 429 183 c 2
 438 195 l 1
 524 98 l 1
 518 90 l 2
 475 31 404 -10 302 -10 c 0
 170 -10 83 55 46 147 c 0
 33 178 27 211 27 246 c 2
67 728 m 1
 67 750 l 1
 204 750 l 1
 271 686 l 1
 337 750 l 1
 475 750 l 1
 475 727 l 1
 320 583 l 1
 221 583 l 1
 67 728 l 1
200 314 m 1
 368 314 l 1
 368 369 340 399 286 399 c 0
 233 399 209 364 200 314 c 1
EndSplineSet
Substitution2: "<3,3> Small Caps in Latin lookup 0 subtable" Ecaron.smcp
EndChar

StartChar: Gcircumflex
Encoding: 284 284 223
Width: 670
Flags: W
HStem: -10 143<272.67 453.709> 254 132<328 460> 578 143<265.563 418.02> 737 21G<136 284.515 382.788 534>
VStem: 28 174<213.087 504.282> 460 172<145.653 254>
LayerCount: 2
Fore
SplineSet
28 335 m 2
 28 375 l 2
 28 535 90 649 210 698 c 0
 249 713 291 721 338 721 c 0
 514 721 613 632 632 474 c 2
 634 460 l 1
 466 460 l 1
 465 471 l 2
 455 539 420 578 342 578 c 0
 237 578 202 496 202 376 c 2
 202 335 l 2
 202 212 243 133 356 133 c 0
 401 133 443 142 460 158 c 1
 460 254 l 1
 328 254 l 1
 328 386 l 1
 632 386 l 1
 632 95 l 1
 629 91 l 1
 571 25 473 -10 348 -10 c 0
 190 -10 91 74 50 190 c 1
 34 232 28 281 28 335 c 2
136 737 m 1
 136 763 l 1
 288 905 l 1
 380 905 l 1
 534 761 l 1
 534 737 l 1
 404 737 l 1
 334 803 l 1
 263 737 l 1
 136 737 l 1
EndSplineSet
Substitution2: "<3,3> Small Caps in Latin lookup 0 subtable" Gcircumflex.smcp
EndChar

StartChar: gcircumflex
Encoding: 285 285 224
Width: 574
Flags: W
HStem: -208 135<182.3 334.835> -26 20G<118.607 143> -10 139<229.14 343.221> 398 140<229.153 347.387> 508 20G<381.647 535> 730 20G<209.592 344.389>
VStem: 27 166<169.054 358.157> 369 166<-37.1458 28 144.625 383.498>
LayerCount: 2
Fore
SplineSet
27 258 m 2xa7
 27 267 l 2
 27 385 71 476 158 517 c 0
 186 531 219 538 254 538 c 0xb7
 309 538 351 520 380 494 c 1
 384 528 l 1
 535 528 l 1
 535 23 l 2
 535 -92 467 -164 376 -192 c 0
 344 -202 307 -208 269 -208 c 0
 180 -208 105 -172 62 -120 c 2
 56 -113 l 1
 133 -6 l 1xcf
 143 -18 l 2
 170 -49 208 -73 262 -73 c 0
 330 -73 367 -38 368 28 c 1
 339 5 301 -10 253 -10 c 0
 177 -10 122 25 87 67 c 0
 49 113 27 180 27 258 c 2xa7
79 582 m 1
 79 608 l 1
 231 750 l 1
 323 750 l 1
 477 606 l 1
 477 582 l 1
 347 582 l 1
 277 648 l 1
 206 582 l 1
 79 582 l 1
193 258 m 2
 193 200 211 157 246 138 c 0
 258 132 272 129 289 129 c 0
 330 129 354 144 369 166 c 1
 369 362 l 1
 353 385 330 398 290 398 c 0
 220 398 193 341 193 268 c 2
 193 258 l 2
EndSplineSet
Substitution2: "<3,3> Small Caps in Latin lookup 0 subtable" Gcircumflex.smcp
EndChar

StartChar: Gbreve
Encoding: 286 286 225
Width: 670
Flags: W
HStem: -10 143<272.67 453.709> 254 132<328 460> 578 143<265.563 418.02> 730 106<286.408 382.925>
VStem: 28 174<213.087 504.282> 152 126<843.261 900> 390 126<843.778 900> 460 172<145.653 254>
LayerCount: 2
Fore
SplineSet
28 335 m 2xf9
 28 375 l 2
 28 535 90 649 210 698 c 0
 249 713 291 721 338 721 c 0
 514 721 613 632 632 474 c 2
 634 460 l 1
 466 460 l 1
 465 471 l 2
 455 539 420 578 342 578 c 0
 237 578 202 496 202 376 c 2
 202 335 l 2
 202 212 243 133 356 133 c 0
 401 133 443 142 460 158 c 1
 460 254 l 1
 328 254 l 1
 328 386 l 1
 632 386 l 1
 632 95 l 1
 629 91 l 1
 571 25 473 -10 348 -10 c 0
 190 -10 91 74 50 190 c 1
 34 232 28 281 28 335 c 2xf9
152 888 m 2xf6
 152 900 l 1
 278 900 l 1
 278 888 l 2
 278 852 296 836 334 836 c 0
 372 836 390 854 390 888 c 2
 390 900 l 1
 516 900 l 1
 516 888 l 2
 516 809 467 762 408 742 c 0
 386 735 360 730 334 730 c 0
 233 730 152 785 152 888 c 2xf6
EndSplineSet
Substitution2: "<3,3> Small Caps in Latin lookup 0 subtable" Gbreve.smcp
EndChar

StartChar: gbreve
Encoding: 287 287 226
Width: 574
Flags: W
HStem: -208 135<182.3 334.835> -26 20G<118.607 143> -10 139<229.14 343.221> 398 140<229.153 347.387> 508 20G<381.647 535> 575 106<227.311 326.434>
VStem: 27 166<169.054 358.157> 95 126<687.842 745> 369 166<-37.1458 28 144.625 383.498>
LayerCount: 2
Fore
SplineSet
27 258 m 2xa680
 27 267 l 2
 27 385 71 476 158 517 c 0
 186 531 219 538 254 538 c 0xb680
 309 538 351 520 380 494 c 1
 384 528 l 1
 535 528 l 1
 535 23 l 2
 535 -92 467 -164 376 -192 c 0
 344 -202 307 -208 269 -208 c 0
 180 -208 105 -172 62 -120 c 2
 56 -113 l 1
 133 -6 l 1xce80
 143 -18 l 2
 170 -49 208 -73 262 -73 c 0
 330 -73 367 -38 368 28 c 1
 339 5 301 -10 253 -10 c 0
 177 -10 122 25 87 67 c 0
 49 113 27 180 27 258 c 2xa680
95 732 m 2x8580
 95 745 l 1
 221 745 l 1
 221 732 l 2
 221 696 239 681 277 681 c 0
 315 681 333 698 333 732 c 2
 333 745 l 1
 459 745 l 1
 459 732 l 2
 459 653 409 607 350 587 c 0
 328 580 303 575 277 575 c 0
 197 575 134 609 109 669 c 0
 100 689 95 709 95 732 c 2x8580
193 258 m 2xb680
 193 200 211 157 246 138 c 0
 258 132 272 129 289 129 c 0
 330 129 354 144 369 166 c 1
 369 362 l 1
 353 385 330 398 290 398 c 0
 220 398 193 341 193 268 c 2
 193 258 l 2xb680
EndSplineSet
Substitution2: "<3,3> Small Caps in Latin lookup 0 subtable" Gbreve.smcp
EndChar

StartChar: uni0120
Encoding: 288 288 227
Width: 670
Flags: W
HStem: -10 143<272.67 453.709> 254 132<328 460> 578 143<265.563 418.02> 743 159<272.5 392.439>
VStem: 28 174<213.087 504.282> 248 170<768.524 877.305> 460 172<145.653 254>
LayerCount: 2
Fore
SplineSet
28 335 m 2
 28 375 l 2
 28 535 90 649 210 698 c 0
 249 713 291 721 338 721 c 0
 514 721 613 632 632 474 c 2
 634 460 l 1
 466 460 l 1
 465 471 l 2
 455 539 420 578 342 578 c 0
 237 578 202 496 202 376 c 2
 202 335 l 2
 202 212 243 133 356 133 c 0
 401 133 443 142 460 158 c 1
 460 254 l 1
 328 254 l 1
 328 386 l 1
 632 386 l 1
 632 95 l 1
 629 91 l 1
 571 25 473 -10 348 -10 c 0
 190 -10 91 74 50 190 c 1
 34 232 28 281 28 335 c 2
248 822 m 0
 248 871 285 902 333 902 c 0
 382 902 418 870 418 822 c 0
 418 774 382 743 333 743 c 0
 285 743 248 775 248 822 c 0
EndSplineSet
EndChar

StartChar: uni0121
Encoding: 289 289 228
Width: 574
Flags: W
HStem: -208 135<182.3 334.835> -26 20G<118.607 143> -10 139<229.14 343.221> 398 140<229.153 347.387> 508 20G<381.647 535> 587 159<215.5 335.439>
VStem: 27 166<169.054 358.157> 191 170<612.524 721.305> 369 166<-37.1458 28 144.625 383.498>
LayerCount: 2
Fore
SplineSet
27 258 m 2xa680
 27 267 l 2
 27 385 71 476 158 517 c 0
 186 531 219 538 254 538 c 0xb680
 309 538 351 520 380 494 c 1
 384 528 l 1
 535 528 l 1
 535 23 l 2
 535 -92 467 -164 376 -192 c 0
 344 -202 307 -208 269 -208 c 0
 180 -208 105 -172 62 -120 c 2
 56 -113 l 1
 133 -6 l 1xce80
 143 -18 l 2
 170 -49 208 -73 262 -73 c 0
 330 -73 367 -38 368 28 c 1
 339 5 301 -10 253 -10 c 0
 177 -10 122 25 87 67 c 0
 49 113 27 180 27 258 c 2xa680
191 666 m 0x8580
 191 715 228 746 276 746 c 0
 325 746 361 714 361 666 c 0
 361 618 325 587 276 587 c 0
 228 587 191 619 191 666 c 0x8580
193 258 m 2xb680
 193 200 211 157 246 138 c 0
 258 132 272 129 289 129 c 0
 330 129 354 144 369 166 c 1
 369 362 l 1
 353 385 330 398 290 398 c 0
 220 398 193 341 193 268 c 2
 193 258 l 2xb680
EndSplineSet
EndChar

StartChar: Gcedilla
Encoding: 290 290 229
Width: 670
Flags: W
HStem: -10 143<272.67 453.709> 254 132<328 460> 578 143<265.563 418.02>
VStem: 28 174<213.087 504.282> 276 130<-168.042 -21> 460 172<145.653 254>
LayerCount: 2
Fore
SplineSet
28 335 m 2
 28 375 l 2
 28 535 90 649 210 698 c 0
 249 713 291 721 338 721 c 0
 514 721 613 632 632 474 c 2
 634 460 l 1
 466 460 l 1
 465 471 l 2
 455 539 420 578 342 578 c 0
 237 578 202 496 202 376 c 2
 202 335 l 2
 202 212 243 133 356 133 c 0
 401 133 443 142 460 158 c 1
 460 254 l 1
 328 254 l 1
 328 386 l 1
 632 386 l 1
 632 95 l 1
 629 91 l 1
 571 25 473 -10 348 -10 c 0
 190 -10 91 74 50 190 c 1
 34 232 28 281 28 335 c 2
234 -206 m 1
 241 -195 l 2
 261 -162 276 -129 276 -76 c 2
 276 -21 l 1
 406 -21 l 1
 406 -68 l 2
 406 -126 384 -176 361 -212 c 0
 349 -230 338 -242 324 -256 c 1
 234 -206 l 1
EndSplineSet
Substitution2: "<3,3> Small Caps in Latin lookup 0 subtable" Gcommaaccent.smcp
EndChar

StartChar: gcedilla
Encoding: 291 291 230
Width: 574
Flags: W
HStem: -208 135<182.3 334.835> -26 20G<118.607 143> -10 139<229.14 343.221> 398 140<229.153 347.387> 508 20G<381.647 535>
VStem: 27 166<169.054 358.157> 207 134<590 761.6> 369 166<-37.1458 28 144.625 383.498>
LayerCount: 2
Fore
SplineSet
27 258 m 2xa7
 27 267 l 2
 27 385 71 476 158 517 c 0
 186 531 219 538 254 538 c 0xb7
 309 538 351 520 380 494 c 1
 384 528 l 1
 535 528 l 1
 535 23 l 2
 535 -92 467 -164 376 -192 c 0
 344 -202 307 -208 269 -208 c 0
 180 -208 105 -172 62 -120 c 2
 56 -113 l 1
 133 -6 l 1xcf
 143 -18 l 2
 170 -49 208 -73 262 -73 c 0
 330 -73 367 -38 368 28 c 1
 339 5 301 -10 253 -10 c 0
 177 -10 122 25 87 67 c 0
 49 113 27 180 27 258 c 2xa7
193 258 m 2
 193 200 211 157 246 138 c 0
 258 132 272 129 289 129 c 0
 330 129 354 144 369 166 c 1
 369 362 l 1
 353 385 330 398 290 398 c 0
 220 398 193 341 193 268 c 2
 193 258 l 2
207 590 m 1
 207 670 l 2
 207 747 239 810 288 842 c 1
 379 795 l 1
 373 783 l 2
 356 754 341 712 341 664 c 2
 341 590 l 1
 207 590 l 1
EndSplineSet
Substitution2: "<3,3> Small Caps in Latin lookup 0 subtable" Gcommaaccent.smcp
EndChar

StartChar: Hcircumflex
Encoding: 292 292 231
Width: 679
Flags: W
HStem: 0 21G<35 207 469 639> 292 144<207 469> 691 20G<35 207 469 639> 735 21G<139 288.515 386.788 537>
VStem: 35 172<0 292 436 711> 469 170<0 292 436 711>
LayerCount: 2
Fore
SplineSet
35 0 m 1
 35 711 l 1
 207 711 l 1
 207 436 l 1
 469 436 l 1
 469 711 l 1
 639 711 l 1
 639 0 l 1
 469 0 l 1
 469 292 l 1
 207 292 l 1
 207 0 l 1
 35 0 l 1
139 735 m 1
 139 761 l 1
 292 903 l 1
 384 903 l 1
 537 759 l 1
 537 735 l 1
 408 735 l 1
 338 801 l 1
 267 735 l 1
 139 735 l 1
EndSplineSet
Substitution2: "<3,3> Small Caps in Latin lookup 0 subtable" Hcircumflex.smcp
EndChar

StartChar: hcircumflex
Encoding: 293 293 232
Width: 554
Flags: W
HStem: 0 21G<35 201 351 517> 398 140<238.789 338.107> 730 20G<35 201>
VStem: 35 166<0 383.1 490 750> 351 166<0 385.361>
LayerCount: 2
Fore
SplineSet
35 0 m 1
 35 750 l 1
 201 750 l 1
 201 490 l 1
 233 519 275 538 330 538 c 0
 463 538 517 455 517 330 c 2
 517 0 l 1
 351 0 l 1
 351 326 l 2
 351 379 333 398 279 398 c 0
 239 398 216 383 201 361 c 1
 201 0 l 1
 35 0 l 1
55 768 m 1
 55 794 l 1
 207 936 l 1
 299 936 l 1
 453 792 l 1
 453 768 l 1
 323 768 l 1
 253 834 l 1
 182 768 l 1
 55 768 l 1
EndSplineSet
Substitution2: "<3,3> Small Caps in Latin lookup 0 subtable" Hcircumflex.smcp
EndChar

StartChar: Hbar
Encoding: 294 294 233
Width: 767
Flags: W
HStem: 0 21G<79 251 511 683> 292 144<251 511> 496 106<23 79 251 511 683 741> 691 20G<79 251 511 683>
VStem: 79 172<0 292 436 496 602 711> 511 172<0 292 436 496 602 711>
LayerCount: 2
Fore
SplineSet
23 496 m 1
 23 602 l 1
 79 602 l 1
 79 711 l 1
 251 711 l 1
 251 598 l 1
 511 598 l 1
 511 711 l 1
 683 711 l 1
 683 602 l 1
 741 602 l 1
 741 496 l 1
 683 496 l 1
 683 0 l 1
 511 0 l 1
 511 292 l 1
 251 292 l 1
 251 0 l 1
 79 0 l 1
 79 496 l 1
 23 496 l 1
251 436 m 1
 511 436 l 1
 511 500 l 1
 251 500 l 1
 251 436 l 1
EndSplineSet
EndChar

StartChar: hbar
Encoding: 295 295 234
Width: 616
Flags: W
HStem: 0 21G<97 265 413 579> 398 140<302.711 400.738> 569 114<21 97 265 387> 730 20G<97 265>
VStem: 97 168<0 383.81 490 569 683 750> 413 166<0 385.361>
LayerCount: 2
Fore
SplineSet
21 569 m 1
 21 683 l 1
 97 683 l 1
 97 750 l 1
 265 750 l 1
 265 683 l 1
 387 683 l 1
 387 569 l 1
 265 569 l 1
 265 490 l 1
 297 519 338 538 393 538 c 0
 525 538 579 455 579 330 c 2
 579 0 l 1
 413 0 l 1
 413 326 l 2
 413 379 396 398 341 398 c 0
 302 398 279 383 265 361 c 1
 265 0 l 1
 97 0 l 1
 97 569 l 1
 21 569 l 1
EndSplineSet
EndChar

StartChar: Itilde
Encoding: 296 296 235
Width: 430
Flags: W
HStem: 0 21G<128 300> 691 20G<128 300> 741 114<211.617 302.134> 783 114<125.608 213.269>
VStem: 128 172<0 711> 304 106<856.132 895>
LayerCount: 2
Fore
SplineSet
18 742 m 1xdc
 18 754 l 2
 18 815 47 863 90 885 c 0
 106 893 123 897 140 897 c 0xdc
 203 897 228 855 274 855 c 0
 292 855 304 868 304 890 c 2
 304 903 l 1
 410 895 l 1
 410 884 l 2
 410 822 379 774 337 752 c 0
 322 744 305 741 287 741 c 0xec
 238 741 210 765 182 778 c 0
 173 782 165 783 153 783 c 0
 135 783 124 770 124 748 c 2
 124 735 l 1
 18 742 l 1xdc
128 0 m 1
 128 711 l 1
 300 711 l 1
 300 0 l 1
 128 0 l 1
EndSplineSet
Substitution2: "<3,3> Small Caps in Latin lookup 0 subtable" Itilde.smcp
EndChar

StartChar: itilde
Encoding: 297 297 236
Width: 436
Flags: W
HStem: 0 21G<133 299> 508 20G<133 299> 581 114<213.347 305.134> 623 114<128.704 216.134>
VStem: 133 166<0 528> 307 106<696.132 735>
LayerCount: 2
Fore
SplineSet
21 582 m 1xdc
 21 594 l 2
 21 655 52 703 94 725 c 0
 110 733 126 737 143 737 c 0xdc
 175 737 198 724 217 715 c 0
 237 705 255 695 277 695 c 0
 295 695 307 708 307 730 c 2
 307 743 l 1
 413 735 l 1
 413 724 l 2
 413 662 382 614 340 592 c 0
 325 584 308 581 290 581 c 0xec
 241 581 213 605 185 618 c 0
 176 622 168 623 156 623 c 0
 138 623 127 610 127 588 c 2
 127 575 l 1
 21 582 l 1xdc
133 0 m 1
 133 528 l 1
 299 528 l 1
 299 0 l 1
 133 0 l 1
EndSplineSet
Substitution2: "<3,3> Small Caps in Latin lookup 0 subtable" Itilde.smcp
EndChar

StartChar: Imacron
Encoding: 298 298 237
Width: 420
Flags: W
HStem: 0 21G<122 294> 691 20G<122 294> 757 106<18 400>
VStem: 122 172<0 711>
LayerCount: 2
Fore
SplineSet
18 757 m 1
 18 863 l 1
 400 863 l 1
 400 757 l 1
 18 757 l 1
122 0 m 1
 122 711 l 1
 294 711 l 1
 294 0 l 1
 122 0 l 1
EndSplineSet
Substitution2: "<3,3> Small Caps in Latin lookup 0 subtable" Imacron.smcp
EndChar

StartChar: imacron
Encoding: 299 299 238
Width: 429
Flags: W
HStem: 0 21G<126 294> 508 20G<126 294> 597 106<22 404>
VStem: 126 168<0 528>
LayerCount: 2
Fore
SplineSet
22 597 m 1
 22 703 l 1
 404 703 l 1
 404 597 l 1
 22 597 l 1
126 0 m 1
 126 528 l 1
 294 528 l 1
 294 0 l 1
 126 0 l 1
EndSplineSet
Substitution2: "<3,3> Small Caps in Latin lookup 0 subtable" Imacron.smcp
EndChar

StartChar: Ibreve
Encoding: 300 300 239
Width: 400
Flags: W
HStem: 0 21G<112 284> 691 20G<112 284> 728 106<148.948 247.22>
VStem: 18 124<841.563 898> 112 172<0 711> 254 126<841.778 898>
LayerCount: 2
Fore
SplineSet
18 886 m 2xf4
 18 898 l 1
 142 898 l 1
 142 886 l 2
 142 850 161 834 199 834 c 0
 237 834 254 852 254 886 c 2
 254 898 l 1
 380 898 l 1
 380 886 l 2
 380 807 331 760 272 740 c 0
 250 733 225 728 199 728 c 0
 119 728 56 763 31 823 c 1
 22 842 18 863 18 886 c 2xf4
112 0 m 1xe8
 112 711 l 1
 284 711 l 1
 284 0 l 1
 112 0 l 1xe8
EndSplineSet
Substitution2: "<3,3> Small Caps in Latin lookup 0 subtable" Ibreve.smcp
EndChar

StartChar: ibreve
Encoding: 301 301 240
Width: 405
Flags: W
HStem: 0 21G<117 283> 508 20G<117 283> 568 106<151.909 250.001> 718 20G<21 145 257 383>
VStem: 117 166<0 528> 257 126<681.778 738>
LayerCount: 2
Fore
SplineSet
21 726 m 2xf4
 21 738 l 1
 145 738 l 1
 145 726 l 2
 145 690 164 674 202 674 c 0
 240 674 257 692 257 726 c 2
 257 738 l 1
 383 738 l 1
 383 726 l 2
 383 647 335 600 276 580 c 0
 254 573 228 568 202 568 c 0
 101 568 21 622 21 726 c 2xf4
117 0 m 1xf8
 117 528 l 1
 283 528 l 1
 283 0 l 1
 117 0 l 1xf8
EndSplineSet
Substitution2: "<3,3> Small Caps in Latin lookup 0 subtable" Ibreve.smcp
EndChar

StartChar: Iogonek
Encoding: 302 302 241
Width: 292
Flags: W
HStem: -206 113<106 220.098> 691 20G<82 252>
VStem: 18 130<-129 -30.9021> 82 170<3.22247 711>
LayerCount: 2
Fore
SplineSet
18 -92 m 0xe0
 18 -37 49 -3 82 20 c 1
 82 711 l 1
 252 711 l 1
 252 0 l 1xd0
 214 0 l 1
 192 -13 175 -25 164 -36 c 0
 153 -47 148 -60 148 -74 c 0
 148 -88 153 -93 168 -93 c 0
 182 -93 192 -89 203 -84 c 2
 217 -77 l 1
 236 -179 l 1
 209 -192 184 -206 141 -206 c 0
 71 -206 18 -166 18 -92 c 0xe0
EndSplineSet
Substitution2: "<3,3> Small Caps in Latin lookup 0 subtable" Iogonek.smcp
EndChar

StartChar: iogonek
Encoding: 303 303 242
Width: 285
Flags: W
HStem: -206 113<105.5 219.13> 508 20G<78 244> 567 171<99.5191 224.458>
VStem: 18 130<-129 -31.8961> 70 182<593.912 708.99> 78 166<1.07854 528>
LayerCount: 2
Fore
SplineSet
18 -92 m 0xf0
 18 -41 43 -7 78 17 c 1
 78 528 l 1
 244 528 l 1
 244 0 l 1xe4
 214 0 l 1
 192 -13 176 -25 165 -36 c 0
 154 -47 148 -61 148 -74 c 0
 148 -88 153 -93 168 -93 c 0
 182 -93 191 -89 202 -84 c 2
 216 -77 l 1
 235 -179 l 1
 208 -192 184 -206 141 -206 c 0
 70 -206 18 -166 18 -92 c 0xf0
70 652 m 0xe8
 70 703 109 738 161 738 c 0
 213 738 252 705 252 652 c 0
 252 599 213 567 161 567 c 0
 110 567 70 598 70 652 c 0xe8
EndSplineSet
Substitution2: "<3,3> Small Caps in Latin lookup 0 subtable" Iogonek.smcp
EndChar

StartChar: Idotaccent
Encoding: 304 304 243
Width: 247
Flags: W
HStem: 0 21G<35 207> 691 20G<35 207> 740 159<60.9472 179.439>
VStem: 35 170<0 711 766.094 874.852>
LayerCount: 2
Fore
SplineSet
35 0 m 1
 35 711 l 1
 207 711 l 1
 207 0 l 1
 35 0 l 1
35 820 m 0
 35 869 72 899 120 899 c 0
 169 899 205 868 205 820 c 0
 205 772 169 740 120 740 c 0
 72 740 35 773 35 820 c 0
EndSplineSet
Substitution2: "<3,3> Small Caps in Latin lookup 0 subtable" Idotaccent.smcp
EndChar

StartChar: dotlessi
Encoding: 305 305 244
Width: 243
Flags: W
HStem: 0 21G<35 203> 508 20G<35 203>
VStem: 35 168<0 528>
LayerCount: 2
Fore
SplineSet
35 0 m 1
 35 528 l 1
 203 528 l 1
 203 0 l 1
 35 0 l 1
EndSplineSet
EndChar

StartChar: IJ
Encoding: 306 306 245
Width: 817
Flags: W
HStem: -10 143<465.693 581.666> 0 21G<36 208> 691 20G<36 208 606 778>
VStem: 36 172<0 711> 606 172<160.496 711>
LayerCount: 2
Fore
SplineSet
36 0 m 1x78
 36 711 l 1
 208 711 l 1
 208 0 l 1
 36 0 l 1x78
276 222 m 2
 276 235 l 1
 448 235 l 1
 448 222 l 2
 448 160 468 133 526 133 c 0
 578 133 606 169 606 227 c 2
 606 711 l 1
 778 711 l 1
 778 224 l 2
 778 112 712 38 624 7 c 0
 594 -3 562 -10 526 -10 c 0xb8
 377 -10 276 70 276 222 c 2
EndSplineSet
EndChar

StartChar: ij
Encoding: 307 307 246
Width: 510
Flags: W
HStem: -213 140<194.203 294.286> 0 21G<38 204> 508 20G<38 204 302 470> 567 171<58.0659 183.934 321.122 444.878>
VStem: 28 184<595.417 708.159> 38 166<0 528> 292 182<593.505 710.112> 302 168<-64.9141 528>
LayerCount: 2
Fore
SplineSet
28 652 m 0xf8
 28 703 68 738 120 738 c 0
 172 738 212 705 212 652 c 0
 212 599 172 567 120 567 c 0
 69 567 28 598 28 652 c 0xf8
38 0 m 1xf4
 38 528 l 1
 204 528 l 1
 204 0 l 1
 38 0 l 1xf4
194 -65 m 1
 210 -68 l 2
 223 -71 236 -73 251 -73 c 0
 288 -73 302 -56 302 -16 c 2
 302 528 l 1
 470 528 l 1
 470 -16 l 2xf5
 470 -139 399 -213 276 -213 c 0
 249 -213 226 -210 204 -205 c 2
 194 -202 l 1
 194 -65 l 1
292 652 m 0xf2
 292 704 331 738 383 738 c 0
 435 738 474 704 474 652 c 0
 474 598 434 567 383 567 c 0
 332 567 292 598 292 652 c 0xf2
EndSplineSet
EndChar

StartChar: Jcircumflex
Encoding: 308 308 247
Width: 653
Flags: W
HStem: -10 143<214.693 330.666> 691 20G<355 527> 733 21G<235 384.515 482.788 633>
VStem: 355 172<160.496 711>
LayerCount: 2
Fore
SplineSet
25 222 m 2
 25 235 l 1
 197 235 l 1
 197 222 l 2
 197 160 217 133 275 133 c 0
 327 133 355 169 355 227 c 2
 355 711 l 1
 527 711 l 1
 527 224 l 2
 527 112 461 38 373 7 c 0
 343 -3 311 -10 275 -10 c 0
 126 -10 25 70 25 222 c 2
235 733 m 1
 235 759 l 1
 388 901 l 1
 480 901 l 1
 633 757 l 1
 633 733 l 1
 504 733 l 1
 434 799 l 1
 363 733 l 1
 235 733 l 1
EndSplineSet
Substitution2: "<3,3> Small Caps in Latin lookup 0 subtable" Jcircumflex.smcp
EndChar

StartChar: jcircumflex
Encoding: 309 309 248
Width: 440
Flags: W
HStem: -213 139<36.2422 132> 508 20G<144 310> 717 20G<150.592 285.389>
VStem: 144 166<-65.6621 528>
LayerCount: 2
Fore
SplineSet
20 569 m 1
 20 595 l 1
 172 737 l 1
 264 737 l 1
 418 593 l 1
 418 569 l 1
 288 569 l 1
 218 635 l 1
 147 569 l 1
 20 569 l 1
29 -202 m 1
 37 -64 l 1
 52 -68 l 2
 65 -72 80 -74 97 -74 c 0
 130 -74 144 -48 144 -4 c 2
 144 528 l 1
 310 528 l 1
 310 -4 l 2
 310 -132 241 -213 112 -213 c 0
 83 -213 64 -211 39 -205 c 2
 29 -202 l 1
EndSplineSet
Substitution2: "<3,3> Small Caps in Latin lookup 0 subtable" Jcircumflex.smcp
EndChar

StartChar: Kcedilla
Encoding: 310 310 249
Width: 672
Flags: W
HStem: 0 21G<35 207 434.148 651> 691 20G<35 207 431 647>
VStem: 35 172<0 211 415 711> 239 130<-136.631 10>
LayerCount: 2
Fore
SplineSet
35 0 m 1
 35 711 l 1
 207 711 l 1
 207 415 l 1
 281 516 357 609 431 706 c 2
 435 711 l 1
 647 711 l 1
 383 393 l 1
 651 0 l 1
 447 0 l 1
 269 277 l 1
 207 211 l 1
 207 0 l 1
 35 0 l 1
197 -175 m 1
 204 -164 l 2
 224 -131 239 -97 239 -44 c 2
 239 10 l 1
 369 10 l 1
 369 -38 l 2
 369 -96 347 -144 324 -180 c 0
 313 -198 301 -211 287 -225 c 1
 197 -175 l 1
EndSplineSet
Substitution2: "<3,3> Small Caps in Latin lookup 0 subtable" Kcommaaccent.smcp
EndChar

StartChar: kcedilla
Encoding: 311 311 250
Width: 583
Flags: W
HStem: -21 20G<206 336> 0 21G<36 202 357.22 563> 508 20G<323.5 549> 730 20G<36 202>
VStem: 36 166<0 168 357 750> 206 130<-148.042 -1>
LayerCount: 2
Fore
SplineSet
36 0 m 1
 36 750 l 1
 202 750 l 1
 202 357 l 1
 250 417 300 470 347 528 c 1
 549 528 l 1
 347 305 l 1
 563 0 l 1
 370 0 l 1
 239 205 l 1
 202 168 l 1
 202 0 l 1
 36 0 l 1
164 -186 m 1
 171 -175 l 2
 191 -142 206 -109 206 -56 c 2
 206 -1 l 1
 336 -1 l 1
 336 -48 l 2
 336 -106 314 -156 291 -192 c 0
 279 -210 268 -222 254 -236 c 1
 164 -186 l 1
EndSplineSet
Substitution2: "<3,3> Small Caps in Latin lookup 0 subtable" Kcommaaccent.smcp
EndChar

StartChar: kra
Encoding: 312 312 251
Width: 602
Flags: W
HStem: 0 21G<35 203 354.872 580> 508 20G<35 203 349.061 573>
VStem: 35 168<0 195 330 528>
LayerCount: 2
Fore
SplineSet
35 0 m 1
 35 528 l 1
 203 528 l 1
 203 330 l 1
 225 330 l 1
 363 528 l 1
 573 528 l 1
 377 273 l 1
 580 0 l 1
 368 0 l 1
 240 195 l 1
 203 195 l 1
 203 0 l 1
 35 0 l 1
EndSplineSet
EndChar

StartChar: Lacute
Encoding: 313 313 252
Width: 549
Flags: W
HStem: 0 143<208 520> 691 20G<36 208> 725 21G<34 195.841>
VStem: 36 172<143 711>
LayerCount: 2
Fore
SplineSet
34 725 m 1
 147 901 l 1
 335 901 l 1
 178 725 l 1
 34 725 l 1
36 0 m 1
 36 711 l 1
 208 711 l 1
 208 143 l 1
 520 143 l 1
 520 0 l 1
 36 0 l 1
EndSplineSet
Substitution2: "<3,3> Small Caps in Latin lookup 0 subtable" Lacute.smcp
EndChar

StartChar: lacute
Encoding: 314 314 253
Width: 350
Flags: W
HStem: 0 21G<37 203> 730 20G<37 203>
VStem: 37 166<0 750>
LayerCount: 2
Fore
SplineSet
29 765 m 1
 142 941 l 1
 330 941 l 1
 173 765 l 1
 29 765 l 1
37 0 m 1
 37 750 l 1
 203 750 l 1
 203 0 l 1
 37 0 l 1
EndSplineSet
Substitution2: "<3,3> Small Caps in Latin lookup 0 subtable" Lacute.smcp
EndChar

StartChar: Lcedilla
Encoding: 315 315 254
Width: 548
Flags: W
HStem: 0 143<207 519> 691 20G<35 207>
VStem: 35 172<143 711> 215 128<-162.042 -15>
LayerCount: 2
Fore
SplineSet
35 0 m 1
 35 711 l 1
 207 711 l 1
 207 143 l 1
 519 143 l 1
 519 0 l 1
 35 0 l 1
172 -200 m 1
 179 -189 l 2
 199 -156 215 -123 215 -70 c 2
 215 -15 l 1
 343 -15 l 1
 343 -62 l 2
 343 -120 322 -170 299 -206 c 0
 287 -224 276 -236 262 -250 c 1
 172 -200 l 1
EndSplineSet
Substitution2: "<3,3> Small Caps in Latin lookup 0 subtable" Lcommaaccent.smcp
EndChar

StartChar: lcedilla
Encoding: 316 316 255
Width: 250
Flags: W
HStem: 0 21G<44 210> 730 20G<44 210>
VStem: 44 166<0 750> 62 130<-162.042 -15>
LayerCount: 2
Fore
SplineSet
20 -200 m 1xd0
 27 -189 l 2
 47 -156 62 -123 62 -70 c 2
 62 -15 l 1
 192 -15 l 1
 192 -62 l 2
 192 -120 170 -170 147 -206 c 0
 135 -224 124 -236 110 -250 c 1
 20 -200 l 1xd0
44 0 m 1xe0
 44 750 l 1
 210 750 l 1
 210 0 l 1
 44 0 l 1xe0
EndSplineSet
Substitution2: "<3,3> Small Caps in Latin lookup 0 subtable" Lcommaaccent.smcp
EndChar

StartChar: Lcaron
Encoding: 317 317 256
Width: 549
Flags: W
HStem: 0 143<208 520> 691 20G<36 208 334 472>
VStem: 36 172<143 711> 334 138<532.122 711>
LayerCount: 2
Fore
SplineSet
36 0 m 1
 36 711 l 1
 208 711 l 1
 208 143 l 1
 520 143 l 1
 520 0 l 1
 36 0 l 1
286 475 m 1
 292 486 l 1
 315 524 334 563 334 622 c 2
 334 711 l 1
 472 711 l 1
 472 622 l 2
 472 581 458 547 444 518 c 0
 428 484 404 455 378 432 c 2
 372 426 l 1
 286 475 l 1
EndSplineSet
Substitution2: "<3,3> Small Caps in Latin lookup 0 subtable" Lcaron.smcp
EndChar

StartChar: lcaron
Encoding: 318 318 257
Width: 437
Flags: W
HStem: 0 21G<36 202> 730 20G<36 202 274 412>
VStem: 36 166<0 750> 274 138<571.968 750>
LayerCount: 2
Fore
SplineSet
36 0 m 1
 36 750 l 1
 202 750 l 1
 202 0 l 1
 36 0 l 1
226 514 m 1
 232 525 l 1
 255 563 274 603 274 662 c 2
 274 750 l 1
 412 750 l 1
 412 662 l 2
 412 621 398 587 384 558 c 0
 368 525 344 494 318 471 c 2
 312 465 l 1
 226 514 l 1
EndSplineSet
Substitution2: "<3,3> Small Caps in Latin lookup 0 subtable" Lcaron.smcp
EndChar

StartChar: Ldot
Encoding: 319 319 258
Width: 549
Flags: W
HStem: 0 143<208 520> 326 158<286.5 407.875> 691 20G<36 208>
VStem: 36 172<143 711> 262 170<351.524 459.852>
LayerCount: 2
Fore
SplineSet
36 0 m 1
 36 711 l 1
 208 711 l 1
 208 143 l 1
 520 143 l 1
 520 0 l 1
 36 0 l 1
262 405 m 0
 262 454 299 484 347 484 c 0
 396 484 432 453 432 405 c 0
 432 357 396 326 347 326 c 0
 299 326 262 358 262 405 c 0
EndSplineSet
Substitution2: "<3,3> Small Caps in Latin lookup 0 subtable" Ldot.smcp
EndChar

StartChar: ldot
Encoding: 320 320 259
Width: 422
Flags: W
HStem: 0 21G<36 202> 298 160<251.424 368.963> 730 20G<36 202>
VStem: 36 166<0 750> 226 168<323.092 433.305>
LayerCount: 2
Fore
SplineSet
36 0 m 1
 36 750 l 1
 202 750 l 1
 202 0 l 1
 36 0 l 1
226 378 m 0
 226 427 262 458 310 458 c 0
 359 458 394 426 394 378 c 0
 394 330 359 298 310 298 c 0
 262 298 226 331 226 378 c 0
EndSplineSet
Substitution2: "<3,3> Small Caps in Latin lookup 0 subtable" Ldot.smcp
EndChar

StartChar: Lslash
Encoding: 321 321 260
Width: 601
Flags: W
HStem: 0 143<262 572> 691 20G<90 262>
VStem: 90 172<143 284 452 711>
LayerCount: 2
Fore
SplineSet
26 265 m 1
 26 384 l 1
 90 403 l 1
 90 711 l 1
 262 711 l 1
 262 452 l 1
 368 481 l 1
 368 364 l 1
 262 335 l 1
 262 143 l 1
 572 143 l 1
 572 0 l 1
 90 0 l 1
 90 284 l 1
 26 265 l 1
EndSplineSet
EndChar

StartChar: lslash
Encoding: 322 322 261
Width: 355
Flags: W
HStem: 0 21G<90 256> 730 20G<90 256>
VStem: 90 166<0 286 458 750>
LayerCount: 2
Fore
SplineSet
26 265 m 1
 26 385 l 1
 90 405 l 1
 90 750 l 1
 256 750 l 1
 256 458 l 1
 326 481 l 1
 326 362 l 1
 256 340 l 1
 256 0 l 1
 90 0 l 1
 90 286 l 1
 26 265 l 1
EndSplineSet
EndChar

StartChar: Nacute
Encoding: 323 323 262
Width: 679
Flags: W
HStem: 0 21G<35 207 460.798 639> 691 20G<35 214.22 469 639> 725 21G<248 409.841>
VStem: 35 172<0 436> 469 170<274 711>
LayerCount: 2
Fore
SplineSet
35 0 m 1
 35 711 l 1
 202 711 l 1
 469 274 l 1
 469 711 l 1
 639 711 l 1
 639 0 l 1
 473 0 l 1
 207 436 l 1
 207 0 l 1
 35 0 l 1
248 725 m 1
 361 901 l 1
 549 901 l 1
 392 725 l 1
 248 725 l 1
EndSplineSet
Substitution2: "<3,3> Small Caps in Latin lookup 0 subtable" Nacute.smcp
EndChar

StartChar: nacute
Encoding: 324 324 263
Width: 554
Flags: W
HStem: 0 21G<35 201 351 517> 398 140<241.018 403.364> 508 20G<35 194.395> 730 20G<287.159 488>
VStem: 35 166<0 381.008> 351 166<0 386.829>
LayerCount: 2
Fore
SplineSet
35 0 m 1xdc
 35 528 l 1
 193 528 l 1xbc
 196 485 l 1
 230 517 277 538 337 538 c 0
 467 538 517 454 517 333 c 2
 517 0 l 1
 351 0 l 1
 351 329 l 2
 351 380 332 398 279 398 c 0
 241 398 216 381 201 359 c 1
 201 0 l 1
 35 0 l 1xdc
187 574 m 1
 300 750 l 1
 488 750 l 1
 331 574 l 1
 187 574 l 1
EndSplineSet
Substitution2: "<3,3> Small Caps in Latin lookup 0 subtable" Nacute.smcp
EndChar

StartChar: Ncedilla
Encoding: 325 325 264
Width: 679
Flags: W
HStem: 0 21G<35 207 460.798 639> 691 20G<35 214.22 469 639>
VStem: 35 172<0 436> 275 128<-166.042 -19> 469 170<274 711>
LayerCount: 2
Fore
SplineSet
35 0 m 1
 35 711 l 1
 202 711 l 1
 469 274 l 1
 469 711 l 1
 639 711 l 1
 639 0 l 1
 473 0 l 1
 207 436 l 1
 207 0 l 1
 35 0 l 1
232 -204 m 1
 239 -193 l 2
 259 -160 275 -127 275 -74 c 2
 275 -19 l 1
 403 -19 l 1
 403 -66 l 2
 403 -124 382 -174 359 -210 c 0
 347 -228 336 -240 322 -254 c 1
 232 -204 l 1
EndSplineSet
Substitution2: "<3,3> Small Caps in Latin lookup 0 subtable" Ncommaaccent.smcp
EndChar

StartChar: ncedilla
Encoding: 326 326 265
Width: 555
Flags: W
HStem: 0 21G<35 201 351 517> 398 140<241.018 403.364> 508 20G<35 194.395>
VStem: 35 166<0 381.008> 213 128<-162.042 -15> 351 166<0 386.829>
LayerCount: 2
Fore
SplineSet
35 0 m 1xdc
 35 528 l 1
 193 528 l 1xbc
 196 485 l 1
 230 517 277 538 337 538 c 0
 467 538 517 454 517 333 c 2
 517 0 l 1
 351 0 l 1
 351 329 l 2
 351 380 332 398 279 398 c 0
 241 398 216 381 201 359 c 1
 201 0 l 1
 35 0 l 1xdc
170 -200 m 1
 177 -189 l 2
 197 -156 213 -123 213 -70 c 2
 213 -15 l 1
 341 -15 l 1
 341 -62 l 2
 341 -120 320 -170 297 -206 c 0
 285 -224 274 -236 260 -250 c 1
 170 -200 l 1
EndSplineSet
Substitution2: "<3,3> Small Caps in Latin lookup 0 subtable" Ncommaaccent.smcp
EndChar

StartChar: Ncaron
Encoding: 327 327 266
Width: 679
Flags: W
HStem: 0 21G<35 207 460.798 639> 691 20G<35 214.22 469 639> 734 21G<268.621 410.667>
VStem: 35 172<0 436> 469 170<274 711>
LayerCount: 2
Fore
SplineSet
35 0 m 1
 35 711 l 1
 202 711 l 1
 469 274 l 1
 469 711 l 1
 639 711 l 1
 639 0 l 1
 473 0 l 1
 207 436 l 1
 207 0 l 1
 35 0 l 1
135 879 m 1
 135 901 l 1
 273 901 l 1
 340 837 l 1
 406 901 l 1
 545 901 l 1
 545 878 l 1
 389 734 l 1
 290 734 l 1
 135 879 l 1
EndSplineSet
Substitution2: "<3,3> Small Caps in Latin lookup 0 subtable" Ncaron.smcp
EndChar

StartChar: ncaron
Encoding: 328 328 267
Width: 552
Flags: W
HStem: 0 21G<35 201 349 515> 398 140<240.187 402.056> 508 20G<35 193.395> 730 20G<73 230.938 322.375 481>
VStem: 35 166<0 381.777> 349 166<0 386.829>
LayerCount: 2
Fore
SplineSet
35 0 m 1xdc
 35 528 l 1
 192 528 l 1xbc
 195 485 l 1
 229 517 276 538 336 538 c 0
 466 538 515 454 515 333 c 2
 515 0 l 1
 349 0 l 1
 349 329 l 2
 349 380 331 398 278 398 c 0
 240 398 216 381 201 359 c 1
 201 0 l 1
 35 0 l 1xdc
73 728 m 1
 73 750 l 1
 210 750 l 1
 277 686 l 1
 343 750 l 1
 481 750 l 1
 481 727 l 1
 326 583 l 1
 227 583 l 1
 73 728 l 1
EndSplineSet
Substitution2: "<3,3> Small Caps in Latin lookup 0 subtable" Ncaron.smcp
EndChar

StartChar: napostrophe
Encoding: 329 329 268
Width: 633
Flags: W
HStem: 0 21G<115 281 429 595> 398 140<320.187 482.056> 730 20G<67 205>
VStem: 67 138<571.717 750> 115 166<0 381.777> 429 166<0 386.829>
LayerCount: 2
Fore
SplineSet
19 514 m 1xec
 25 525 l 1
 48 563 67 603 67 662 c 2
 67 750 l 1
 205 750 l 1
 205 662 l 2xf4
 205 607 182 564 160 528 c 1
 272 528 l 1
 275 485 l 1
 309 517 356 538 416 538 c 0
 546 538 595 454 595 333 c 2
 595 0 l 1
 429 0 l 1
 429 329 l 2
 429 380 411 398 358 398 c 0
 320 398 296 381 281 359 c 1
 281 0 l 1
 115 0 l 1
 115 476 l 1
 114 475 112 475 111 474 c 2
 105 468 l 1
 19 514 l 1xec
EndSplineSet
EndChar

StartChar: Eng
Encoding: 330 330 269
Width: 679
Flags: W
HStem: -213 143<360.242 456.864> 0 21G<35 207> 691 20G<35 213.91 467 639>
VStem: 35 172<0 446> 467 172<-62.6832 9 266 711>
LayerCount: 2
Fore
SplineSet
35 0 m 1
 35 711 l 1
 202 711 l 1
 467 266 l 1
 467 711 l 1
 639 711 l 1
 639 0 l 2
 639 -130 569 -213 438 -213 c 0
 409 -213 388 -211 363 -205 c 2
 353 -202 l 1
 361 -60 l 1
 376 -64 l 2
 390 -68 403 -70 421 -70 c 0
 454 -70 467 -44 467 0 c 2
 467 9 l 1
 207 446 l 1
 207 0 l 1
 35 0 l 1
EndSplineSet
EndChar

StartChar: eng
Encoding: 331 331 270
Width: 557
Flags: W
HStem: -213 140<244.242 343.785> 0 21G<35 201> 398 140<246.452 405.233> 508 20G<35 192.509>
VStem: 35 166<0 383.182> 353 166<-65.8589 381.661>
LayerCount: 2
Fore
SplineSet
35 0 m 1xec
 35 528 l 1
 191 528 l 1xdc
 195 475 l 1
 227 512 273 538 336 538 c 0
 471 538 519 446 519 320 c 2
 519 -4 l 2
 519 -133 450 -213 320 -213 c 0
 291 -213 272 -211 247 -205 c 2
 237 -202 l 1
 245 -63 l 1
 260 -67 l 2
 274 -71 289 -73 306 -73 c 0
 339 -73 353 -48 353 -4 c 2
 353 315 l 2
 353 371 337 398 285 398 c 0
 246 398 217 385 201 366 c 1
 201 0 l 1
 35 0 l 1xec
EndSplineSet
EndChar

StartChar: Omacron
Encoding: 332 332 271
Width: 691
Flags: W
HStem: -10 145<271.893 418.686> 575 146<267.699 418.649> 755 106<152 534>
VStem: 28 172<218.881 494.334> 484 174<215.23 495.348>
LayerCount: 2
Fore
SplineSet
28 340 m 2
 28 370 l 2
 28 531 97 645 215 696 c 0
 254 712 296 721 343 721 c 0
 445 721 520 681 570 626 c 0
 624 566 658 479 658 370 c 2
 658 340 l 2
 658 178 589 65 471 14 c 0
 432 -2 391 -10 344 -10 c 0
 243 -10 166 30 116 85 c 0
 62 144 28 232 28 340 c 2
152 755 m 1
 152 861 l 1
 534 861 l 1
 534 755 l 1
 152 755 l 1
200 340 m 2
 200 247 226 177 284 148 c 0
 301 140 321 135 344 135 c 0
 447 135 484 222 484 340 c 2
 484 371 l 2
 484 489 447 575 343 575 c 0
 240 575 200 489 200 371 c 2
 200 340 l 2
EndSplineSet
Substitution2: "<3,3> Small Caps in Latin lookup 0 subtable" Omacron.smcp
EndChar

StartChar: omacron
Encoding: 333 333 272
Width: 586
Flags: W
HStem: -10 139<228.028 352.166> 399 139<228.075 349.657> 605 106<99 481>
VStem: 27 166<165.5 358.171> 387 166<165.875 360.957>
LayerCount: 2
Fore
SplineSet
27 259 m 2
 27 268 l 2
 27 391 86 478 179 517 c 1
 212 532 249 538 290 538 c 0
 420 538 502 469 536 375 c 0
 547 342 553 307 553 269 c 2
 553 260 l 2
 553 137 496 50 403 11 c 1
 370 -4 332 -10 291 -10 c 0
 161 -10 78 59 44 153 c 0
 32 186 27 221 27 259 c 2
99 605 m 1
 99 711 l 1
 481 711 l 1
 481 605 l 1
 99 605 l 1
193 259 m 2
 193 183 218 129 291 129 c 0
 362 129 387 184 387 259 c 2
 387 269 l 2
 387 344 361 399 290 399 c 0
 219 399 193 343 193 269 c 2
 193 259 l 2
EndSplineSet
Substitution2: "<3,3> Small Caps in Latin lookup 0 subtable" Omacron.smcp
EndChar

StartChar: Obreve
Encoding: 334 334 273
Width: 691
Flags: W
HStem: -10 145<271.893 418.686> 575 146<267.699 418.649> 726 106<296.408 392.925>
VStem: 28 172<218.881 494.334> 162 126<839.261 896> 400 126<839.778 896> 484 174<215.23 495.348>
LayerCount: 2
Fore
SplineSet
28 340 m 2xf2
 28 370 l 2
 28 531 97 645 215 696 c 0
 254 712 296 721 343 721 c 0
 445 721 520 681 570 626 c 0
 624 566 658 479 658 370 c 2
 658 340 l 2
 658 178 589 65 471 14 c 0
 432 -2 391 -10 344 -10 c 0
 243 -10 166 30 116 85 c 0
 62 144 28 232 28 340 c 2xf2
162 884 m 2xec
 162 896 l 1
 288 896 l 1
 288 884 l 2
 288 848 306 832 344 832 c 0
 382 832 400 850 400 884 c 2
 400 896 l 1
 526 896 l 1
 526 884 l 2
 526 805 477 758 418 738 c 0
 396 731 370 726 344 726 c 0
 243 726 162 781 162 884 c 2xec
200 340 m 2xf2
 200 247 226 177 284 148 c 0
 301 140 321 135 344 135 c 0
 447 135 484 222 484 340 c 2
 484 371 l 2
 484 489 447 575 343 575 c 0
 240 575 200 489 200 371 c 2
 200 340 l 2xf2
EndSplineSet
Substitution2: "<3,3> Small Caps in Latin lookup 0 subtable" Obreve.smcp
EndChar

StartChar: obreve
Encoding: 335 335 274
Width: 586
Flags: W
HStem: -10 139<228.028 352.166> 399 139<228.075 349.657> 575 106<239.909 338.292>
VStem: 27 166<165.5 358.171> 109 124<691.156 745> 345 126<687.885 745> 387 166<165.875 360.957>
LayerCount: 2
Fore
SplineSet
27 259 m 2xf2
 27 268 l 2
 27 391 86 478 179 517 c 1
 212 532 249 538 290 538 c 0
 420 538 502 469 536 375 c 0
 547 342 553 307 553 269 c 2
 553 260 l 2
 553 137 496 50 403 11 c 1
 370 -4 332 -10 291 -10 c 0
 161 -10 78 59 44 153 c 0
 32 186 27 221 27 259 c 2xf2
109 732 m 2xec
 109 745 l 1
 233 745 l 1
 233 732 l 2
 233 696 252 681 290 681 c 0
 328 681 345 698 345 732 c 2
 345 745 l 1
 471 745 l 1
 471 732 l 2
 471 653 423 607 364 587 c 0
 342 580 316 575 290 575 c 0
 189 575 109 628 109 732 c 2xec
193 259 m 2xf2
 193 183 218 129 291 129 c 0
 362 129 387 184 387 259 c 2
 387 269 l 2
 387 344 361 399 290 399 c 0
 219 399 193 343 193 269 c 2
 193 259 l 2xf2
EndSplineSet
Substitution2: "<3,3> Small Caps in Latin lookup 0 subtable" Obreve.smcp
EndChar

StartChar: Ohungarumlaut
Encoding: 336 336 275
Width: 691
Flags: W
HStem: -10 145<271.893 418.686> 575 146<267.699 418.649> 729 21G<172 318.233 341 495.674>
VStem: 28 172<218.881 494.334> 484 174<215.23 495.348>
LayerCount: 2
Fore
SplineSet
28 340 m 2
 28 370 l 2
 28 531 97 645 215 696 c 0
 254 712 296 721 343 721 c 0
 445 721 520 681 570 626 c 0
 624 566 658 479 658 370 c 2
 658 340 l 2
 658 178 589 65 471 14 c 0
 432 -2 391 -10 344 -10 c 0
 243 -10 166 30 116 85 c 0
 62 144 28 232 28 340 c 2
172 729 m 1
 278 901 l 1
 434 901 l 1
 303 729 l 1
 172 729 l 1
200 340 m 2
 200 247 226 177 284 148 c 0
 301 140 321 135 344 135 c 0
 447 135 484 222 484 340 c 2
 484 371 l 2
 484 489 447 575 343 575 c 0
 240 575 200 489 200 371 c 2
 200 340 l 2
341 729 m 1
 470 901 l 1
 630 901 l 1
 478 729 l 1
 341 729 l 1
EndSplineSet
Substitution2: "<3,3> Small Caps in Latin lookup 0 subtable" Ohungarumlaut.smcp
EndChar

StartChar: ohungarumlaut
Encoding: 337 337 276
Width: 596
Flags: W
HStem: -10 139<228.028 352.166> 399 139<228.075 349.657> 730 20G<211.674 380 401 576>
VStem: 27 166<165.5 358.171> 387 166<165.875 360.957>
LayerCount: 2
Fore
SplineSet
27 259 m 2
 27 268 l 2
 27 391 86 478 179 517 c 1
 212 532 249 538 290 538 c 0
 420 538 502 469 536 375 c 0
 547 342 553 307 553 269 c 2
 553 260 l 2
 553 137 496 50 403 11 c 1
 370 -4 332 -10 291 -10 c 0
 161 -10 78 59 44 153 c 0
 32 186 27 221 27 259 c 2
118 578 m 1
 224 750 l 1
 380 750 l 1
 249 578 l 1
 118 578 l 1
193 259 m 2
 193 183 218 129 291 129 c 0
 362 129 387 184 387 259 c 2
 387 269 l 2
 387 344 361 399 290 399 c 0
 219 399 193 343 193 269 c 2
 193 259 l 2
287 578 m 1
 416 750 l 1
 576 750 l 1
 424 578 l 1
 287 578 l 1
EndSplineSet
Substitution2: "<3,3> Small Caps in Latin lookup 0 subtable" Ohungarumlaut.smcp
EndChar

StartChar: OE
Encoding: 338 338 277
Width: 954
Flags: W
HStem: -10 139<253.26 419.654> 0 143<593 923> 296 140<593 875> 567 144<593 923> 582 139<252.405 419.889>
VStem: 29 166<189.975 521.251> 421 172<143 296 436 567>
LayerCount: 2
Fore
SplineSet
29 283 m 2xa6
 29 427 l 2
 29 566 106 659 212 699 c 0
 250 714 292 721 337 721 c 0xae
 386 721 438 716 479 711 c 1
 923 711 l 1
 923 567 l 1
 593 567 l 1
 593 436 l 1
 875 436 l 1
 875 296 l 1
 593 296 l 1
 593 143 l 1
 923 143 l 1
 923 0 l 1
 479 0 l 1x76
 435 -5 388 -10 338 -10 c 0
 242 -10 166 24 115 72 c 0
 64 120 29 192 29 283 c 2xa6
195 285 m 2
 195 188 240 129 338 129 c 0
 367 129 395 130 421 133 c 1
 421 577 l 1
 394 580 366 582 337 582 c 0
 240 582 195 523 195 427 c 2
 195 285 l 2
EndSplineSet
EndChar

StartChar: oe
Encoding: 339 339 278
Width: 911
Flags: W
HStem: -10 139<226.508 350.849 594.758 778.901> 208 120<561 712> 399 139<227.413 347.703 586.422 695.871>
VStem: 28 166<163.901 362.971>
LayerCount: 2
Fore
SplineSet
28 259 m 2
 28 268 l 2
 28 391 84 478 177 517 c 1
 210 532 247 538 288 538 c 0
 367 538 427 512 469 471 c 1
 509 511 564 539 639 538 c 1
 757 538 830 481 861 395 c 0
 872 366 876 333 876 296 c 2
 876 208 l 1
 559 208 l 1
 570 161 604 129 666 129 c 0
 728 129 769 142 807 165 c 2
 819 173 l 1
 867 59 l 1
 817 16 743 -10 652 -10 c 0
 573 -10 512 18 470 58 c 1
 427 17 368 -10 289 -10 c 0
 159 -10 76 58 44 153 c 0
 33 186 28 221 28 259 c 2
194 259 m 2
 194 183 216 129 289 129 c 0
 361 129 384 184 384 259 c 2
 384 269 l 2
 384 328 367 371 332 390 c 0
 321 396 305 399 288 399 c 0
 217 399 194 343 194 269 c 2
 194 259 l 2
561 328 m 1
 712 328 l 1
 712 374 690 399 639 399 c 0
 592 399 570 368 561 328 c 1
EndSplineSet
EndChar

StartChar: Racute
Encoding: 340 340 279
Width: 638
Flags: W
HStem: 0 21G<35 207 426.274 615> 248 144<207 304> 567 144<207 388.648> 725 21G<186 347.841>
VStem: 35 172<0 248 392 567> 417 170<419.889 540.889>
LayerCount: 2
Fore
SplineSet
35 0 m 1
 35 711 l 1
 313 711 l 2
 435 711 528 672 568 586 c 0
 581 558 587 526 587 491 c 0
 587 386 537 329 465 294 c 1
 615 22 l 1
 615 0 l 1
 437 0 l 1
 304 248 l 1
 207 248 l 1
 207 0 l 1
 35 0 l 1
186 725 m 1
 299 901 l 1
 487 901 l 1
 330 725 l 1
 186 725 l 1
207 392 m 1
 313 392 l 2
 379 392 417 420 417 478 c 0
 417 538 382 567 313 567 c 2
 207 567 l 1
 207 392 l 1
EndSplineSet
Substitution2: "<3,3> Small Caps in Latin lookup 0 subtable" Racute.smcp
EndChar

StartChar: racute
Encoding: 341 341 280
Width: 422
Flags: W
HStem: 0 21G<34 200> 375 163<225.229 355.148> 508 20G<34 193.026> 730 20G<201.159 402>
VStem: 34 166<0 357.321>
LayerCount: 2
Fore
SplineSet
34 0 m 1xd8
 34 528 l 1
 192 528 l 1xb8
 194 489 l 1
 220 518 254 538 301 538 c 0
 317 538 336 535 348 532 c 2
 358 529 l 1
 355 370 l 1
 342 371 l 2
 327 372 306 375 292 375 c 0
 241 375 216 360 200 333 c 1
 200 0 l 1
 34 0 l 1xd8
101 574 m 1
 214 750 l 1
 402 750 l 1
 245 574 l 1
 101 574 l 1
EndSplineSet
Substitution2: "<3,3> Small Caps in Latin lookup 0 subtable" Racute.smcp
EndChar

StartChar: Rcedilla
Encoding: 342 342 281
Width: 638
Flags: W
HStem: 0 21G<35 207 426.274 615> 248 144<207 304> 567 144<207 388.648>
VStem: 35 172<0 248 392 567> 221 128<-162.042 -15> 417 170<419.889 540.889>
LayerCount: 2
Fore
SplineSet
35 0 m 1
 35 711 l 1
 313 711 l 2
 435 711 528 672 568 586 c 0
 581 558 587 526 587 491 c 0
 587 386 537 329 465 294 c 1
 615 22 l 1
 615 0 l 1
 437 0 l 1
 304 248 l 1
 207 248 l 1
 207 0 l 1
 35 0 l 1
178 -200 m 1
 185 -189 l 2
 205 -156 221 -123 221 -70 c 2
 221 -15 l 1
 349 -15 l 1
 349 -62 l 2
 349 -120 328 -170 305 -206 c 0
 293 -224 282 -236 268 -250 c 1
 178 -200 l 1
207 392 m 1
 313 392 l 2
 379 392 417 420 417 478 c 0
 417 538 382 567 313 567 c 2
 207 567 l 1
 207 392 l 1
EndSplineSet
Substitution2: "<3,3> Small Caps in Latin lookup 0 subtable" Rcommaaccent.smcp
EndChar

StartChar: rcedilla
Encoding: 343 343 282
Width: 398
Flags: W
HStem: 0 21G<42 208> 375 163<234.539 364.148> 508 20G<42 202.026>
VStem: 42 166<0 357.321> 64 130<-162.042 -15>
LayerCount: 2
Fore
SplineSet
22 -200 m 1x88
 29 -189 l 2
 49 -156 64 -123 64 -70 c 2
 64 -15 l 1
 194 -15 l 1
 194 -62 l 2
 194 -120 172 -170 149 -206 c 0
 137 -224 126 -236 112 -250 c 1
 22 -200 l 1x88
42 0 m 1xd0
 42 528 l 1
 201 528 l 1xb0
 203 489 l 1
 229 518 263 538 310 538 c 0
 326 538 345 535 357 532 c 2
 367 529 l 1
 364 370 l 1
 351 371 l 2
 336 372 315 375 301 375 c 0
 250 375 224 360 208 333 c 1
 208 0 l 1
 42 0 l 1xd0
EndSplineSet
Substitution2: "<3,3> Small Caps in Latin lookup 0 subtable" Rcommaaccent.smcp
EndChar

StartChar: Rcaron
Encoding: 344 344 283
Width: 638
Flags: W
HStem: 0 21G<35 207 426.274 615> 248 144<207 304> 567 144<207 388.648> 734 21G<205.759 347.528>
VStem: 35 172<0 248 392 567> 417 170<419.889 540.889>
LayerCount: 2
Fore
SplineSet
35 0 m 1
 35 711 l 1
 313 711 l 2
 435 711 528 672 568 586 c 0
 581 558 587 526 587 491 c 0
 587 386 537 329 465 294 c 1
 615 22 l 1
 615 0 l 1
 437 0 l 1
 304 248 l 1
 207 248 l 1
 207 0 l 1
 35 0 l 1
73 879 m 1
 73 901 l 1
 210 901 l 1
 277 837 l 1
 343 901 l 1
 481 901 l 1
 481 878 l 1
 326 734 l 1
 227 734 l 1
 73 879 l 1
207 392 m 1
 313 392 l 2
 379 392 417 420 417 478 c 0
 417 538 382 567 313 567 c 2
 207 567 l 1
 207 392 l 1
EndSplineSet
Substitution2: "<3,3> Small Caps in Latin lookup 0 subtable" Rcaron.smcp
EndChar

StartChar: rcaron
Encoding: 345 345 284
Width: 446
Flags: W
HStem: 0 21G<62 228> 375 163<254.539 384.148> 508 20G<62 222.026> 730 20G<18 175.938 267.375 426>
VStem: 62 166<0 357.321>
LayerCount: 2
Fore
SplineSet
18 728 m 1x98
 18 750 l 1
 155 750 l 1
 222 686 l 1
 288 750 l 1
 426 750 l 1
 426 727 l 1
 271 583 l 1
 172 583 l 1
 18 728 l 1x98
62 0 m 1
 62 528 l 1
 221 528 l 1xb8
 223 489 l 1
 249 518 283 538 330 538 c 0
 346 538 365 535 377 532 c 2
 387 529 l 1
 384 370 l 1
 371 371 l 2
 356 372 335 375 321 375 c 0xd8
 270 375 244 360 228 333 c 1
 228 0 l 1
 62 0 l 1
EndSplineSet
Substitution2: "<3,3> Small Caps in Latin lookup 0 subtable" Rcaron.smcp
EndChar

StartChar: Sacute
Encoding: 346 346 285
Width: 625
Flags: W
HStem: -10 141<230.253 402.771> 579 142<236.99 392.014> 725 21G<227 388.841>
VStem: 45 172<470.853 557.161> 421 172<150.208 246.28 476 551.92>
LayerCount: 2
Fore
SplineSet
23 236 m 2
 23 249 l 1
 195 249 l 1
 195 236 l 2
 195 158 241 131 323 131 c 0
 382 131 421 150 421 197 c 0
 421 239 399 251 361 267 c 0
 344 274 320 283 291 292 c 0
 201 320 109 355 65 434 c 0
 52 458 45 487 45 518 c 0
 45 625 126 680 210 705 c 0
 243 715 280 721 320 721 c 0
 443 721 532 668 573 582 c 0
 586 553 593 522 593 488 c 2
 593 476 l 1
 423 476 l 1
 423 488 l 2
 423 549 384 579 317 579 c 0
 257 579 217 559 217 511 c 0
 217 494 225 479 247 465 c 0
 269 451 303 437 349 424 c 0
 444 396 538 358 577 272 c 0
 588 248 593 221 593 192 c 0
 593 85 520 28 433 4 c 0
 400 -5 363 -10 323 -10 c 0
 183 -10 74 51 36 159 c 0
 28 182 23 208 23 236 c 2
227 725 m 1
 340 901 l 1
 528 901 l 1
 371 725 l 1
 227 725 l 1
EndSplineSet
Substitution2: "<3,3> Small Caps in Latin lookup 0 subtable" Sacute.smcp
EndChar

StartChar: sacute
Encoding: 347 347 286
Width: 530
Flags: W
HStem: -10 125<200.111 328.545> 413 125<207.635 319.284> 730 20G<275.159 476>
VStem: 39 162<341.079 404.107> 335 164<123.489 186.677 343 398.478>
LayerCount: 2
Fore
SplineSet
23 180 m 2
 23 193 l 1
 181 193 l 1
 181 181 l 2
 184 136 215 115 266 115 c 0
 310 115 335 129 335 156 c 0
 335 180 319 186 290 196 c 0
 277 200 260 204 238 208 c 0
 163 223 89 250 55 309 c 0
 45 327 39 348 39 371 c 0
 39 423 68 463 100 489 c 0
 139 520 195 538 263 538 c 0
 366 538 443 501 479 429 c 0
 490 406 497 383 497 356 c 2
 497 343 l 1
 331 343 l 1
 331 356 l 2
 331 394 308 413 262 413 c 0
 223 413 201 397 201 370 c 0
 201 350 218 341 244 333 c 0
 278 322 332 315 370 303 c 0
 418 288 457 262 481 223 c 0
 492 204 499 181 499 155 c 0
 499 100 468 61 433 36 c 0
 391 7 333 -10 263 -10 c 0
 156 -10 74 36 39 111 c 0
 28 134 23 157 23 180 c 2
175 574 m 1
 288 750 l 1
 476 750 l 1
 319 574 l 1
 175 574 l 1
EndSplineSet
Substitution2: "<3,3> Small Caps in Latin lookup 0 subtable" Sacute.smcp
EndChar

StartChar: Scircumflex
Encoding: 348 348 287
Width: 625
Flags: W
HStem: -10 141<230.253 402.771> 579 142<236.99 392.014> 733 21G<121 269.515 367.788 519>
VStem: 45 172<470.853 557.161> 421 172<150.208 246.28 476 551.92>
LayerCount: 2
Fore
SplineSet
23 236 m 2
 23 249 l 1
 195 249 l 1
 195 236 l 2
 195 158 241 131 323 131 c 0
 382 131 421 150 421 197 c 0
 421 239 399 251 361 267 c 0
 344 274 320 283 291 292 c 0
 201 320 109 355 65 434 c 0
 52 458 45 487 45 518 c 0
 45 625 126 680 210 705 c 0
 243 715 280 721 320 721 c 0
 443 721 532 668 573 582 c 0
 586 553 593 522 593 488 c 2
 593 476 l 1
 423 476 l 1
 423 488 l 2
 423 549 384 579 317 579 c 0
 257 579 217 559 217 511 c 0
 217 494 225 479 247 465 c 0
 269 451 303 437 349 424 c 0
 444 396 538 358 577 272 c 0
 588 248 593 221 593 192 c 0
 593 85 520 28 433 4 c 0
 400 -5 363 -10 323 -10 c 0
 183 -10 74 51 36 159 c 0
 28 182 23 208 23 236 c 2
121 733 m 1
 121 759 l 1
 273 901 l 1
 365 901 l 1
 519 757 l 1
 519 733 l 1
 389 733 l 1
 319 799 l 1
 248 733 l 1
 121 733 l 1
EndSplineSet
Substitution2: "<3,3> Small Caps in Latin lookup 0 subtable" Scircumflex.smcp
EndChar

StartChar: scircumflex
Encoding: 349 349 288
Width: 530
Flags: W
HStem: -10 125<201.111 329.949> 413 125<208.241 319.953> 730 20G<200.451 335.25>
VStem: 41 160<341.798 404.107> 337 162<124.931 186.45 343 397.362>
LayerCount: 2
Fore
SplineSet
23 180 m 2
 23 193 l 1
 182 193 l 1
 182 181 l 2
 185 136 216 115 267 115 c 0
 311 115 337 129 337 156 c 0
 337 180 320 186 291 196 c 0
 278 200 261 204 239 208 c 0
 164 223 90 250 56 309 c 0
 46 327 41 348 41 371 c 0
 41 423 69 463 101 489 c 0
 140 520 196 538 264 538 c 0
 367 538 444 501 480 429 c 0
 491 406 497 383 497 356 c 2
 497 343 l 1
 331 343 l 1
 331 356 l 2
 331 394 309 413 263 413 c 0
 224 413 201 397 201 370 c 0
 201 350 219 341 245 333 c 0
 279 322 333 315 371 303 c 0
 419 288 458 262 482 223 c 0
 493 204 499 181 499 155 c 0
 499 100 469 61 434 36 c 0
 392 7 334 -10 264 -10 c 0
 157 -10 75 36 40 111 c 0
 29 134 23 157 23 180 c 2
69 582 m 1
 69 608 l 1
 222 750 l 1
 314 750 l 1
 467 606 l 1
 467 582 l 1
 338 582 l 1
 268 648 l 1
 197 582 l 1
 69 582 l 1
EndSplineSet
Substitution2: "<3,3> Small Caps in Latin lookup 0 subtable" Scircumflex.smcp
EndChar

StartChar: Scedilla
Encoding: 350 350 289
Width: 573
Flags: W
HStem: -201 58<255.638 298.067> 604 92<201.034 373.84>
VStem: 22 122<158.967 224> 44 120<461.798 569.376> 308 94<-131.391 -54.0085> 420 122<139.447 253.15 506 561.075>
LayerCount: 2
Fore
SplineSet
22 224 m 1xec
 144 224 l 1xec
 149 139 211 106 296 106 c 0
 359 106 420 129 420 195 c 0
 420 250 382 271 344 287 c 0
 325 295 301 303 272 312 c 0
 182 340 98 374 60 442 c 0
 49 462 44 486 44 514 c 0
 44 608 111 658 191 682 c 0
 222 692 255 696 293 696 c 0
 408 696 489 648 524 573 c 0
 534 552 539 530 541 506 c 1
 420 506 l 1
 414 571 361 604 290 604 c 0
 226 604 164 580 164 512 c 0xdc
 164 485 180 462 206 445 c 0
 232 428 267 416 314 402 c 0
 409 374 495 337 528 262 c 0
 537 242 542 219 542 192 c 0
 542 80 455 26 343 16 c 2
 333 15 l 1
 327 -23 l 1
 339 -25 l 2
 377 -30 402 -52 402 -96 c 0
 402 -171 333 -197 256 -201 c 1
 253 -143 l 1
 281 -140 308 -127 308 -92 c 0
 308 -52 271 -45 241 -42 c 1
 254 17 l 1
 241 19 l 2
 136 33 62 86 33 168 c 0
 27 185 23 202 22 224 c 1xec
EndSplineSet
Substitution2: "<3,3> Small Caps in Latin lookup 0 subtable" Scedilla.smcp
EndChar

StartChar: scedilla
Encoding: 351 351 290
Width: 476
Flags: W
HStem: -205 58<203.638 246.067> 438 75<169.458 303.631>
VStem: 38 110<329.438 417.343> 256 94<-135.391 -58.0085> 334 112<103.741 191.619 371 407.015>
LayerCount: 2
Fore
SplineSet
21 157 m 1xf0
 131 157 l 1
 140 106 184 83 239 83 c 0
 285 83 334 100 334 148 c 0
 334 189 298 202 271 211 c 0
 256 216 237 220 215 224 c 0
 142 239 78 265 50 314 c 0
 42 328 38 345 38 365 c 0
 38 410 61 444 89 467 c 0
 122 495 172 513 236 513 c 0
 333 513 400 479 430 419 c 0
 438 404 442 389 444 371 c 1
 328 371 l 1
 323 414 285 438 235 438 c 0
 190 438 148 416 148 371 c 0
 148 333 185 318 209 311 c 0
 247 299 301 292 335 281 c 0
 379 267 412 245 432 212 c 0
 441 197 446 178 446 155 c 0xe8
 446 109 422 76 391 54 c 0
 364 35 326 20 282 15 c 1
 274 -27 l 1
 287 -29 l 2
 325 -34 350 -56 350 -100 c 0
 350 -175 281 -201 204 -205 c 1
 201 -147 l 1
 229 -144 256 -131 256 -96 c 0
 256 -56 219 -49 189 -46 c 1
 203 13 l 1
 190 15 l 2
 114 26 60 62 34 114 c 0
 27 129 23 142 21 157 c 1xf0
EndSplineSet
Substitution2: "<3,3> Small Caps in Latin lookup 0 subtable" Scedilla.smcp
EndChar

StartChar: Scaron
Encoding: 352 352 291
Width: 625
Flags: W
HStem: -10 141<230.253 402.771> 579 142<236.99 392.014> 734 21G<247.759 389.528>
VStem: 45 172<470.853 557.161> 421 172<150.208 246.28 476 551.92>
LayerCount: 2
Fore
SplineSet
23 236 m 2
 23 249 l 1
 195 249 l 1
 195 236 l 2
 195 158 241 131 323 131 c 0
 382 131 421 150 421 197 c 0
 421 239 399 251 361 267 c 0
 344 274 320 283 291 292 c 0
 201 320 109 355 65 434 c 0
 52 458 45 487 45 518 c 0
 45 625 126 680 210 705 c 0
 243 715 280 721 320 721 c 0
 443 721 532 668 573 582 c 0
 586 553 593 522 593 488 c 2
 593 476 l 1
 423 476 l 1
 423 488 l 2
 423 549 384 579 317 579 c 0
 257 579 217 559 217 511 c 0
 217 494 225 479 247 465 c 0
 269 451 303 437 349 424 c 0
 444 396 538 358 577 272 c 0
 588 248 593 221 593 192 c 0
 593 85 520 28 433 4 c 0
 400 -5 363 -10 323 -10 c 0
 183 -10 74 51 36 159 c 0
 28 182 23 208 23 236 c 2
115 879 m 1
 115 901 l 1
 252 901 l 1
 319 837 l 1
 385 901 l 1
 523 901 l 1
 523 878 l 1
 368 734 l 1
 269 734 l 1
 115 879 l 1
EndSplineSet
Substitution2: "<3,3> Small Caps in Latin lookup 0 subtable" Scaron.smcp
EndChar

StartChar: scaron
Encoding: 353 353 292
Width: 530
Flags: W
HStem: -10 125<201.111 329.949> 413 125<208.241 319.953> 730 20G<63 220.938 312.375 471>
VStem: 41 160<341.798 404.107> 337 162<124.931 186.45 343 397.362>
LayerCount: 2
Fore
SplineSet
23 180 m 2
 23 193 l 1
 182 193 l 1
 182 181 l 2
 185 136 216 115 267 115 c 0
 311 115 337 129 337 156 c 0
 337 180 320 186 291 196 c 0
 278 200 261 204 239 208 c 0
 164 223 90 250 56 309 c 0
 46 327 41 348 41 371 c 0
 41 423 69 463 101 489 c 0
 140 520 196 538 264 538 c 0
 367 538 444 501 480 429 c 0
 491 406 497 383 497 356 c 2
 497 343 l 1
 331 343 l 1
 331 356 l 2
 331 394 309 413 263 413 c 0
 224 413 201 397 201 370 c 0
 201 350 219 341 245 333 c 0
 279 322 333 315 371 303 c 0
 419 288 458 262 482 223 c 0
 493 204 499 181 499 155 c 0
 499 100 469 61 434 36 c 0
 392 7 334 -10 264 -10 c 0
 157 -10 75 36 40 111 c 0
 29 134 23 157 23 180 c 2
63 728 m 1
 63 750 l 1
 200 750 l 1
 267 686 l 1
 333 750 l 1
 471 750 l 1
 471 727 l 1
 316 583 l 1
 217 583 l 1
 63 728 l 1
EndSplineSet
Substitution2: "<3,3> Small Caps in Latin lookup 0 subtable" Scaron.smcp
EndChar

StartChar: Tcedilla
Encoding: 354 354 293
Width: 653
Flags: W
HStem: -223 107<263 312.051> 567 144<23 237 409 627>
VStem: 237 172<0 567>
LayerCount: 2
Fore
SplineSet
23 567 m 1
 23 711 l 1
 627 711 l 1
 627 567 l 1
 409 567 l 1
 409 0 l 1
 388 0 l 1
 429 -11 457 -44 457 -94 c 0
 457 -165 405 -199 351 -214 c 0
 329 -220 304 -223 275 -223 c 2
 263 -223 l 1
 258 -116 l 1
 271 -116 l 2
 300 -116 313 -108 313 -88 c 0
 313 -68 297 -66 256 -63 c 2
 242 -62 l 1
 255 0 l 1
 237 0 l 1
 237 567 l 1
 23 567 l 1
EndSplineSet
EndChar

StartChar: tcedilla
Encoding: 355 355 294
Width: 401
Flags: W
HStem: -226 107<184 233.144> 400 128<24 102 268 358>
VStem: 102 166<127.116 400 528 658>
LayerCount: 2
Fore
SplineSet
24 400 m 1
 24 528 l 1
 102 528 l 1
 102 658 l 1
 268 658 l 1
 268 528 l 1
 358 528 l 1
 358 400 l 1
 268 400 l 1
 268 164 l 2
 268 132 276 124 309 124 c 0
 324 124 338 125 348 127 c 2
 364 131 l 1
 364 6 l 1
 354 3 l 2
 342 0 330 -3 317 -5 c 1
 355 -18 378 -49 378 -96 c 0
 378 -166 327 -203 273 -218 c 0
 250 -224 225 -226 196 -226 c 2
 184 -226 l 1
 179 -119 l 1
 192 -119 l 2
 221 -119 234 -112 234 -92 c 0
 234 -72 218 -69 177 -66 c 2
 163 -65 l 1
 179 7 l 1
 126 32 102 80 102 149 c 2
 102 400 l 1
 24 400 l 1
EndSplineSet
EndChar

StartChar: Tcaron
Encoding: 356 356 295
Width: 653
Flags: W
HStem: 0 21G<237 409> 567 144<23 237 409 627> 734 21G<251.759 393.528>
VStem: 237 172<0 567>
LayerCount: 2
Fore
SplineSet
23 567 m 1
 23 711 l 1
 627 711 l 1
 627 567 l 1
 409 567 l 1
 409 0 l 1
 237 0 l 1
 237 567 l 1
 23 567 l 1
119 879 m 1
 119 901 l 1
 256 901 l 1
 323 837 l 1
 389 901 l 1
 527 901 l 1
 527 878 l 1
 372 734 l 1
 273 734 l 1
 119 879 l 1
EndSplineSet
Substitution2: "<3,3> Small Caps in Latin lookup 0 subtable" Tcaron.smcp
EndChar

StartChar: tcaron
Encoding: 357 357 296
Width: 511
Flags: W
HStem: -10 141<211 363.797> 400 128<24 102 268 358> 528 21G<353.898 395>
VStem: 102 166<134.954 400 528 658> 352 136<632.174 813>
LayerCount: 2
Fore
SplineSet
24 400 m 1xd8
 24 528 l 1
 102 528 l 1
 102 658 l 1
 268 658 l 1
 268 528 l 1
 358 528 l 1
 358 400 l 1
 268 400 l 1
 268 170 l 2
 268 139 276 131 309 131 c 0
 324 131 338 132 348 135 c 2
 364 139 l 1
 364 6 l 1
 354 3 l 2
 328 -4 300 -10 265 -10 c 0
 157 -10 102 47 102 149 c 2
 102 400 l 1
 24 400 l 1xd8
303 577 m 1
 309 588 l 1
 332 626 352 665 352 724 c 2
 352 813 l 1
 488 813 l 1
 488 724 l 2
 488 683 475 649 461 620 c 0
 445 586 421 557 395 534 c 2
 389 528 l 1xb8
 303 577 l 1
EndSplineSet
Substitution2: "<3,3> Small Caps in Latin lookup 0 subtable" Tcaron.smcp
EndChar

StartChar: Tbar
Encoding: 358 358 297
Width: 653
Flags: W
HStem: 0 21G<237 409> 354 114<133 237 409 499> 567 144<23 237 409 627>
VStem: 237 172<0 354 468 567>
LayerCount: 2
Fore
SplineSet
23 567 m 1
 23 711 l 1
 627 711 l 1
 627 567 l 1
 409 567 l 1
 409 468 l 1
 499 468 l 1
 499 354 l 1
 409 354 l 1
 409 0 l 1
 237 0 l 1
 237 354 l 1
 133 354 l 1
 133 468 l 1
 237 468 l 1
 237 567 l 1
 23 567 l 1
EndSplineSet
Substitution2: "<3,3> Small Caps in Latin lookup 0 subtable" Tbar.smcp
EndChar

StartChar: tbar
Encoding: 359 359 298
Width: 427
Flags: W
HStem: -10 141<233 384.225> 248 114<27 123 289 393> 400 128<47 123 289 379>
VStem: 123 166<136.814 248 362 400 528 658>
LayerCount: 2
Fore
SplineSet
27 248 m 1
 27 362 l 1
 123 362 l 1
 123 400 l 1
 47 400 l 1
 47 528 l 1
 123 528 l 1
 123 658 l 1
 289 658 l 1
 289 528 l 1
 379 528 l 1
 379 400 l 1
 289 400 l 1
 289 362 l 1
 393 362 l 1
 393 248 l 1
 289 248 l 1
 289 169 l 2
 289 138 298 131 331 131 c 0
 346 131 360 132 370 135 c 2
 385 139 l 1
 385 6 l 1
 357 -3 326 -10 287 -10 c 0
 179 -10 123 48 123 151 c 2
 123 248 l 1
 27 248 l 1
EndSplineSet
Substitution2: "<3,3> Small Caps in Latin lookup 0 subtable" Tbar.smcp
EndChar

StartChar: Utilde
Encoding: 360 360 299
Width: 641
Flags: W
HStem: -10 143<241.441 396.206> 691 20G<33 205 431 603> 739 114<312.347 403.288> 781 114<228.53 315.134>
VStem: 33 172<169.08 711> 405 108<854.009 893> 431 172<169.011 711>
LayerCount: 2
Fore
SplineSet
33 246 m 2xca
 33 711 l 1
 205 711 l 1
 205 249 l 2
 205 170 241 133 318 133 c 0
 396 133 431 170 431 249 c 2
 431 711 l 1
 603 711 l 1
 603 246 l 2
 603 117 533 38 431 7 c 0
 397 -4 358 -10 318 -10 c 0
 186 -10 96 44 55 136 c 0
 41 168 33 205 33 246 c 2xca
119 740 m 1
 119 752 l 2
 119 813 151 861 193 883 c 0
 209 891 225 895 242 895 c 0xdc
 274 895 297 882 316 873 c 0
 336 863 354 853 376 853 c 0
 394 853 405 866 405 888 c 2
 405 901 l 1
 513 893 l 1
 513 882 l 2
 513 820 481 772 439 750 c 0
 424 742 407 739 389 739 c 0xec
 340 739 312 763 284 776 c 0
 275 780 267 781 255 781 c 0xdc
 237 781 227 768 227 746 c 2
 227 733 l 1
 119 740 l 1
EndSplineSet
Substitution2: "<3,3> Small Caps in Latin lookup 0 subtable" Utilde.smcp
EndChar

StartChar: utilde
Encoding: 361 361 300
Width: 551
Flags: W
HStem: -10 139<210.608 314.469> 0 21G<354.947 512> 508 20G<32 198 346 512> 589 114<268.347 360.134> 631 114<183.704 271.134> 731 20G<362 468>
VStem: 32 166<141.236 528> 346 166<146.333 528> 362 106<704.132 743>
LayerCount: 2
Fore
SplineSet
32 190 m 2xa3
 32 528 l 1
 198 528 l 1
 198 194 l 2
 198 150 216 129 260 129 c 0xa3
 305 129 330 145 346 168 c 1
 346 528 l 1
 512 528 l 1
 512 0 l 1
 356 0 l 1x63
 354 38 l 1
 321 9 276 -10 219 -10 c 0
 90 -10 32 68 32 190 c 2xa3
76 590 m 1
 76 602 l 2
 76 663 107 711 149 733 c 0
 165 741 181 745 198 745 c 0x2a80
 230 745 253 732 272 723 c 0
 292 713 310 703 332 703 c 0
 350 703 362 716 362 738 c 2
 362 751 l 1
 468 743 l 1
 468 732 l 2
 468 670 437 622 395 600 c 0
 380 592 363 589 345 589 c 0x3680
 296 589 268 613 240 626 c 0
 231 630 223 631 211 631 c 0x2a80
 193 631 182 618 182 596 c 2
 182 583 l 1
 76 590 l 1
EndSplineSet
Substitution2: "<3,3> Small Caps in Latin lookup 0 subtable" Utilde.smcp
EndChar

